<?xml version="1.0" encoding="UTF-8" standalone="no"?>
<!DOCTYPE svg PUBLIC "-//W3C//DTD SVG 1.1//EN"
 "http://www.w3.org/Graphics/SVG/1.1/DTD/svg11.dtd">
<!-- Generated by graphviz version 8.0.5 (20230430.1635)
 -->
<!-- Title: GetMainType Pages: 1 -->
<svg width="280pt" height="66pt"
 viewBox="0.00 0.00 280.00 66.00" xmlns="http://www.w3.org/2000/svg" xmlns:xlink="http://www.w3.org/1999/xlink">
<g id="graph0" class="graph" transform="scale(1 1) rotate(0) translate(4 62)">
<title>GetMainType</title>
<!-- Node1 -->
<g id="Node000001" class="node">
<title>Node1</title>
<g id="a_Node000001"><a xlink:title="Returns the type of the main asset for the GUID.">
<polygon fill="#999999" stroke="#666666" points="73.75,-39 0,-39 0,-19 73.75,-19 73.75,-39"/>
<text text-anchor="middle" x="36.88" y="-25.5" font-family="Helvetica,sans-Serif" font-size="10.00">GetMainType</text>
</a>
</g>
</g>
<!-- Node2 -->
<g id="Node000002" class="node">
<title>Node2</title>
<g id="a_Node000002"><a xlink:href="class_code_smile_1_1_editor_1_1_asset_1_1_path_a1aa26b3370ac2454e86ed88f6999dd36.html#a1aa26b3370ac2454e86ed88f6999dd36" target="_top" xlink:title="Gets the relative path of an asset.">
<polygon fill="white" stroke="#666666" points="272,-58 109.75,-58 109.75,-38 272,-38 272,-58"/>
<text text-anchor="middle" x="190.88" y="-44.5" font-family="Helvetica,sans-Serif" font-size="10.00">CodeSmile.Editor.Asset.Path.Get</text>
</a>
</g>
</g>
<!-- Node1&#45;&gt;Node2 -->
<g id="edge1_Node000001_Node000002" class="edge">
<title>Node1&#45;&gt;Node2</title>
<g id="a_edge1_Node000001_Node000002"><a xlink:title=" ">
<path fill="none" stroke="#63b8ff" d="M73.9,-33.5C81.57,-34.46 90.01,-35.52 98.73,-36.61"/>
<polygon fill="#63b8ff" stroke="#63b8ff" points="98.1,-40.18 108.46,-37.95 98.97,-33.23 98.1,-40.18"/>
</a>
</g>
</g>
<!-- Node3 -->
<g id="Node000003" class="node">
<title>Node3</title>
<g id="a_Node000003"><a xlink:href="class_code_smile_1_1_editor_1_1_asset_ab856af13e3309f29c328b6e38dedf774.html#ab856af13e3309f29c328b6e38dedf774" target="_top" xlink:title="Returns the type of the main asset at the path.">
<polygon fill="white" stroke="#666666" points="227.75,-20 154,-20 154,0 227.75,0 227.75,-20"/>
<text text-anchor="middle" x="190.88" y="-6.5" font-family="Helvetica,sans-Serif" font-size="10.00">GetMainType</text>
</a>
</g>
</g>
<!-- Node1&#45;&gt;Node3 -->
<g id="edge2_Node000001_Node000003" class="edge">
<title>Node1&#45;&gt;Node3</title>
<g id="a_edge2_Node000001_Node000003"><a xlink:title=" ">
<path fill="none" stroke="#63b8ff" d="M73.9,-24.5C94.47,-21.93 120.52,-18.67 142.71,-15.9"/>
<polygon fill="#63b8ff" stroke="#63b8ff" points="143.1,-19.25 152.58,-14.54 142.23,-12.3 143.1,-19.25"/>
</a>
</g>
</g>
</g>
</svg>
