<?xml version="1.0" encoding="UTF-8" standalone="no"?>
<!DOCTYPE svg PUBLIC "-//W3C//DTD SVG 1.1//EN"
 "http://www.w3.org/Graphics/SVG/1.1/DTD/svg11.dtd">
<!-- Generated by graphviz version 9.0.0 (20230911.1827)
 -->
<!-- Title: Asset.Label Pages: 1 -->
<svg width="69pt" height="172pt"
 viewBox="0.00 0.00 69.00 172.00" xmlns="http://www.w3.org/2000/svg" xmlns:xlink="http://www.w3.org/1999/xlink">
<g id="graph0" class="graph" transform="scale(1 1) rotate(0) translate(4 168)">
<title>Asset.Label</title>
<!-- Node1 -->
<g id="Node000001" class="node">
<title>Node1</title>
<g id="a_Node000001"><a xlink:title="Groups all asset label related static methods.">
<polygon fill="#999999" stroke="none" points="61,-164 0,-164 0,0 61,0 61,-164"/>
<text text-anchor="start" x="4.62" y="-150.5" font-family="Helvetica,sans-Serif" font-size="10.00">Asset.Label</text>
<text text-anchor="start" x="29" y="-134.5" font-family="Helvetica,sans-Serif" font-size="10.00"> </text>
<text text-anchor="start" x="4.5" y="-118.5" font-family="Helvetica,sans-Serif" font-size="10.00">+</text>
<text text-anchor="start" x="15" y="-118.5" font-family="Helvetica,sans-Serif" font-size="10.00">Add()</text>
<text text-anchor="start" x="4.5" y="-102.5" font-family="Helvetica,sans-Serif" font-size="10.00">+</text>
<text text-anchor="start" x="15" y="-102.5" font-family="Helvetica,sans-Serif" font-size="10.00">Add()</text>
<text text-anchor="start" x="4.5" y="-86.5" font-family="Helvetica,sans-Serif" font-size="10.00">+</text>
<text text-anchor="start" x="15" y="-86.5" font-family="Helvetica,sans-Serif" font-size="10.00">ClearAll()</text>
<text text-anchor="start" x="4.5" y="-70.5" font-family="Helvetica,sans-Serif" font-size="10.00">+</text>
<text text-anchor="start" x="15" y="-70.5" font-family="Helvetica,sans-Serif" font-size="10.00">GetAll()</text>
<text text-anchor="start" x="4.5" y="-54.5" font-family="Helvetica,sans-Serif" font-size="10.00">+</text>
<text text-anchor="start" x="15" y="-54.5" font-family="Helvetica,sans-Serif" font-size="10.00">GetAll()</text>
<text text-anchor="start" x="4.5" y="-38.5" font-family="Helvetica,sans-Serif" font-size="10.00">+</text>
<text text-anchor="start" x="15" y="-38.5" font-family="Helvetica,sans-Serif" font-size="10.00">GetAll()</text>
<text text-anchor="start" x="4.5" y="-22.5" font-family="Helvetica,sans-Serif" font-size="10.00">+</text>
<text text-anchor="start" x="15" y="-22.5" font-family="Helvetica,sans-Serif" font-size="10.00">Remove()</text>
<text text-anchor="start" x="4.5" y="-6.5" font-family="Helvetica,sans-Serif" font-size="10.00">+</text>
<text text-anchor="start" x="15" y="-6.5" font-family="Helvetica,sans-Serif" font-size="10.00">SetAll()</text>
<polygon fill="#666666" stroke="#666666" points="0,-146 0,-146 61,-146 61,-146 0,-146"/>
<polygon fill="#666666" stroke="#666666" points="0,-130 0,-130 61,-130 61,-130 0,-130"/>
<polygon fill="none" stroke="#666666" points="0,0 0,-164 61,-164 61,0 0,0"/>
</a>
</g>
</g>
</g>
</svg>
