<?xml version="1.0" encoding="UTF-8" standalone="no"?>
<!DOCTYPE svg PUBLIC "-//W3C//DTD SVG 1.1//EN"
 "http://www.w3.org/Graphics/SVG/1.1/DTD/svg11.dtd">
<!-- Generated by graphviz version 9.0.0 (20230911.1827)
 -->
<!-- Title: Move Pages: 1 -->
<svg width="225pt" height="46pt"
 viewBox="0.00 0.00 225.25 46.00" xmlns="http://www.w3.org/2000/svg" xmlns:xlink="http://www.w3.org/1999/xlink">
<g id="graph0" class="graph" transform="scale(1 1) rotate(0) translate(4 42)">
<title>Move</title>
<!-- Node1 -->
<g id="Node000001" class="node">
<title>Node1</title>
<g id="a_Node000001"><a xlink:title="Moves an asset file to destination path.">
<polygon fill="#999999" stroke="#666666" points="217.25,-20 178.75,-20 178.75,0 217.25,0 217.25,-20"/>
<text text-anchor="middle" x="198" y="-6.5" font-family="Helvetica,sans-Serif" font-size="10.00">Move</text>
</a>
</g>
</g>
<!-- Node2 -->
<g id="Node000002" class="node">
<title>Node2</title>
<g id="a_Node000002"><a xlink:href="class_code_smile_editor_1_1_asset_a45faf9fc17e3cb57b87d2ae09e4dd7f8.html#a45faf9fc17e3cb57b87d2ae09e4dd7f8" target="_top" xlink:title="Moves asset to destination path.">
<polygon fill="white" stroke="#666666" points="142.75,-20 0,-20 0,0 142.75,0 142.75,-20"/>
<text text-anchor="middle" x="71.38" y="-6.5" font-family="Helvetica,sans-Serif" font-size="10.00">CodeSmileEditor.Asset.Move</text>
</a>
</g>
</g>
<!-- Node1&#45;&gt;Node2 -->
<g id="edge1_Node000001_Node000002" class="edge">
<title>Node1&#45;&gt;Node2</title>
<g id="a_edge1_Node000001_Node000002"><a xlink:title=" ">
<path fill="none" stroke="#63b8ff" d="M166.88,-10C159.55,-10 151.39,-10 143.03,-10"/>
<polygon fill="#63b8ff" stroke="#63b8ff" points="166.83,-13.5 176.83,-10 166.83,-6.5 166.83,-13.5"/>
</a>
</g>
</g>
<!-- Node2&#45;&gt;Node2 -->
<g id="edge2_Node000002_Node000002" class="edge">
<title>Node2&#45;&gt;Node2</title>
<g id="a_edge2_Node000002_Node000002"><a xlink:title=" ">
<path fill="none" stroke="#63b8ff" d="M93.76,-31.44C90.87,-35.3 83.41,-38 71.38,-38 49.36,-38 42.66,-28.98 51.26,-20.34"/>
<polygon fill="#63b8ff" stroke="#63b8ff" points="97.22,-30.92 91.8,-21.82 90.36,-32.32 97.22,-30.92"/>
</a>
</g>
</g>
</g>
</svg>
