<?xml version="1.0" encoding="UTF-8" standalone="no"?>
<!DOCTYPE svg PUBLIC "-//W3C//DTD SVG 1.1//EN"
 "http://www.w3.org/Graphics/SVG/1.1/DTD/svg11.dtd">
<!-- Generated by graphviz version 8.0.5 (20230430.1635)
 -->
<!-- Title: Get Pages: 1 -->
<svg width="232pt" height="216pt"
 viewBox="0.00 0.00 232.00 216.00" xmlns="http://www.w3.org/2000/svg" xmlns:xlink="http://www.w3.org/1999/xlink">

<svg id="main" version="1.1" xmlns="http://www.w3.org/2000/svg" xmlns:xlink="http://www.w3.org/1999/xlink" xml:space="preserve" onload="init(evt)">
<style type="text/css"><![CDATA[
.node, .edge {opacity: 0.7;}
.node.selected, .edge.selected {opacity: 1;}
.edge:hover path { stroke: red; }
.edge:hover polygon { stroke: red; fill: red; }
]]></style>
<script type="application/ecmascript" xlink:href="svg.min.js"/>
<svg id="graph" class="graph">
<g id="graph0" class="graph" transform="scale(1 1) rotate(0) translate(4 212)">
<title>Get</title>
<!-- Node1 -->
<g id="Node000001" class="node">
<title>Node1</title>
<g id="a_Node000001"><a xlink:title="Gets the relative path of an asset.">
<polygon fill="#999999" stroke="#666666" points="224,-120 192.25,-120 192.25,-100 224,-100 224,-120"/>
<text text-anchor="middle" x="208.12" y="-106.5" font-family="Helvetica,sans-Serif" font-size="10.00">Get</text>
</a>
</g>
</g>
<!-- Node2 -->
<g id="Node000002" class="node">
<title>Node2</title>
<g id="a_Node000002"><a xlink:href="class_code_smile_1_1_editor_1_1_asset_1_1_version_control_a937655b7430b6a64a0af9966b066c4e3.html#a937655b7430b6a64a0af9966b066c4e3" target="_top" xlink:title="Returns true if the asset can be opened for editing in the version control system.">
<polygon fill="white" stroke="#666666" points="156.25,-208 0,-208 0,-176 156.25,-176 156.25,-208"/>
<text text-anchor="start" x="8" y="-194.5" font-family="Helvetica,sans-Serif" font-size="10.00">CodeSmile.Editor.Asset.Version</text>
<text text-anchor="middle" x="78.12" y="-182.5" font-family="Helvetica,sans-Serif" font-size="10.00">Control.CanMakeEditable</text>
</a>
</g>
</g>
<!-- Node1&#45;&gt;Node2 -->
<g id="edge1_Node000001_Node000002" class="edge">
<title>Node1&#45;&gt;Node2</title>
<g id="a_edge1_Node000001_Node000002"><a xlink:title=" ">
<path fill="none" stroke="#63b8ff" d="M194.25,-129.05C184.98,-141.43 171.48,-157.07 156.25,-167 151.3,-170.23 145.89,-173.07 140.32,-175.57"/>
<polygon fill="#63b8ff" stroke="#63b8ff" points="197.49,-131.53 200.46,-121.36 191.8,-127.46 197.49,-131.53"/>
</a>
</g>
</g>
<!-- Node3 -->
<g id="Node000003" class="node">
<title>Node3</title>
<g id="a_Node000003"><a xlink:href="class_code_smile_1_1_editor_1_1_asset_1_1_path_aa5b7d522e7180d8e9943ca3a7f636b72.html#aa5b7d522e7180d8e9943ca3a7f636b72" target="_top" xlink:title="Creates any missing folders in the path.">
<polygon fill="white" stroke="#666666" points="116.5,-158 39.75,-158 39.75,-138 116.5,-138 116.5,-158"/>
<text text-anchor="middle" x="78.12" y="-144.5" font-family="Helvetica,sans-Serif" font-size="10.00">CreateFolders</text>
</a>
</g>
</g>
<!-- Node1&#45;&gt;Node3 -->
<g id="edge2_Node000001_Node000003" class="edge">
<title>Node1&#45;&gt;Node3</title>
<g id="a_edge2_Node000001_Node000003"><a xlink:title=" ">
<path fill="none" stroke="#63b8ff" d="M182.11,-120C173.94,-123.09 164.77,-126.37 156.25,-129 143.47,-132.95 129.3,-136.63 116.63,-139.68"/>
<polygon fill="#63b8ff" stroke="#63b8ff" points="183.08,-122.99 191.15,-116.12 180.56,-116.46 183.08,-122.99"/>
</a>
</g>
</g>
<!-- Node4 -->
<g id="Node000004" class="node">
<title>Node4</title>
<g id="a_Node000004"><a xlink:href="class_code_smile_1_1_editor_1_1_asset_1_1_path_a930bda1611a02deae73c0cf12f4edc19.html#a930bda1611a02deae73c0cf12f4edc19" target="_top" xlink:title="Converts an array of asset instances to their asset paths.">
<polygon fill="white" stroke="#666666" points="94,-120 62.25,-120 62.25,-100 94,-100 94,-120"/>
<text text-anchor="middle" x="78.12" y="-106.5" font-family="Helvetica,sans-Serif" font-size="10.00">Get</text>
</a>
</g>
</g>
<!-- Node1&#45;&gt;Node4 -->
<g id="edge3_Node000001_Node000004" class="edge">
<title>Node1&#45;&gt;Node4</title>
<g id="a_edge3_Node000001_Node000004"><a xlink:title=" ">
<path fill="none" stroke="#63b8ff" d="M180.98,-110C154.87,-110 115.64,-110 94.29,-110"/>
<polygon fill="#63b8ff" stroke="#63b8ff" points="180.94,-113.5 190.94,-110 180.94,-106.5 180.94,-113.5"/>
</a>
</g>
</g>
<!-- Node5 -->
<g id="Node000005" class="node">
<title>Node5</title>
<g id="a_Node000005"><a xlink:href="class_code_smile_1_1_editor_1_1_asset_a82b0bb0beb5f5422951631789bca4256.html#a82b0bb0beb5f5422951631789bca4256" target="_top" xlink:title="Returns the type of the main asset for the GUID.">
<polygon fill="white" stroke="#666666" points="147.62,-82 8.62,-82 8.62,-50 147.62,-50 147.62,-82"/>
<text text-anchor="start" x="16.62" y="-68.5" font-family="Helvetica,sans-Serif" font-size="10.00">CodeSmile.Editor.Asset.Get</text>
<text text-anchor="middle" x="78.12" y="-56.5" font-family="Helvetica,sans-Serif" font-size="10.00">MainType</text>
</a>
</g>
</g>
<!-- Node1&#45;&gt;Node5 -->
<g id="edge4_Node000001_Node000005" class="edge">
<title>Node1&#45;&gt;Node5</title>
<g id="a_edge4_Node000001_Node000005"><a xlink:title=" ">
<path fill="none" stroke="#63b8ff" d="M181.99,-100.36C173.81,-97.29 164.67,-93.93 156.25,-91 148.14,-88.17 139.52,-85.27 131.09,-82.5"/>
<polygon fill="#63b8ff" stroke="#63b8ff" points="180.46,-103.9 191.05,-104.17 182.94,-97.36 180.46,-103.9"/>
</a>
</g>
</g>
<!-- Node6 -->
<g id="Node000006" class="node">
<title>Node6</title>
<g id="a_Node000006"><a xlink:href="class_code_smile_1_1_editor_1_1_asset_1_1_file_a9702d12ef27f2d0dfd1f8201fbb37088.html#a9702d12ef27f2d0dfd1f8201fbb37088" target="_top" xlink:title="Loads the main (root) asset object for the GUID.">
<polygon fill="white" stroke="#666666" points="149.12,-32 7.12,-32 7.12,0 149.12,0 149.12,-32"/>
<text text-anchor="start" x="15.12" y="-18.5" font-family="Helvetica,sans-Serif" font-size="10.00">CodeSmile.Editor.Asset.File.</text>
<text text-anchor="middle" x="78.12" y="-6.5" font-family="Helvetica,sans-Serif" font-size="10.00">LoadMain&lt; T &gt;</text>
</a>
</g>
</g>
<!-- Node1&#45;&gt;Node6 -->
<g id="edge5_Node000001_Node000006" class="edge">
<title>Node1&#45;&gt;Node6</title>
<g id="a_edge5_Node000001_Node000006"><a xlink:title=" ">
<path fill="none" stroke="#63b8ff" d="M196.83,-89.85C188,-74.43 173.91,-53.73 156.25,-41 151.68,-37.71 146.66,-34.83 141.43,-32.33"/>
<polygon fill="#63b8ff" stroke="#63b8ff" points="194.23,-91.4 202.08,-98.51 200.38,-88.05 194.23,-91.4"/>
</a>
</g>
</g>
</g>
</svg>
</svg>

<style type='text/css'>
<![CDATA[
[data-mouse-over-selected='false'] { opacity: 0.7; }
[data-mouse-over-selected='true']  { opacity: 1.0; }
]]>
</style>
<script type="application/ecmascript"><![CDATA[
document.addEventListener('DOMContentLoaded', (event) => {
  highlightEdges();
  highlightAdjacentNodes();
});
]]></script>
</svg>
