<?xml version="1.0" encoding="UTF-8" standalone="no"?>
<!DOCTYPE svg PUBLIC "-//W3C//DTD SVG 1.1//EN"
 "http://www.w3.org/Graphics/SVG/1.1/DTD/svg11.dtd">
<!-- Generated by graphviz version 8.0.5 (20230430.1635)
 -->
<!-- Title: Get Pages: 1 -->
<svg width="229pt" height="216pt"
 viewBox="0.00 0.00 229.00 216.00" xmlns="http://www.w3.org/2000/svg" xmlns:xlink="http://www.w3.org/1999/xlink">

<svg id="main" version="1.1" xmlns="http://www.w3.org/2000/svg" xmlns:xlink="http://www.w3.org/1999/xlink" xml:space="preserve" onload="init(evt)">
<style type="text/css"><![CDATA[
.node, .edge {opacity: 0.7;}
.node.selected, .edge.selected {opacity: 1;}
.edge:hover path { stroke: red; }
.edge:hover polygon { stroke: red; fill: red; }
]]></style>
<script type="application/ecmascript" xlink:href="svg.min.js"/>
<svg id="graph" class="graph">
<g id="graph0" class="graph" transform="scale(1 1) rotate(0) translate(4 212)">
<title>Get</title>
<!-- Node1 -->
<g id="Node000001" class="node">
<title>Node1</title>
<g id="a_Node000001"><a xlink:title="Gets the relative path of an asset.">
<polygon fill="#999999" stroke="#666666" points="221,-120 189.25,-120 189.25,-100 221,-100 221,-120"/>
<text text-anchor="middle" x="205.12" y="-106.5" font-family="Helvetica,sans-Serif" font-size="10.00">Get</text>
</a>
</g>
</g>
<!-- Node2 -->
<g id="Node000002" class="node">
<title>Node2</title>
<g id="a_Node000002"><a xlink:href="class_code_smile_editor_1_1_asset_1_1_version_control_a937655b7430b6a64a0af9966b066c4e3.html#a937655b7430b6a64a0af9966b066c4e3" target="_top" xlink:title="Returns true if the asset can be opened for editing in the version control system.">
<polygon fill="white" stroke="#666666" points="153.25,-208 0,-208 0,-176 153.25,-176 153.25,-208"/>
<text text-anchor="start" x="8" y="-194.5" font-family="Helvetica,sans-Serif" font-size="10.00">CodeSmileEditor.Asset.Version</text>
<text text-anchor="middle" x="76.62" y="-182.5" font-family="Helvetica,sans-Serif" font-size="10.00">Control.CanMakeEditable</text>
</a>
</g>
</g>
<!-- Node1&#45;&gt;Node2 -->
<g id="edge1_Node000001_Node000002" class="edge">
<title>Node1&#45;&gt;Node2</title>
<g id="a_edge1_Node000001_Node000002"><a xlink:title=" ">
<path fill="none" stroke="#63b8ff" d="M191.23,-129.02C181.96,-141.39 168.45,-157.03 153.25,-167 148.28,-170.26 142.84,-173.13 137.24,-175.65"/>
<polygon fill="#63b8ff" stroke="#63b8ff" points="194.47,-131.51 197.45,-121.34 188.78,-127.43 194.47,-131.51"/>
</a>
</g>
</g>
<!-- Node3 -->
<g id="Node000003" class="node">
<title>Node3</title>
<g id="a_Node000003"><a xlink:href="class_code_smile_editor_1_1_asset_1_1_path_aa5b7d522e7180d8e9943ca3a7f636b72.html#aa5b7d522e7180d8e9943ca3a7f636b72" target="_top" xlink:title="Creates any missing folders in the path.">
<polygon fill="white" stroke="#666666" points="115,-158 38.25,-158 38.25,-138 115,-138 115,-158"/>
<text text-anchor="middle" x="76.62" y="-144.5" font-family="Helvetica,sans-Serif" font-size="10.00">CreateFolders</text>
</a>
</g>
</g>
<!-- Node1&#45;&gt;Node3 -->
<g id="edge2_Node000001_Node000003" class="edge">
<title>Node1&#45;&gt;Node3</title>
<g id="a_edge2_Node000001_Node000003"><a xlink:title=" ">
<path fill="none" stroke="#63b8ff" d="M179.1,-119.98C170.93,-123.07 161.76,-126.35 153.25,-129 140.97,-132.82 127.39,-136.42 115.17,-139.44"/>
<polygon fill="#63b8ff" stroke="#63b8ff" points="180.07,-122.97 188.14,-116.1 177.55,-116.44 180.07,-122.97"/>
</a>
</g>
</g>
<!-- Node4 -->
<g id="Node000004" class="node">
<title>Node4</title>
<g id="a_Node000004"><a xlink:href="class_code_smile_editor_1_1_asset_1_1_path_a930bda1611a02deae73c0cf12f4edc19.html#a930bda1611a02deae73c0cf12f4edc19" target="_top" xlink:title="Converts an array of asset instances to their asset paths.">
<polygon fill="white" stroke="#666666" points="92.5,-120 60.75,-120 60.75,-100 92.5,-100 92.5,-120"/>
<text text-anchor="middle" x="76.62" y="-106.5" font-family="Helvetica,sans-Serif" font-size="10.00">Get</text>
</a>
</g>
</g>
<!-- Node1&#45;&gt;Node4 -->
<g id="edge3_Node000001_Node000004" class="edge">
<title>Node1&#45;&gt;Node4</title>
<g id="a_edge3_Node000001_Node000004"><a xlink:title=" ">
<path fill="none" stroke="#63b8ff" d="M178.28,-110C152.48,-110 113.72,-110 92.61,-110"/>
<polygon fill="#63b8ff" stroke="#63b8ff" points="178.12,-113.5 188.12,-110 178.12,-106.5 178.12,-113.5"/>
</a>
</g>
</g>
<!-- Node5 -->
<g id="Node000005" class="node">
<title>Node5</title>
<g id="a_Node000005"><a xlink:href="class_code_smile_editor_1_1_asset_a82b0bb0beb5f5422951631789bca4256.html#a82b0bb0beb5f5422951631789bca4256" target="_top" xlink:title="Returns the type of the main asset for the GUID.">
<polygon fill="white" stroke="#666666" points="144.62,-82 8.62,-82 8.62,-50 144.62,-50 144.62,-82"/>
<text text-anchor="start" x="16.62" y="-68.5" font-family="Helvetica,sans-Serif" font-size="10.00">CodeSmileEditor.Asset.Get</text>
<text text-anchor="middle" x="76.62" y="-56.5" font-family="Helvetica,sans-Serif" font-size="10.00">MainType</text>
</a>
</g>
</g>
<!-- Node1&#45;&gt;Node5 -->
<g id="edge4_Node000001_Node000005" class="edge">
<title>Node1&#45;&gt;Node5</title>
<g id="a_edge4_Node000001_Node000005"><a xlink:title=" ">
<path fill="none" stroke="#63b8ff" d="M178.98,-100.39C170.8,-97.32 161.66,-93.96 153.25,-91 145.16,-88.15 136.56,-85.22 128.16,-82.41"/>
<polygon fill="#63b8ff" stroke="#63b8ff" points="177.45,-103.93 188.04,-104.2 179.93,-97.39 177.45,-103.93"/>
</a>
</g>
</g>
<!-- Node6 -->
<g id="Node000006" class="node">
<title>Node6</title>
<g id="a_Node000006"><a xlink:href="class_code_smile_editor_1_1_asset_1_1_file_a9702d12ef27f2d0dfd1f8201fbb37088.html#a9702d12ef27f2d0dfd1f8201fbb37088" target="_top" xlink:title="Loads the main (root) asset object for the GUID.">
<polygon fill="white" stroke="#666666" points="146.12,-32 7.12,-32 7.12,0 146.12,0 146.12,-32"/>
<text text-anchor="start" x="15.12" y="-18.5" font-family="Helvetica,sans-Serif" font-size="10.00">CodeSmileEditor.Asset.File.</text>
<text text-anchor="middle" x="76.62" y="-6.5" font-family="Helvetica,sans-Serif" font-size="10.00">LoadMain&lt; T &gt;</text>
</a>
</g>
</g>
<!-- Node1&#45;&gt;Node6 -->
<g id="edge5_Node000001_Node000006" class="edge">
<title>Node1&#45;&gt;Node6</title>
<g id="a_edge5_Node000001_Node000006"><a xlink:title=" ">
<path fill="none" stroke="#63b8ff" d="M193.81,-89.87C184.96,-74.48 170.87,-53.78 153.25,-41 148.77,-37.75 143.85,-34.91 138.72,-32.43"/>
<polygon fill="#63b8ff" stroke="#63b8ff" points="191.21,-91.42 199.07,-98.52 197.36,-88.07 191.21,-91.42"/>
</a>
</g>
</g>
</g>
</svg>
</svg>

<style type='text/css'>
<![CDATA[
[data-mouse-over-selected='false'] { opacity: 0.7; }
[data-mouse-over-selected='true']  { opacity: 1.0; }
]]>
</style>
<script type="application/ecmascript"><![CDATA[
document.addEventListener('DOMContentLoaded', (event) => {
  highlightEdges();
  highlightAdjacentNodes();
});
]]></script>
</svg>
