<?xml version="1.0" encoding="UTF-8" standalone="no"?>
<!DOCTYPE svg PUBLIC "-//W3C//DTD SVG 1.1//EN"
 "http://www.w3.org/Graphics/SVG/1.1/DTD/svg11.dtd">
<!-- Generated by graphviz version 8.0.5 (20230430.1635)
 -->
<!-- Title: Asset.Dependency Pages: 1 -->
<svg width="100pt" height="172pt"
 viewBox="0.00 0.00 100.00 172.00" xmlns="http://www.w3.org/2000/svg" xmlns:xlink="http://www.w3.org/1999/xlink">
<g id="graph0" class="graph" transform="scale(1 1) rotate(0) translate(4 168)">
<title>Asset.Dependency</title>
<!-- Node1 -->
<g id="Node000001" class="node">
<title>Node1</title>
<g id="a_Node000001"><a xlink:title="Groups all dependency related functionality.">
<polygon fill="#999999" stroke="none" points="92,-164 0,-164 0,0 92,0 92,-164"/>
<text text-anchor="start" x="4.75" y="-150.5" font-family="Helvetica,sans-Serif" font-size="10.00">Asset.Dependency</text>
<text text-anchor="start" x="44.5" y="-134.5" font-family="Helvetica,sans-Serif" font-size="10.00"> </text>
<text text-anchor="start" x="10" y="-118.5" font-family="Helvetica,sans-Serif" font-size="10.00">+</text>
<text text-anchor="start" x="26" y="-118.5" font-family="Helvetica,sans-Serif" font-size="10.00">GetAll()</text>
<text text-anchor="start" x="10" y="-102.5" font-family="Helvetica,sans-Serif" font-size="10.00">+</text>
<text text-anchor="start" x="26" y="-102.5" font-family="Helvetica,sans-Serif" font-size="10.00">GetAll()</text>
<text text-anchor="start" x="10" y="-86.5" font-family="Helvetica,sans-Serif" font-size="10.00">+</text>
<text text-anchor="start" x="26" y="-86.5" font-family="Helvetica,sans-Serif" font-size="10.00">GetDirect()</text>
<text text-anchor="start" x="10" y="-70.5" font-family="Helvetica,sans-Serif" font-size="10.00">+</text>
<text text-anchor="start" x="26" y="-70.5" font-family="Helvetica,sans-Serif" font-size="10.00">GetDirect()</text>
<text text-anchor="start" x="10" y="-54.5" font-family="Helvetica,sans-Serif" font-size="10.00">+</text>
<text text-anchor="start" x="26" y="-54.5" font-family="Helvetica,sans-Serif" font-size="10.00">GetHash()</text>
<text text-anchor="start" x="10" y="-38.5" font-family="Helvetica,sans-Serif" font-size="10.00">+</text>
<text text-anchor="start" x="26" y="-38.5" font-family="Helvetica,sans-Serif" font-size="10.00">GetHash()</text>
<text text-anchor="start" x="10" y="-22.5" font-family="Helvetica,sans-Serif" font-size="10.00">+</text>
<text text-anchor="start" x="26" y="-22.5" font-family="Helvetica,sans-Serif" font-size="10.00">Register()</text>
<text text-anchor="start" x="10" y="-6.5" font-family="Helvetica,sans-Serif" font-size="10.00">+</text>
<text text-anchor="start" x="26" y="-6.5" font-family="Helvetica,sans-Serif" font-size="10.00">Unregister()</text>
<polygon fill="#666666" stroke="#666666" points="0,-146 0,-146 92,-146 92,-146 0,-146"/>
<polygon fill="#666666" stroke="#666666" points="0,-130 0,-130 92,-130 92,-130 0,-130"/>
<polygon fill="none" stroke="#666666" points="0,0 0,-164 92,-164 92,0 0,0"/>
</a>
</g>
</g>
</g>
</svg>
