<?xml version="1.0" encoding="UTF-8" standalone="no"?>
<!DOCTYPE svg PUBLIC "-//W3C//DTD SVG 1.1//EN"
 "http://www.w3.org/Graphics/SVG/1.1/DTD/svg11.dtd">
<!-- Generated by graphviz version 8.0.5 (20230430.1635)
 -->
<!-- Title: CreateFolders Pages: 1 -->
<svg width="192pt" height="104pt"
 viewBox="0.00 0.00 191.50 104.00" xmlns="http://www.w3.org/2000/svg" xmlns:xlink="http://www.w3.org/1999/xlink">
<g id="graph0" class="graph" transform="scale(1 1) rotate(0) translate(4 100)">
<title>CreateFolders</title>
<!-- Node1 -->
<g id="Node000001" class="node">
<title>Node1</title>
<g id="a_Node000001"><a xlink:title="Creates any missing folders in the path.">
<polygon fill="#999999" stroke="#666666" points="76.75,-58 0,-58 0,-38 76.75,-38 76.75,-58"/>
<text text-anchor="middle" x="38.38" y="-44.5" font-family="Helvetica,sans-Serif" font-size="10.00">CreateFolders</text>
</a>
</g>
</g>
<!-- Node2 -->
<g id="Node000002" class="node">
<title>Node2</title>
<g id="a_Node000002"><a xlink:href="class_code_smile_editor_1_1_asset_1_1_path_ad6edf57483f25f25967aaf3b5c237cf9.html#ad6edf57483f25f25967aaf3b5c237cf9" target="_top" xlink:title="Tests if the given file exists in the file system.">
<polygon fill="white" stroke="#666666" points="177.88,-96 118.38,-96 118.38,-76 177.88,-76 177.88,-96"/>
<text text-anchor="middle" x="148.12" y="-82.5" font-family="Helvetica,sans-Serif" font-size="10.00">FileExists</text>
</a>
</g>
</g>
<!-- Node1&#45;&gt;Node2 -->
<g id="edge1_Node000001_Node000002" class="edge">
<title>Node1&#45;&gt;Node2</title>
<g id="a_edge1_Node000001_Node000002"><a xlink:title=" ">
<path fill="none" stroke="#63b8ff" d="M69.1,-58.48C81.19,-62.75 95.33,-67.73 108.23,-72.28"/>
<polygon fill="#63b8ff" stroke="#63b8ff" points="106.64,-75.79 117.24,-75.81 108.97,-69.19 106.64,-75.79"/>
</a>
</g>
</g>
<!-- Node3 -->
<g id="Node000003" class="node">
<title>Node3</title>
<g id="a_Node000003"><a xlink:href="class_code_smile_editor_1_1_asset_1_1_path_a1702f388229f26cb1f4431a1ee8d4a63.html#a1702f388229f26cb1f4431a1ee8d4a63" target="_top" xlink:title="Tests if the given folder exists in the file system.">
<polygon fill="white" stroke="#666666" points="183.5,-58 112.75,-58 112.75,-38 183.5,-38 183.5,-58"/>
<text text-anchor="middle" x="148.12" y="-44.5" font-family="Helvetica,sans-Serif" font-size="10.00">FolderExists</text>
</a>
</g>
</g>
<!-- Node1&#45;&gt;Node3 -->
<g id="edge2_Node000001_Node000003" class="edge">
<title>Node1&#45;&gt;Node3</title>
<g id="a_edge2_Node000001_Node000003"><a xlink:title=" ">
<path fill="none" stroke="#63b8ff" d="M77.06,-48C84.99,-48 93.43,-48 101.61,-48"/>
<polygon fill="#63b8ff" stroke="#63b8ff" points="101.53,-51.5 111.53,-48 101.53,-44.5 101.53,-51.5"/>
</a>
</g>
</g>
<!-- Node4 -->
<g id="Node000004" class="node">
<title>Node4</title>
<g id="a_Node000004"><a xlink:href="class_code_smile_editor_1_1_asset_1_1_path_a1aa26b3370ac2454e86ed88f6999dd36.html#a1aa26b3370ac2454e86ed88f6999dd36" target="_top" xlink:title="Gets the relative path of an asset.">
<polygon fill="white" stroke="#666666" points="164,-20 132.25,-20 132.25,0 164,0 164,-20"/>
<text text-anchor="middle" x="148.12" y="-6.5" font-family="Helvetica,sans-Serif" font-size="10.00">Get</text>
</a>
</g>
</g>
<!-- Node1&#45;&gt;Node4 -->
<g id="edge3_Node000001_Node000004" class="edge">
<title>Node1&#45;&gt;Node4</title>
<g id="a_edge3_Node000001_Node000004"><a xlink:title=" ">
<path fill="none" stroke="#63b8ff" d="M69.1,-37.52C85.6,-31.7 105.91,-24.53 121.67,-18.98"/>
<polygon fill="#63b8ff" stroke="#63b8ff" points="122.49,-22.05 130.76,-15.42 120.16,-15.45 122.49,-22.05"/>
</a>
</g>
</g>
</g>
</svg>
