<?xml version="1.0" encoding="UTF-8" standalone="no"?>
<!DOCTYPE svg PUBLIC "-//W3C//DTD SVG 1.1//EN"
 "http://www.w3.org/Graphics/SVG/1.1/DTD/svg11.dtd">
<!-- Generated by graphviz version 8.0.5 (20230430.1635)
 -->
<!-- Title: CanMakeEditable Pages: 1 -->
<svg width="299pt" height="66pt"
 viewBox="0.00 0.00 298.75 66.00" xmlns="http://www.w3.org/2000/svg" xmlns:xlink="http://www.w3.org/1999/xlink">
<g id="graph0" class="graph" transform="scale(1 1) rotate(0) translate(4 62)">
<title>CanMakeEditable</title>
<!-- Node1 -->
<g id="Node000001" class="node">
<title>Node1</title>
<g id="a_Node000001"><a xlink:title="Returns true if the asset can be opened for editing in the version control system.">
<polygon fill="#999999" stroke="#666666" points="92.5,-39 0,-39 0,-19 92.5,-19 92.5,-39"/>
<text text-anchor="middle" x="46.25" y="-25.5" font-family="Helvetica,sans-Serif" font-size="10.00">CanMakeEditable</text>
</a>
</g>
</g>
<!-- Node2 -->
<g id="Node000002" class="node">
<title>Node2</title>
<g id="a_Node000002"><a xlink:href="class_code_smile_1_1_editor_1_1_asset_1_1_version_control_aa423c228f7292c32aa016adc4b1bb0d2.html#aa423c228f7292c32aa016adc4b1bb0d2" target="_top" xlink:title="Returns true if the asset can be opened for editing in the version control system.">
<polygon fill="white" stroke="#666666" points="255.88,-58 163.38,-58 163.38,-38 255.88,-38 255.88,-58"/>
<text text-anchor="middle" x="209.62" y="-44.5" font-family="Helvetica,sans-Serif" font-size="10.00">CanMakeEditable</text>
</a>
</g>
</g>
<!-- Node1&#45;&gt;Node2 -->
<g id="edge1_Node000001_Node000002" class="edge">
<title>Node1&#45;&gt;Node2</title>
<g id="a_edge1_Node000001_Node000002"><a xlink:title=" ">
<path fill="none" stroke="#63b8ff" d="M92.63,-34.34C111.11,-36.52 132.66,-39.06 152.14,-41.35"/>
<polygon fill="#63b8ff" stroke="#63b8ff" points="151.68,-44.94 162.03,-42.63 152.5,-37.99 151.68,-44.94"/>
</a>
</g>
</g>
<!-- Node3 -->
<g id="Node000003" class="node">
<title>Node3</title>
<g id="a_Node000003"><a xlink:href="class_code_smile_1_1_editor_1_1_asset_1_1_path_a1aa26b3370ac2454e86ed88f6999dd36.html#a1aa26b3370ac2454e86ed88f6999dd36" target="_top" xlink:title="Gets the relative path of an asset.">
<polygon fill="white" stroke="#666666" points="290.75,-20 128.5,-20 128.5,0 290.75,0 290.75,-20"/>
<text text-anchor="middle" x="209.62" y="-6.5" font-family="Helvetica,sans-Serif" font-size="10.00">CodeSmile.Editor.Asset.Path.Get</text>
</a>
</g>
</g>
<!-- Node1&#45;&gt;Node3 -->
<g id="edge2_Node000001_Node000003" class="edge">
<title>Node1&#45;&gt;Node3</title>
<g id="a_edge2_Node000001_Node000003"><a xlink:title=" ">
<path fill="none" stroke="#63b8ff" d="M92.63,-23.66C100.43,-22.74 108.78,-21.76 117.29,-20.75"/>
<polygon fill="#63b8ff" stroke="#63b8ff" points="117.6,-24.12 127.12,-19.48 116.78,-17.17 117.6,-24.12"/>
</a>
</g>
</g>
</g>
</svg>
