<?xml version="1.0" encoding="UTF-8" standalone="no"?>
<!DOCTYPE svg PUBLIC "-//W3C//DTD SVG 1.1//EN"
 "http://www.w3.org/Graphics/SVG/1.1/DTD/svg11.dtd">
<!-- Generated by graphviz version 8.0.5 (20230430.1635)
 -->
<!-- Title: GetAll Pages: 1 -->
<svg width="120pt" height="66pt"
 viewBox="0.00 0.00 120.25 66.00" xmlns="http://www.w3.org/2000/svg" xmlns:xlink="http://www.w3.org/1999/xlink">
<g id="graph0" class="graph" transform="scale(1 1) rotate(0) translate(4 62)">
<title>GetAll</title>
<!-- Node1 -->
<g id="Node000001" class="node">
<title>Node1</title>
<g id="a_Node000001"><a xlink:title="Returns an asset&#39;s labels.">
<polygon fill="#999999" stroke="#666666" points="112.25,-39 69.25,-39 69.25,-19 112.25,-19 112.25,-39"/>
<text text-anchor="middle" x="90.75" y="-25.5" font-family="Helvetica,sans-Serif" font-size="10.00">GetAll</text>
</a>
</g>
</g>
<!-- Node2 -->
<g id="Node000002" class="node">
<title>Node2</title>
<g id="a_Node000002"><a xlink:href="class_code_smile_editor_1_1_asset_1_1_label_ad2dd0c24ca248dac498e168471c296ae.html#ad2dd0c24ca248dac498e168471c296ae" target="_top" xlink:title="Adds a single label to an asset&#39;s list of labels.">
<polygon fill="white" stroke="#666666" points="33.25,-58 0,-58 0,-38 33.25,-38 33.25,-58"/>
<text text-anchor="middle" x="16.62" y="-44.5" font-family="Helvetica,sans-Serif" font-size="10.00">Add</text>
</a>
</g>
</g>
<!-- Node1&#45;&gt;Node2 -->
<g id="edge1_Node000001_Node000002" class="edge">
<title>Node1&#45;&gt;Node2</title>
<g id="a_edge1_Node000001_Node000002"><a xlink:title=" ">
<path fill="none" stroke="#63b8ff" d="M58.32,-37.28C49.7,-39.55 40.72,-41.92 33.4,-43.85"/>
<polygon fill="#63b8ff" stroke="#63b8ff" points="59.11,-40.43 67.89,-34.5 57.33,-33.66 59.11,-40.43"/>
</a>
</g>
</g>
<!-- Node3 -->
<g id="Node000003" class="node">
<title>Node3</title>
<g id="a_Node000003"><a xlink:href="class_code_smile_editor_1_1_asset_1_1_label_a0db1d630d411ce9b9afaab8893ca433c.html#a0db1d630d411ce9b9afaab8893ca433c" target="_top" xlink:title="Adds several labels to an asset&#39;s list of labels.">
<polygon fill="white" stroke="#666666" points="33.25,-20 0,-20 0,0 33.25,0 33.25,-20"/>
<text text-anchor="middle" x="16.62" y="-6.5" font-family="Helvetica,sans-Serif" font-size="10.00">Add</text>
</a>
</g>
</g>
<!-- Node1&#45;&gt;Node3 -->
<g id="edge2_Node000001_Node000003" class="edge">
<title>Node1&#45;&gt;Node3</title>
<g id="a_edge2_Node000001_Node000003"><a xlink:title=" ">
<path fill="none" stroke="#63b8ff" d="M58.32,-20.72C49.7,-18.45 40.72,-16.08 33.4,-14.15"/>
<polygon fill="#63b8ff" stroke="#63b8ff" points="57.33,-24.34 67.89,-23.5 59.11,-17.57 57.33,-24.34"/>
</a>
</g>
</g>
</g>
</svg>
