<?xml version="1.0" encoding="UTF-8" standalone="no"?>
<!DOCTYPE svg PUBLIC "-//W3C//DTD SVG 1.1//EN"
 "http://www.w3.org/Graphics/SVG/1.1/DTD/svg11.dtd">
<!-- Generated by graphviz version 8.0.5 (20230430.1635)
 -->
<!-- Title: Asset Pages: 1 -->
<!--zoomable 128 -->

<svg id="main" version="1.1" xmlns="http://www.w3.org/2000/svg" xmlns:xlink="http://www.w3.org/1999/xlink" xml:space="preserve" onload="init(evt)">
<style type="text/css"><![CDATA[
.node, .edge {opacity: 0.7;}
.node.selected, .edge.selected {opacity: 1;}
.edge:hover path { stroke: red; }
.edge:hover polygon { stroke: red; fill: red; }
]]></style>

<defs>
  <circle id="rim" cx="0" cy="0" r="7"/>
  <circle id="rim2" cx="0" cy="0" r="3.5"/>
  <g id="zoomPlus">
    <use xlink:href="#rim" fill="#404040"><set attributeName="fill" to="#808080" begin="zoomplus.mouseover" end="zoomplus.mouseout"/></use>
    <path d="M-4,0h8M0,-4v8" fill="none" stroke="white" stroke-width="1.5" pointer-events="none"/>
  </g>
  <g id="zoomMin">
    <use xlink:href="#rim" fill="#404040"><set attributeName="fill" to="#808080" begin="zoomminus.mouseover" end="zoomminus.mouseout"/></use>
    <path d="M-4,0h8" fill="none" stroke="white" stroke-width="1.5" pointer-events="none"/>
  </g>
  <g id="arrowUp" transform="translate(30 24)">
    <use xlink:href="#rim"/>
    <path pointer-events="none" fill="none" stroke="white" stroke-width="1.5" d="M0,-3.0v7 M-2.5,-0.5L0,-3.0L2.5,-0.5"/>
  </g>
  <g id="arrowRight" transform="rotate(90) translate(36 -43)">
    <use xlink:href="#rim"/>
    <path pointer-events="none" fill="none" stroke="white" stroke-width="1.5" d="M0,-3.0v7 M-2.5,-0.5L0,-3.0L2.5,-0.5"/>
  </g>
  <g id="arrowDown" transform="rotate(180) translate(-30 -48)">
    <use xlink:href="#rim"/>
    <path pointer-events="none" fill="none" stroke="white" stroke-width="1.5" d="M0,-3.0v7 M-2.5,-0.5L0,-3.0L2.5,-0.5"/>
  </g>
  <g id="arrowLeft" transform="rotate(270) translate(-36 17)">
    <use xlink:href="#rim"/>
    <path pointer-events="none" fill="none" stroke="white" stroke-width="1.5" d="M0,-3.0v7 M-2.5,-0.5L0,-3.0L2.5,-0.5"/>
  </g>
  <g id="resetDef">
    <use xlink:href="#rim2" fill="#404040"><set attributeName="fill" to="#808080" begin="reset.mouseover" end="reset.mouseout"/></use>
  </g>
</defs>
<script type="application/ecmascript">
var viewWidth = 608;
var viewHeight = 128;
var sectionId = 'dynsection-1';
</script>
<script type="application/ecmascript" xlink:href="svg.min.js"/>
<svg id="graph" class="graph">
<g id="viewport">
<title>Asset</title>
<!-- Node1 -->
<g id="Node000001" class="node">
<title>Node1</title>
<g id="a_Node000001"><a xlink:title="Returns an instance by creating (saving) the object as an asset file at the given path....">
<polygon fill="#999999" stroke="#666666" points="41.5,-64 0,-64 0,-44 41.5,-44 41.5,-64"/>
<text text-anchor="middle" x="20.75" y="-50.5" font-family="Helvetica,sans-Serif" font-size="10.00">Asset</text>
</a>
</g>
</g>
<!-- Node2 -->
<g id="Node000002" class="node">
<title>Node2</title>
<g id="a_Node000002"><a xlink:href="class_code_smile_1_1_editor_1_1_asset_1_1_file.html#aad585cc499d994cd55b2a123674a8a46" target="_top" xlink:title="Creates (saves) a new asset file at the target path. Also creates all non&#45;existing folders in the pat...">
<polygon fill="white" stroke="#666666" points="219.5,-70 77.5,-70 77.5,-38 219.5,-38 219.5,-70"/>
<text text-anchor="start" x="85.5" y="-56.5" font-family="Helvetica,sans-Serif" font-size="10.00">CodeSmile.Editor.Asset.File.</text>
<text text-anchor="middle" x="148.5" y="-44.5" font-family="Helvetica,sans-Serif" font-size="10.00">Create</text>
</a>
</g>
</g>
<!-- Node1&#45;&gt;Node2 -->
<g id="edge1_Node000001_Node000002" class="edge">
<title>Node1&#45;&gt;Node2</title>
<g id="a_edge1_Node000001_Node000002"><a xlink:title=" ">
<path fill="none" stroke="#63b8ff" d="M41.95,-54C49.04,-54 57.49,-54 66.49,-54"/>
<polygon fill="#63b8ff" stroke="#63b8ff" points="66.25,-57.5 76.25,-54 66.25,-50.5 66.25,-57.5"/>
</a>
</g>
</g>
<!-- Node3 -->
<g id="Node000003" class="node">
<title>Node3</title>
<g id="a_Node000003"><a xlink:href="class_code_smile_1_1_editor_1_1_asset_1_1_path.html#aa5b7d522e7180d8e9943ca3a7f636b72" target="_top" xlink:title="Creates the folders in the path recursively. Path may point to a file, but only folders will be creat...">
<polygon fill="white" stroke="#666666" points="402,-70 255.5,-70 255.5,-38 402,-38 402,-70"/>
<text text-anchor="start" x="263.5" y="-56.5" font-family="Helvetica,sans-Serif" font-size="10.00">CodeSmile.Editor.Asset.Path.</text>
<text text-anchor="middle" x="328.75" y="-44.5" font-family="Helvetica,sans-Serif" font-size="10.00">CreateFolders</text>
</a>
</g>
</g>
<!-- Node2&#45;&gt;Node3 -->
<g id="edge2_Node000002_Node000003" class="edge">
<title>Node2&#45;&gt;Node3</title>
<g id="a_edge2_Node000002_Node000003"><a xlink:title=" ">
<path fill="none" stroke="#63b8ff" d="M219.95,-54C227.91,-54 236.08,-54 244.19,-54"/>
<polygon fill="#63b8ff" stroke="#63b8ff" points="244.18,-57.5 254.18,-54 244.18,-50.5 244.18,-57.5"/>
</a>
</g>
</g>
<!-- Node4 -->
<g id="Node000004" class="node">
<title>Node4</title>
<g id="a_Node000004"><a xlink:href="class_code_smile_1_1_editor_1_1_asset_1_1_path.html#ad6edf57483f25f25967aaf3b5c237cf9" target="_top" xlink:title="Tests if the given file exists.">
<polygon fill="white" stroke="#666666" points="592.38,-120 445.88,-120 445.88,-88 592.38,-88 592.38,-120"/>
<text text-anchor="start" x="453.88" y="-106.5" font-family="Helvetica,sans-Serif" font-size="10.00">CodeSmile.Editor.Asset.Path.</text>
<text text-anchor="middle" x="519.12" y="-94.5" font-family="Helvetica,sans-Serif" font-size="10.00">FileExists</text>
</a>
</g>
</g>
<!-- Node3&#45;&gt;Node4 -->
<g id="edge3_Node000003_Node000004" class="edge">
<title>Node3&#45;&gt;Node4</title>
<g id="a_edge3_Node000003_Node000004"><a xlink:title=" ">
<path fill="none" stroke="#63b8ff" d="M391.69,-70.44C408.91,-75.01 427.77,-80.02 445.54,-84.73"/>
<polygon fill="#63b8ff" stroke="#63b8ff" points="444.58,-88.37 455.15,-87.55 446.38,-81.6 444.58,-88.37"/>
</a>
</g>
</g>
<!-- Node5 -->
<g id="Node000005" class="node">
<title>Node5</title>
<g id="a_Node000005"><a xlink:href="class_code_smile_1_1_editor_1_1_asset_1_1_path.html#a1702f388229f26cb1f4431a1ee8d4a63" target="_top" xlink:title="Returns true if the folder exists. False otherwise, or if the path is to a file.">
<polygon fill="white" stroke="#666666" points="592.38,-70 445.88,-70 445.88,-38 592.38,-38 592.38,-70"/>
<text text-anchor="start" x="453.88" y="-56.5" font-family="Helvetica,sans-Serif" font-size="10.00">CodeSmile.Editor.Asset.Path.</text>
<text text-anchor="middle" x="519.12" y="-44.5" font-family="Helvetica,sans-Serif" font-size="10.00">FolderExists</text>
</a>
</g>
</g>
<!-- Node3&#45;&gt;Node5 -->
<g id="edge4_Node000003_Node000005" class="edge">
<title>Node3&#45;&gt;Node5</title>
<g id="a_edge4_Node000003_Node000005"><a xlink:title=" ">
<path fill="none" stroke="#63b8ff" d="M402.31,-54C412.96,-54 424,-54 434.84,-54"/>
<polygon fill="#63b8ff" stroke="#63b8ff" points="434.6,-57.5 444.6,-54 434.6,-50.5 434.6,-57.5"/>
</a>
</g>
</g>
<!-- Node6 -->
<g id="Node000006" class="node">
<title>Node6</title>
<g id="a_Node000006"><a xlink:href="class_code_smile_1_1_editor_1_1_asset_1_1_path.html#a6bd701a7c06a58ac8ebd39c190df3e61" target="_top" xlink:title="Gets the path of an asset file.">
<polygon fill="white" stroke="#666666" points="600.25,-20 438,-20 438,0 600.25,0 600.25,-20"/>
<text text-anchor="middle" x="519.12" y="-6.5" font-family="Helvetica,sans-Serif" font-size="10.00">CodeSmile.Editor.Asset.Path.Get</text>
</a>
</g>
</g>
<!-- Node3&#45;&gt;Node6 -->
<g id="edge5_Node000003_Node000006" class="edge">
<title>Node3&#45;&gt;Node6</title>
<g id="a_edge5_Node000003_Node000006"><a xlink:title=" ">
<path fill="none" stroke="#63b8ff" d="M400.16,-37.55C420.79,-32.73 443.06,-27.53 462.62,-22.96"/>
<polygon fill="#63b8ff" stroke="#63b8ff" points="463.25,-26.18 472.19,-20.5 461.65,-19.36 463.25,-26.18"/>
</a>
</g>
</g>
</g>
</svg>

<g id="navigator" transform="translate(0 0)" fill="#404254">
  <rect fill="#f2f5e9" fill-opacity="0.5" stroke="#606060" stroke-width=".5" x="0" y="0" width="60" height="60"/>
  <use id="zoomplus" xlink:href="#zoomPlus" x="17" y="9" onmousedown="handleZoom(evt,'in')"/>
  <use id="zoomminus" xlink:href="#zoomMin" x="42" y="9" onmousedown="handleZoom(evt,'out')"/>
  <use id="reset" xlink:href="#resetDef" x="30" y="36" onmousedown="handleReset()"/>
   <use id="arrowup" xlink:href="#arrowUp" x="0" y="0" onmousedown="handlePan(0,-1)"/>
  <use id="arrowright" xlink:href="#arrowRight" x="0" y="0" onmousedown="handlePan(1,0)"/>
  <use id="arrowdown" xlink:href="#arrowDown" x="0" y="0" onmousedown="handlePan(0,1)"/>
  <use id="arrowleft" xlink:href="#arrowLeft" x="0" y="0" onmousedown="handlePan(-1,0)"/>
</g>
<svg viewBox="0 0 15 15" width="100%" height="30px" preserveAspectRatio="xMaxYMin meet">
 <g id="arrow_out" transform="scale(0.3 0.3)">
  <a xlink:href="class_code_smile_1_1_editor_1_1_asset_a4eb9736b74290d8c324d9d1a3fb0796a_cgraph_org.svg" target="_base">
   <rect id="button" ry="5" rx="5" y="6" x="6" height="38" width="38"
        fill="#f2f5e9" fill-opacity="0.5" stroke="#606060" stroke-width="1.0"/>
   <path id="arrow"
     d="M 11.500037,31.436501 C 11.940474,20.09759 22.043105,11.32322 32.158766,21.979434 L 37.068811,17.246167 C 37.068811,17.246167 37.088388,32 37.088388,32 L 22.160133,31.978069 C 22.160133,31.978069 26.997745,27.140456 26.997745,27.140456 C 18.528582,18.264221 13.291696,25.230495 11.500037,31.436501 z"
     style="fill:#404040;"/>
  </a>
 </g>
</svg>

<style type='text/css'>
<![CDATA[
[data-mouse-over-selected='false'] { opacity: 0.7; }
[data-mouse-over-selected='true']  { opacity: 1.0; }
]]>
</style>
<script type="application/ecmascript"><![CDATA[
document.addEventListener('DOMContentLoaded', (event) => {
  highlightEdges();
  highlightAdjacentNodes();
});
]]></script>
</svg>
