<?xml version="1.0" encoding="UTF-8" standalone="no"?>
<!DOCTYPE svg PUBLIC "-//W3C//DTD SVG 1.1//EN"
 "http://www.w3.org/Graphics/SVG/1.1/DTD/svg11.dtd">
<!-- Generated by graphviz version 8.0.5 (20230430.1635)
 -->
<!-- Title: Asset.Path Pages: 1 -->
<svg width="220pt" height="708pt"
 viewBox="0.00 0.00 219.50 708.00" xmlns="http://www.w3.org/2000/svg" xmlns:xlink="http://www.w3.org/1999/xlink">
<g id="graph0" class="graph" transform="scale(1 1) rotate(0) translate(4 704)">
<title>Asset.Path</title>
<!-- Node1 -->
<g id="Node000001" class="node">
<title>Node1</title>
<g id="a_Node000001"><a xlink:title="Represents a relative path to an asset file or folder, typically under &#39;Assets&#39; or &#39;Packages&#39;....">
<polygon fill="#999999" stroke="none" points="172,-612 36,-612 36,0 172,0 172,-612"/>
<text text-anchor="start" x="79.62" y="-598.5" font-family="Helvetica,sans-Serif" font-size="10.00">Asset.Path</text>
<text text-anchor="start" x="40" y="-582.5" font-family="Helvetica,sans-Serif" font-size="10.00">+</text>
<text text-anchor="start" x="50" y="-582.5" font-family="Helvetica,sans-Serif" font-size="10.00">AssetPath</text>
<text text-anchor="start" x="40" y="-566.5" font-family="Helvetica,sans-Serif" font-size="10.00">+</text>
<text text-anchor="start" x="50" y="-566.5" font-family="Helvetica,sans-Serif" font-size="10.00">Exists</text>
<text text-anchor="start" x="40" y="-550.5" font-family="Helvetica,sans-Serif" font-size="10.00">+</text>
<text text-anchor="start" x="50" y="-550.5" font-family="Helvetica,sans-Serif" font-size="10.00">ExistsInFileSystem</text>
<text text-anchor="start" x="40" y="-534.5" font-family="Helvetica,sans-Serif" font-size="10.00">+</text>
<text text-anchor="start" x="50" y="-534.5" font-family="Helvetica,sans-Serif" font-size="10.00">Extension</text>
<text text-anchor="start" x="40" y="-518.5" font-family="Helvetica,sans-Serif" font-size="10.00">+</text>
<text text-anchor="start" x="50" y="-518.5" font-family="Helvetica,sans-Serif" font-size="10.00">FileName</text>
<text text-anchor="start" x="40" y="-502.5" font-family="Helvetica,sans-Serif" font-size="10.00">+</text>
<text text-anchor="start" x="50" y="-502.5" font-family="Helvetica,sans-Serif" font-size="10.00">FileNameWithoutExtension</text>
<text text-anchor="start" x="40" y="-486.5" font-family="Helvetica,sans-Serif" font-size="10.00">+</text>
<text text-anchor="start" x="50" y="-486.5" font-family="Helvetica,sans-Serif" font-size="10.00">FolderPath</text>
<text text-anchor="start" x="40" y="-470.5" font-family="Helvetica,sans-Serif" font-size="10.00">+</text>
<text text-anchor="start" x="50" y="-470.5" font-family="Helvetica,sans-Serif" font-size="10.00">FullAssetsPath</text>
<text text-anchor="start" x="40" y="-454.5" font-family="Helvetica,sans-Serif" font-size="10.00">+</text>
<text text-anchor="start" x="50" y="-454.5" font-family="Helvetica,sans-Serif" font-size="10.00">FullPackagesPath</text>
<text text-anchor="start" x="40" y="-438.5" font-family="Helvetica,sans-Serif" font-size="10.00">+</text>
<text text-anchor="start" x="50" y="-438.5" font-family="Helvetica,sans-Serif" font-size="10.00">FullPath</text>
<text text-anchor="start" x="40" y="-422.5" font-family="Helvetica,sans-Serif" font-size="10.00">+</text>
<text text-anchor="start" x="50" y="-422.5" font-family="Helvetica,sans-Serif" font-size="10.00">FullProjectPath</text>
<text text-anchor="start" x="40" y="-406.5" font-family="Helvetica,sans-Serif" font-size="10.00">+</text>
<text text-anchor="start" x="50" y="-406.5" font-family="Helvetica,sans-Serif" font-size="10.00">Guid</text>
<text text-anchor="start" x="40" y="-390.5" font-family="Helvetica,sans-Serif" font-size="10.00">+</text>
<text text-anchor="start" x="50" y="-390.5" font-family="Helvetica,sans-Serif" font-size="10.00">MetaPath</text>
<text text-anchor="start" x="40" y="-374.5" font-family="Helvetica,sans-Serif" font-size="10.00">+</text>
<text text-anchor="start" x="50" y="-374.5" font-family="Helvetica,sans-Serif" font-size="10.00">SubFolders</text>
<text text-anchor="start" x="40" y="-358.5" font-family="Helvetica,sans-Serif" font-size="10.00">+</text>
<text text-anchor="start" x="50" y="-358.5" font-family="Helvetica,sans-Serif" font-size="10.00">UniqueFilePath</text>
<text text-anchor="start" x="40" y="-342.5" font-family="Helvetica,sans-Serif" font-size="10.00">+</text>
<text text-anchor="start" x="50" y="-342.5" font-family="Helvetica,sans-Serif" font-size="10.00">Path()</text>
<text text-anchor="start" x="40" y="-326.5" font-family="Helvetica,sans-Serif" font-size="10.00">+</text>
<text text-anchor="start" x="50" y="-326.5" font-family="Helvetica,sans-Serif" font-size="10.00">Path()</text>
<text text-anchor="start" x="40" y="-310.5" font-family="Helvetica,sans-Serif" font-size="10.00">+</text>
<text text-anchor="start" x="50" y="-310.5" font-family="Helvetica,sans-Serif" font-size="10.00">CreateFolders()</text>
<text text-anchor="start" x="40" y="-294.5" font-family="Helvetica,sans-Serif" font-size="10.00">+</text>
<text text-anchor="start" x="50" y="-294.5" font-family="Helvetica,sans-Serif" font-size="10.00">Equals()</text>
<text text-anchor="start" x="40" y="-278.5" font-family="Helvetica,sans-Serif" font-size="10.00">+</text>
<text text-anchor="start" x="50" y="-278.5" font-family="Helvetica,sans-Serif" font-size="10.00">Equals()</text>
<text text-anchor="start" x="40" y="-262.5" font-family="Helvetica,sans-Serif" font-size="10.00">+</text>
<text text-anchor="start" x="50" y="-262.5" font-family="Helvetica,sans-Serif" font-size="10.00">Equals()</text>
<text text-anchor="start" x="40" y="-246.5" font-family="Helvetica,sans-Serif" font-size="10.00">+</text>
<text text-anchor="start" x="50" y="-246.5" font-family="Helvetica,sans-Serif" font-size="10.00">GetHashCode()</text>
<text text-anchor="start" x="40" y="-230.5" font-family="Helvetica,sans-Serif" font-size="10.00">+</text>
<text text-anchor="start" x="50" y="-230.5" font-family="Helvetica,sans-Serif" font-size="10.00">OpenExternal()</text>
<text text-anchor="start" x="40" y="-214.5" font-family="Helvetica,sans-Serif" font-size="10.00">+</text>
<text text-anchor="start" x="50" y="-214.5" font-family="Helvetica,sans-Serif" font-size="10.00">Rename()</text>
<text text-anchor="start" x="40" y="-198.5" font-family="Helvetica,sans-Serif" font-size="10.00">+</text>
<text text-anchor="start" x="50" y="-198.5" font-family="Helvetica,sans-Serif" font-size="10.00">ToString()</text>
<text text-anchor="start" x="40" y="-182.5" font-family="Helvetica,sans-Serif" font-size="10.00">+</text>
<text text-anchor="start" x="50" y="-182.5" font-family="Helvetica,sans-Serif" font-size="10.00">CreateFolders()</text>
<text text-anchor="start" x="40" y="-166.5" font-family="Helvetica,sans-Serif" font-size="10.00">+</text>
<text text-anchor="start" x="50" y="-166.5" font-family="Helvetica,sans-Serif" font-size="10.00">FileExists()</text>
<text text-anchor="start" x="40" y="-150.5" font-family="Helvetica,sans-Serif" font-size="10.00">+</text>
<text text-anchor="start" x="50" y="-150.5" font-family="Helvetica,sans-Serif" font-size="10.00">FolderExists()</text>
<text text-anchor="start" x="40" y="-134.5" font-family="Helvetica,sans-Serif" font-size="10.00">+</text>
<text text-anchor="start" x="50" y="-134.5" font-family="Helvetica,sans-Serif" font-size="10.00">FromMeta()</text>
<text text-anchor="start" x="40" y="-118.5" font-family="Helvetica,sans-Serif" font-size="10.00">+</text>
<text text-anchor="start" x="50" y="-118.5" font-family="Helvetica,sans-Serif" font-size="10.00">Get()</text>
<text text-anchor="start" x="40" y="-102.5" font-family="Helvetica,sans-Serif" font-size="10.00">+</text>
<text text-anchor="start" x="50" y="-102.5" font-family="Helvetica,sans-Serif" font-size="10.00">Get()</text>
<text text-anchor="start" x="40" y="-86.5" font-family="Helvetica,sans-Serif" font-size="10.00">+</text>
<text text-anchor="start" x="50" y="-86.5" font-family="Helvetica,sans-Serif" font-size="10.00">GetGuid()</text>
<text text-anchor="start" x="40" y="-70.5" font-family="Helvetica,sans-Serif" font-size="10.00">+</text>
<text text-anchor="start" x="50" y="-70.5" font-family="Helvetica,sans-Serif" font-size="10.00">GetScene()</text>
<text text-anchor="start" x="40" y="-54.5" font-family="Helvetica,sans-Serif" font-size="10.00">+</text>
<text text-anchor="start" x="50" y="-54.5" font-family="Helvetica,sans-Serif" font-size="10.00">GetSubFolders()</text>
<text text-anchor="start" x="40" y="-38.5" font-family="Helvetica,sans-Serif" font-size="10.00">+</text>
<text text-anchor="start" x="50" y="-38.5" font-family="Helvetica,sans-Serif" font-size="10.00">IsValid()</text>
<text text-anchor="start" x="50" y="-22.5" font-family="Helvetica,sans-Serif" font-size="10.00">and 12 more...</text>
<text text-anchor="start" x="40" y="-6.5" font-family="Helvetica,sans-Serif" font-size="10.00">~</text>
<text text-anchor="start" x="50" y="-6.5" font-family="Helvetica,sans-Serif" font-size="10.00">UniquifyAsNeeded()</text>
<polygon fill="#666666" stroke="#666666" points="36,-594 36,-594 172,-594 172,-594 36,-594"/>
<polygon fill="#666666" stroke="#666666" points="36,-354 36,-354 48,-354 48,-354 36,-354"/>
<polygon fill="#666666" stroke="#666666" points="48,-354 48,-354 172,-354 172,-354 48,-354"/>
<polygon fill="none" stroke="#666666" points="36,0 36,-612 172,-612 172,0 36,0"/>
</a>
</g>
</g>
<!-- Node2 -->
<g id="Node000002" class="node">
<title>Node2</title>
<g id="a_Node000002"><a xlink:title=" ">
<polygon fill="white" stroke="none" points="94,-700 0,-700 0,-648 94,-648 94,-700"/>
<text text-anchor="start" x="5" y="-686.5" font-family="Helvetica,sans-Serif" font-size="10.00">IEquatable&lt; Path &gt;</text>
<text text-anchor="start" x="45.5" y="-670.5" font-family="Helvetica,sans-Serif" font-size="10.00"> </text>
<text text-anchor="start" x="45.5" y="-654.5" font-family="Helvetica,sans-Serif" font-size="10.00"> </text>
<polygon fill="#bfbfbf" stroke="#bfbfbf" points="0,-682 0,-682 94,-682 94,-682 0,-682"/>
<polygon fill="#bfbfbf" stroke="#bfbfbf" points="0,-666 0,-666 94,-666 94,-666 0,-666"/>
<polygon fill="none" stroke="#bfbfbf" points="0,-648 0,-700 94,-700 94,-648 0,-648"/>
</a>
</g>
</g>
<!-- Node2&#45;&gt;Node1 -->
<g id="edge1_Node000001_Node000002" class="edge">
<title>Node2&#45;&gt;Node1</title>
<g id="a_edge1_Node000001_Node000002"><a xlink:title=" ">
<path fill="none" stroke="#63b8ff" d="M52.54,-637.42C53.72,-629.84 55.06,-621.27 56.51,-611.91"/>
<polygon fill="none" stroke="#63b8ff" points="48.95,-636.71 50.87,-647.13 55.87,-637.79 48.95,-636.71"/>
</a>
</g>
</g>
<!-- Node3 -->
<g id="Node000003" class="node">
<title>Node3</title>
<g id="a_Node000003"><a xlink:title=" ">
<polygon fill="white" stroke="none" points="211.5,-700 112.5,-700 112.5,-648 211.5,-648 211.5,-700"/>
<text text-anchor="start" x="117.38" y="-686.5" font-family="Helvetica,sans-Serif" font-size="10.00">IEquatable&lt; String &gt;</text>
<text text-anchor="start" x="160.5" y="-670.5" font-family="Helvetica,sans-Serif" font-size="10.00"> </text>
<text text-anchor="start" x="160.5" y="-654.5" font-family="Helvetica,sans-Serif" font-size="10.00"> </text>
<polygon fill="#bfbfbf" stroke="#bfbfbf" points="112.5,-682 112.5,-682 211.5,-682 211.5,-682 112.5,-682"/>
<polygon fill="#bfbfbf" stroke="#bfbfbf" points="112.5,-666 112.5,-666 211.5,-666 211.5,-666 112.5,-666"/>
<polygon fill="none" stroke="#bfbfbf" points="112.5,-648 112.5,-700 211.5,-700 211.5,-648 112.5,-648"/>
</a>
</g>
</g>
<!-- Node3&#45;&gt;Node1 -->
<g id="edge2_Node000001_Node000003" class="edge">
<title>Node3&#45;&gt;Node1</title>
<g id="a_edge2_Node000001_Node000003"><a xlink:title=" ">
<path fill="none" stroke="#63b8ff" d="M156.36,-637.42C155.16,-629.84 153.8,-621.27 152.32,-611.91"/>
<polygon fill="none" stroke="#63b8ff" points="153.04,-637.8 158.06,-647.13 159.95,-636.71 153.04,-637.8"/>
</a>
</g>
</g>
</g>
</svg>
