<?xml version="1.0" encoding="UTF-8" standalone="no"?>
<!DOCTYPE svg PUBLIC "-//W3C//DTD SVG 1.1//EN"
 "http://www.w3.org/Graphics/SVG/1.1/DTD/svg11.dtd">
<!-- Generated by graphviz version 8.0.5 (20230430.1635)
 -->
<!-- Title: Create Pages: 1 -->
<svg width="237pt" height="66pt"
 viewBox="0.00 0.00 237.25 66.00" xmlns="http://www.w3.org/2000/svg" xmlns:xlink="http://www.w3.org/1999/xlink">
<g id="graph0" class="graph" transform="scale(1 1) rotate(0) translate(4 62)">
<title>Create</title>
<!-- Node1 -->
<g id="Node000001" class="node">
<title>Node1</title>
<g id="a_Node000001"><a xlink:title="Creates (saves) a new asset file at the target path. Also creates all non&#45;existing folders in the pat...">
<polygon fill="#999999" stroke="#666666" points="229.25,-39 184.75,-39 184.75,-19 229.25,-19 229.25,-39"/>
<text text-anchor="middle" x="207" y="-25.5" font-family="Helvetica,sans-Serif" font-size="10.00">Create</text>
</a>
</g>
</g>
<!-- Node2 -->
<g id="Node000002" class="node">
<title>Node2</title>
<g id="a_Node000002"><a xlink:href="class_code_smile_1_1_editor_1_1_asset_a4eb9736b74290d8c324d9d1a3fb0796a.html#a4eb9736b74290d8c324d9d1a3fb0796a" target="_top" xlink:title="Returns an instance by creating (saving) the object as an asset file at the given path....">
<polygon fill="white" stroke="#666666" points="148.75,-58 0,-58 0,-38 148.75,-38 148.75,-58"/>
<text text-anchor="middle" x="74.38" y="-44.5" font-family="Helvetica,sans-Serif" font-size="10.00">CodeSmile.Editor.Asset.Asset</text>
</a>
</g>
</g>
<!-- Node1&#45;&gt;Node2 -->
<g id="edge1_Node000001_Node000002" class="edge">
<title>Node1&#45;&gt;Node2</title>
<g id="a_edge1_Node000001_Node000002"><a xlink:title=" ">
<path fill="none" stroke="#63b8ff" d="M173.71,-33.7C165.65,-34.87 156.67,-36.18 147.51,-37.51"/>
<polygon fill="#63b8ff" stroke="#63b8ff" points="174.04,-37.04 183.43,-32.14 173.03,-30.11 174.04,-37.04"/>
</a>
</g>
</g>
<!-- Node3 -->
<g id="Node000003" class="node">
<title>Node3</title>
<g id="a_Node000003"><a xlink:href="class_code_smile_1_1_editor_1_1_asset_1_1_file_aafa3d6fab63beb8b4ea1166456e994b9.html#aafa3d6fab63beb8b4ea1166456e994b9" target="_top" xlink:title="Tries to load the object at path. If it cannot be loaded, it will be created using the Object instanc...">
<polygon fill="white" stroke="#666666" points="124,-20 24.75,-20 24.75,0 124,0 124,-20"/>
<text text-anchor="middle" x="74.38" y="-6.5" font-family="Helvetica,sans-Serif" font-size="10.00">LoadOrCreate&lt; T &gt;</text>
</a>
</g>
</g>
<!-- Node1&#45;&gt;Node3 -->
<g id="edge2_Node000001_Node000003" class="edge">
<title>Node1&#45;&gt;Node3</title>
<g id="a_edge2_Node000001_Node000003"><a xlink:title=" ">
<path fill="none" stroke="#63b8ff" d="M173.74,-24.31C158.86,-22.14 140.89,-19.53 124.39,-17.13"/>
<polygon fill="#63b8ff" stroke="#63b8ff" points="173.03,-27.89 183.43,-25.86 174.04,-20.96 173.03,-27.89"/>
</a>
</g>
</g>
</g>
</svg>
