<?xml version="1.0" encoding="UTF-8" standalone="no"?>
<!DOCTYPE svg PUBLIC "-//W3C//DTD SVG 1.1//EN"
 "http://www.w3.org/Graphics/SVG/1.1/DTD/svg11.dtd">
<!-- Generated by graphviz version 8.0.5 (20230430.1635)
 -->
<!-- Title: FolderExists Pages: 1 -->
<!--zoomable 154 -->

<svg id="main" version="1.1" xmlns="http://www.w3.org/2000/svg" xmlns:xlink="http://www.w3.org/1999/xlink" xml:space="preserve" onload="init(evt)">
<style type="text/css"><![CDATA[
.node, .edge {opacity: 0.7;}
.node.selected, .edge.selected {opacity: 1;}
.edge:hover path { stroke: red; }
.edge:hover polygon { stroke: red; fill: red; }
]]></style>

<defs>
  <circle id="rim" cx="0" cy="0" r="7"/>
  <circle id="rim2" cx="0" cy="0" r="3.5"/>
  <g id="zoomPlus">
    <use xlink:href="#rim" fill="#404040"><set attributeName="fill" to="#808080" begin="zoomplus.mouseover" end="zoomplus.mouseout"/></use>
    <path d="M-4,0h8M0,-4v8" fill="none" stroke="white" stroke-width="1.5" pointer-events="none"/>
  </g>
  <g id="zoomMin">
    <use xlink:href="#rim" fill="#404040"><set attributeName="fill" to="#808080" begin="zoomminus.mouseover" end="zoomminus.mouseout"/></use>
    <path d="M-4,0h8" fill="none" stroke="white" stroke-width="1.5" pointer-events="none"/>
  </g>
  <g id="arrowUp" transform="translate(30 24)">
    <use xlink:href="#rim"/>
    <path pointer-events="none" fill="none" stroke="white" stroke-width="1.5" d="M0,-3.0v7 M-2.5,-0.5L0,-3.0L2.5,-0.5"/>
  </g>
  <g id="arrowRight" transform="rotate(90) translate(36 -43)">
    <use xlink:href="#rim"/>
    <path pointer-events="none" fill="none" stroke="white" stroke-width="1.5" d="M0,-3.0v7 M-2.5,-0.5L0,-3.0L2.5,-0.5"/>
  </g>
  <g id="arrowDown" transform="rotate(180) translate(-30 -48)">
    <use xlink:href="#rim"/>
    <path pointer-events="none" fill="none" stroke="white" stroke-width="1.5" d="M0,-3.0v7 M-2.5,-0.5L0,-3.0L2.5,-0.5"/>
  </g>
  <g id="arrowLeft" transform="rotate(270) translate(-36 17)">
    <use xlink:href="#rim"/>
    <path pointer-events="none" fill="none" stroke="white" stroke-width="1.5" d="M0,-3.0v7 M-2.5,-0.5L0,-3.0L2.5,-0.5"/>
  </g>
  <g id="resetDef">
    <use xlink:href="#rim2" fill="#404040"><set attributeName="fill" to="#808080" begin="reset.mouseover" end="reset.mouseout"/></use>
  </g>
</defs>
<script type="application/ecmascript">
var viewWidth = 577;
var viewHeight = 154;
var sectionId = 'dynsection-0';
</script>
<script type="application/ecmascript" xlink:href="svg.min.js"/>
<svg id="graph" class="graph">
<g id="viewport">
<title>FolderExists</title>
<!-- Node1 -->
<g id="Node000001" class="node">
<title>Node1</title>
<g id="a_Node000001"><a xlink:title="Returns true if the folder exists. False otherwise, or if the path is to a file.">
<polygon fill="#999999" stroke="#666666" points="568.75,-92 498,-92 498,-72 568.75,-72 568.75,-92"/>
<text text-anchor="middle" x="533.38" y="-78.5" font-family="Helvetica,sans-Serif" font-size="10.00">FolderExists</text>
</a>
</g>
</g>
<!-- Node2 -->
<g id="Node000002" class="node">
<title>Node2</title>
<g id="a_Node000002"><a xlink:href="class_code_smile_1_1_editor_1_1_asset_1_1_path_aa5b7d522e7180d8e9943ca3a7f636b72.html#aa5b7d522e7180d8e9943ca3a7f636b72" target="_top" xlink:title="Creates the folders in the path recursively. Path may point to a file, but only folders will be creat...">
<polygon fill="white" stroke="#666666" points="462,-92 385.25,-92 385.25,-72 462,-72 462,-92"/>
<text text-anchor="middle" x="423.62" y="-78.5" font-family="Helvetica,sans-Serif" font-size="10.00">CreateFolders</text>
</a>
</g>
</g>
<!-- Node1&#45;&gt;Node2 -->
<g id="edge1_Node000001_Node000002" class="edge">
<title>Node1&#45;&gt;Node2</title>
<g id="a_edge1_Node000001_Node000002"><a xlink:title=" ">
<path fill="none" stroke="#63b8ff" d="M486.77,-82C478.59,-82 470.15,-82 462.23,-82"/>
<polygon fill="#63b8ff" stroke="#63b8ff" points="486.69,-85.5 496.69,-82 486.69,-78.5 486.69,-85.5"/>
</a>
</g>
</g>
<!-- Node3 -->
<g id="Node000003" class="node">
<title>Node3</title>
<g id="a_Node000003"><a xlink:href="class_code_smile_1_1_editor_1_1_asset_1_1_file_a613ec8386d2e3f381b8d875cda4f8c33.html#a613ec8386d2e3f381b8d875cda4f8c33" target="_top" xlink:title="Makes a copy of the source asset and saves it in the destination. Will create destination path folder...">
<polygon fill="white" stroke="#666666" points="349.25,-141 184.75,-141 184.75,-121 349.25,-121 349.25,-141"/>
<text text-anchor="middle" x="267" y="-127.5" font-family="Helvetica,sans-Serif" font-size="10.00">CodeSmile.Editor.Asset.File.Copy</text>
</a>
</g>
</g>
<!-- Node2&#45;&gt;Node3 -->
<g id="edge2_Node000002_Node000003" class="edge">
<title>Node2&#45;&gt;Node3</title>
<g id="a_edge2_Node000002_Node000003"><a xlink:title=" ">
<path fill="none" stroke="#63b8ff" d="M382.36,-96.05C371.63,-99.71 360.02,-103.58 349.25,-107 334.67,-111.63 318.53,-116.46 304.5,-120.57"/>
<polygon fill="#63b8ff" stroke="#63b8ff" points="383.4,-99.05 391.73,-92.5 381.13,-92.43 383.4,-99.05"/>
</a>
</g>
</g>
<!-- Node5 -->
<g id="Node000005" class="node">
<title>Node5</title>
<g id="a_Node000005"><a xlink:href="class_code_smile_1_1_editor_1_1_asset_1_1_file_aad585cc499d994cd55b2a123674a8a46.html#aad585cc499d994cd55b2a123674a8a46" target="_top" xlink:title="Creates (saves) a new asset file at the target path. Also creates all non&#45;existing folders in the pat...">
<polygon fill="white" stroke="#666666" points="338,-98 196,-98 196,-66 338,-66 338,-98"/>
<text text-anchor="start" x="204" y="-84.5" font-family="Helvetica,sans-Serif" font-size="10.00">CodeSmile.Editor.Asset.File.</text>
<text text-anchor="middle" x="267" y="-72.5" font-family="Helvetica,sans-Serif" font-size="10.00">Create</text>
</a>
</g>
</g>
<!-- Node2&#45;&gt;Node5 -->
<g id="edge4_Node000002_Node000005" class="edge">
<title>Node2&#45;&gt;Node5</title>
<g id="a_edge4_Node000002_Node000005"><a xlink:title=" ">
<path fill="none" stroke="#63b8ff" d="M373.87,-82C362.58,-82 350.35,-82 338.34,-82"/>
<polygon fill="#63b8ff" stroke="#63b8ff" points="373.8,-85.5 383.8,-82 373.8,-78.5 373.8,-85.5"/>
</a>
</g>
</g>
<!-- Node8 -->
<g id="Node000008" class="node">
<title>Node8</title>
<g id="a_Node000008"><a xlink:href="class_code_smile_1_1_editor_1_1_asset_1_1_file_ab7eadabd235d60aafe18c2f4fea44d9e.html#ab7eadabd235d60aafe18c2f4fea44d9e" target="_top" xlink:title="Moves an asset from source to destination path. Any non&#45;existing folders in destination path will be ...">
<polygon fill="white" stroke="#666666" points="349.25,-39 184.75,-39 184.75,-19 349.25,-19 349.25,-39"/>
<text text-anchor="middle" x="267" y="-25.5" font-family="Helvetica,sans-Serif" font-size="10.00">CodeSmile.Editor.Asset.File.Move</text>
</a>
</g>
</g>
<!-- Node2&#45;&gt;Node8 -->
<g id="edge7_Node000002_Node000008" class="edge">
<title>Node2&#45;&gt;Node8</title>
<g id="a_edge7_Node000002_Node000008"><a xlink:title=" ">
<path fill="none" stroke="#63b8ff" d="M381.73,-67.98C355.61,-59.03 322.29,-47.61 298.49,-39.45"/>
<polygon fill="#63b8ff" stroke="#63b8ff" points="380.48,-71.6 391.08,-71.53 382.75,-64.98 380.48,-71.6"/>
</a>
</g>
</g>
<!-- Node4 -->
<g id="Node000004" class="node">
<title>Node4</title>
<g id="a_Node000004"><a xlink:href="class_code_smile_1_1_editor_1_1_asset_a0e4eef3b828c3805de8639ae1068d55c.html#a0e4eef3b828c3805de8639ae1068d55c" target="_top" xlink:title="Makes a copy of the asset. Will create destination path folders if necessary.">
<polygon fill="white" stroke="#666666" points="147.25,-146 1.5,-146 1.5,-126 147.25,-126 147.25,-146"/>
<text text-anchor="middle" x="74.38" y="-132.5" font-family="Helvetica,sans-Serif" font-size="10.00">CodeSmile.Editor.Asset.Copy</text>
</a>
</g>
</g>
<!-- Node3&#45;&gt;Node4 -->
<g id="edge3_Node000003_Node000004" class="edge">
<title>Node3&#45;&gt;Node4</title>
<g id="a_edge3_Node000003_Node000004"><a xlink:title=" ">
<path fill="none" stroke="#63b8ff" d="M173.38,-133.43C164.71,-133.66 156,-133.89 147.56,-134.11"/>
<polygon fill="#63b8ff" stroke="#63b8ff" points="173.42,-136.9 183.33,-133.14 173.24,-129.91 173.42,-136.9"/>
</a>
</g>
</g>
<!-- Node6 -->
<g id="Node000006" class="node">
<title>Node6</title>
<g id="a_Node000006"><a xlink:href="class_code_smile_1_1_editor_1_1_asset_a4eb9736b74290d8c324d9d1a3fb0796a.html#a4eb9736b74290d8c324d9d1a3fb0796a" target="_top" xlink:title="Returns an instance by creating (saving) the object as an asset file at the given path....">
<polygon fill="white" stroke="#666666" points="148.75,-108 0,-108 0,-88 148.75,-88 148.75,-108"/>
<text text-anchor="middle" x="74.38" y="-94.5" font-family="Helvetica,sans-Serif" font-size="10.00">CodeSmile.Editor.Asset.Asset</text>
</a>
</g>
</g>
<!-- Node5&#45;&gt;Node6 -->
<g id="edge5_Node000005_Node000006" class="edge">
<title>Node5&#45;&gt;Node6</title>
<g id="a_edge5_Node000005_Node000006"><a xlink:title=" ">
<path fill="none" stroke="#63b8ff" d="M184.77,-88.82C172.9,-89.81 160.74,-90.83 149.04,-91.82"/>
<polygon fill="#63b8ff" stroke="#63b8ff" points="184.89,-92.24 194.56,-87.91 184.3,-85.26 184.89,-92.24"/>
</a>
</g>
</g>
<!-- Node7 -->
<g id="Node000007" class="node">
<title>Node7</title>
<g id="a_Node000007"><a xlink:href="class_code_smile_1_1_editor_1_1_asset_1_1_file_aafa3d6fab63beb8b4ea1166456e994b9.html#aafa3d6fab63beb8b4ea1166456e994b9" target="_top" xlink:title="Tries to load the object at path. If it cannot be loaded, it will be created using the Object instanc...">
<polygon fill="white" stroke="#666666" points="145.38,-70 3.38,-70 3.38,-38 145.38,-38 145.38,-70"/>
<text text-anchor="start" x="11.38" y="-56.5" font-family="Helvetica,sans-Serif" font-size="10.00">CodeSmile.Editor.Asset.File.</text>
<text text-anchor="middle" x="74.38" y="-44.5" font-family="Helvetica,sans-Serif" font-size="10.00">LoadOrCreate&lt; T &gt;</text>
</a>
</g>
</g>
<!-- Node5&#45;&gt;Node7 -->
<g id="edge6_Node000005_Node000007" class="edge">
<title>Node5&#45;&gt;Node7</title>
<g id="a_edge6_Node000005_Node000007"><a xlink:title=" ">
<path fill="none" stroke="#63b8ff" d="M184.78,-70.07C171.83,-68.17 158.52,-66.21 145.84,-64.35"/>
<polygon fill="#63b8ff" stroke="#63b8ff" points="184.16,-73.66 194.56,-71.65 185.17,-66.74 184.16,-73.66"/>
</a>
</g>
</g>
<!-- Node9 -->
<g id="Node000009" class="node">
<title>Node9</title>
<g id="a_Node000009"><a xlink:href="class_code_smile_1_1_editor_1_1_asset_a45faf9fc17e3cb57b87d2ae09e4dd7f8.html#a45faf9fc17e3cb57b87d2ae09e4dd7f8" target="_top" xlink:title="Moves asset to destination path. Any non&#45;existing folders in destination path will be created....">
<polygon fill="white" stroke="#666666" points="147.25,-20 1.5,-20 1.5,0 147.25,0 147.25,-20"/>
<text text-anchor="middle" x="74.38" y="-6.5" font-family="Helvetica,sans-Serif" font-size="10.00">CodeSmile.Editor.Asset.Move</text>
</a>
</g>
</g>
<!-- Node8&#45;&gt;Node9 -->
<g id="edge8_Node000008_Node000009" class="edge">
<title>Node8&#45;&gt;Node9</title>
<g id="a_edge8_Node000008_Node000009"><a xlink:title=" ">
<path fill="none" stroke="#63b8ff" d="M173.67,-19.8C164.9,-18.92 156.1,-18.05 147.56,-17.19"/>
<polygon fill="#63b8ff" stroke="#63b8ff" points="173.03,-23.35 183.33,-20.86 173.72,-16.38 173.03,-23.35"/>
</a>
</g>
</g>
</g>
</svg>

<g id="navigator" transform="translate(0 0)" fill="#404254">
  <rect fill="#f2f5e9" fill-opacity="0.5" stroke="#606060" stroke-width=".5" x="0" y="0" width="60" height="60"/>
  <use id="zoomplus" xlink:href="#zoomPlus" x="17" y="9" onmousedown="handleZoom(evt,'in')"/>
  <use id="zoomminus" xlink:href="#zoomMin" x="42" y="9" onmousedown="handleZoom(evt,'out')"/>
  <use id="reset" xlink:href="#resetDef" x="30" y="36" onmousedown="handleReset()"/>
   <use id="arrowup" xlink:href="#arrowUp" x="0" y="0" onmousedown="handlePan(0,-1)"/>
  <use id="arrowright" xlink:href="#arrowRight" x="0" y="0" onmousedown="handlePan(1,0)"/>
  <use id="arrowdown" xlink:href="#arrowDown" x="0" y="0" onmousedown="handlePan(0,1)"/>
  <use id="arrowleft" xlink:href="#arrowLeft" x="0" y="0" onmousedown="handlePan(-1,0)"/>
</g>
<svg viewBox="0 0 15 15" width="100%" height="30px" preserveAspectRatio="xMaxYMin meet">
 <g id="arrow_out" transform="scale(0.3 0.3)">
  <a xlink:href="class_code_smile_1_1_editor_1_1_asset_1_1_path_a1702f388229f26cb1f4431a1ee8d4a63_a1702f388229f26cb1f4431a1ee8d4a63_icgraph_org.svg" target="_base">
   <rect id="button" ry="5" rx="5" y="6" x="6" height="38" width="38"
        fill="#f2f5e9" fill-opacity="0.5" stroke="#606060" stroke-width="1.0"/>
   <path id="arrow"
     d="M 11.500037,31.436501 C 11.940474,20.09759 22.043105,11.32322 32.158766,21.979434 L 37.068811,17.246167 C 37.068811,17.246167 37.088388,32 37.088388,32 L 22.160133,31.978069 C 22.160133,31.978069 26.997745,27.140456 26.997745,27.140456 C 18.528582,18.264221 13.291696,25.230495 11.500037,31.436501 z"
     style="fill:#404040;"/>
  </a>
 </g>
</svg>

<style type='text/css'>
<![CDATA[
[data-mouse-over-selected='false'] { opacity: 0.7; }
[data-mouse-over-selected='true']  { opacity: 1.0; }
]]>
</style>
<script type="application/ecmascript"><![CDATA[
document.addEventListener('DOMContentLoaded', (event) => {
  highlightEdges();
  highlightAdjacentNodes();
});
]]></script>
</svg>
