<?xml version="1.0" encoding="UTF-8" standalone="no"?>
<!DOCTYPE svg PUBLIC "-//W3C//DTD SVG 1.1//EN"
 "http://www.w3.org/Graphics/SVG/1.1/DTD/svg11.dtd">
<!-- Generated by graphviz version 8.0.5 (20230430.1635)
 -->
<!-- Title: ForceReserialize Pages: 1 -->
<svg width="279pt" height="52pt"
 viewBox="0.00 0.00 279.25 52.00" xmlns="http://www.w3.org/2000/svg" xmlns:xlink="http://www.w3.org/1999/xlink">
<g id="graph0" class="graph" transform="scale(1 1) rotate(0) translate(4 48)">
<title>ForceReserialize</title>
<!-- Node1 -->
<g id="Node000001" class="node">
<title>Node1</title>
<g id="a_Node000001"><a xlink:title="Forces reserializing the assets as the given paths. This loads the assets, upgrades them to their cur...">
<polygon fill="#999999" stroke="#666666" points="88.75,-26 0,-26 0,-6 88.75,-6 88.75,-26"/>
<text text-anchor="middle" x="44.38" y="-12.5" font-family="Helvetica,sans-Serif" font-size="10.00">ForceReserialize</text>
</a>
</g>
</g>
<!-- Node1&#45;&gt;Node1 -->
<g id="edge1_Node000001_Node000001" class="edge">
<title>Node1&#45;&gt;Node1</title>
<g id="a_edge1_Node000001_Node000001"><a xlink:title=" ">
<path fill="none" stroke="#63b8ff" d="M19.97,-26.34C9.53,-34.98 17.67,-44 44.38,-44 59.81,-44 69.05,-40.98 72.07,-36.77"/>
<polygon fill="#63b8ff" stroke="#63b8ff" points="75.13,-35.82 68.78,-27.34 68.45,-37.93 75.13,-35.82"/>
</a>
</g>
</g>
<!-- Node2 -->
<g id="Node000002" class="node">
<title>Node2</title>
<g id="a_Node000002"><a xlink:href="class_code_smile_1_1_editor_1_1_asset_1_1_path_ad43db7ddf503406b3dbe05949a040a46.html#ad43db7ddf503406b3dbe05949a040a46" target="_top" xlink:title="Converts a collection of Path instances to a string array.">
<polygon fill="white" stroke="#666666" points="271.25,-32 124.75,-32 124.75,0 271.25,0 271.25,-32"/>
<text text-anchor="start" x="132.75" y="-18.5" font-family="Helvetica,sans-Serif" font-size="10.00">CodeSmile.Editor.Asset.Path.</text>
<text text-anchor="middle" x="198" y="-6.5" font-family="Helvetica,sans-Serif" font-size="10.00">ToStrings</text>
</a>
</g>
</g>
<!-- Node1&#45;&gt;Node2 -->
<g id="edge2_Node000001_Node000002" class="edge">
<title>Node1&#45;&gt;Node2</title>
<g id="a_edge2_Node000001_Node000002"><a xlink:title=" ">
<path fill="none" stroke="#63b8ff" d="M89.23,-16C96.89,-16 105.09,-16 113.41,-16"/>
<polygon fill="#63b8ff" stroke="#63b8ff" points="113.39,-19.5 123.39,-16 113.39,-12.5 113.39,-19.5"/>
</a>
</g>
</g>
</g>
</svg>
