<?xml version="1.0" encoding="UTF-8" standalone="no"?>
<!DOCTYPE svg PUBLIC "-//W3C//DTD SVG 1.1//EN"
 "http://www.w3.org/Graphics/SVG/1.1/DTD/svg11.dtd">
<!-- Generated by graphviz version 8.0.5 (20230430.1635)
 -->
<!-- Title: Create Pages: 1 -->
<svg width="433pt" height="128pt"
 viewBox="0.00 0.00 433.25 128.00" xmlns="http://www.w3.org/2000/svg" xmlns:xlink="http://www.w3.org/1999/xlink">
<g id="graph0" class="graph" transform="scale(1 1) rotate(0) translate(4 124)">
<title>Create</title>
<!-- Node1 -->
<g id="Node000001" class="node">
<title>Node1</title>
<g id="a_Node000001"><a xlink:title="Creates (saves) a new asset file at the target path. Also creates all non&#45;existing folders in the pat...">
<polygon fill="#999999" stroke="#666666" points="44.5,-64 0,-64 0,-44 44.5,-44 44.5,-64"/>
<text text-anchor="middle" x="22.25" y="-50.5" font-family="Helvetica,sans-Serif" font-size="10.00">Create</text>
</a>
</g>
</g>
<!-- Node2 -->
<g id="Node000002" class="node">
<title>Node2</title>
<g id="a_Node000002"><a xlink:href="class_code_smile_1_1_editor_1_1_asset_1_1_path_aa5b7d522e7180d8e9943ca3a7f636b72.html#aa5b7d522e7180d8e9943ca3a7f636b72" target="_top" xlink:title="Creates the folders in the path recursively. Path may point to a file, but only folders will be creat...">
<polygon fill="white" stroke="#666666" points="227,-70 80.5,-70 80.5,-38 227,-38 227,-70"/>
<text text-anchor="start" x="88.5" y="-56.5" font-family="Helvetica,sans-Serif" font-size="10.00">CodeSmile.Editor.Asset.Path.</text>
<text text-anchor="middle" x="153.75" y="-44.5" font-family="Helvetica,sans-Serif" font-size="10.00">CreateFolders</text>
</a>
</g>
</g>
<!-- Node1&#45;&gt;Node2 -->
<g id="edge1_Node000001_Node000002" class="edge">
<title>Node1&#45;&gt;Node2</title>
<g id="a_edge1_Node000001_Node000002"><a xlink:title=" ">
<path fill="none" stroke="#63b8ff" d="M44.93,-54C51.99,-54 60.31,-54 69.13,-54"/>
<polygon fill="#63b8ff" stroke="#63b8ff" points="69.11,-57.5 79.11,-54 69.11,-50.5 69.11,-57.5"/>
</a>
</g>
</g>
<!-- Node3 -->
<g id="Node000003" class="node">
<title>Node3</title>
<g id="a_Node000003"><a xlink:href="class_code_smile_1_1_editor_1_1_asset_1_1_path_ad6edf57483f25f25967aaf3b5c237cf9.html#ad6edf57483f25f25967aaf3b5c237cf9" target="_top" xlink:title="Tests if the given file exists.">
<polygon fill="white" stroke="#666666" points="417.38,-120 270.88,-120 270.88,-88 417.38,-88 417.38,-120"/>
<text text-anchor="start" x="278.88" y="-106.5" font-family="Helvetica,sans-Serif" font-size="10.00">CodeSmile.Editor.Asset.Path.</text>
<text text-anchor="middle" x="344.12" y="-94.5" font-family="Helvetica,sans-Serif" font-size="10.00">FileExists</text>
</a>
</g>
</g>
<!-- Node2&#45;&gt;Node3 -->
<g id="edge2_Node000002_Node000003" class="edge">
<title>Node2&#45;&gt;Node3</title>
<g id="a_edge2_Node000002_Node000003"><a xlink:title=" ">
<path fill="none" stroke="#63b8ff" d="M216.69,-70.44C233.91,-75.01 252.77,-80.02 270.54,-84.73"/>
<polygon fill="#63b8ff" stroke="#63b8ff" points="269.58,-88.37 280.15,-87.55 271.38,-81.6 269.58,-88.37"/>
</a>
</g>
</g>
<!-- Node4 -->
<g id="Node000004" class="node">
<title>Node4</title>
<g id="a_Node000004"><a xlink:href="class_code_smile_1_1_editor_1_1_asset_1_1_path_a1702f388229f26cb1f4431a1ee8d4a63.html#a1702f388229f26cb1f4431a1ee8d4a63" target="_top" xlink:title="Returns true if the folder exists. False otherwise, or if the path is to a file.">
<polygon fill="white" stroke="#666666" points="417.38,-70 270.88,-70 270.88,-38 417.38,-38 417.38,-70"/>
<text text-anchor="start" x="278.88" y="-56.5" font-family="Helvetica,sans-Serif" font-size="10.00">CodeSmile.Editor.Asset.Path.</text>
<text text-anchor="middle" x="344.12" y="-44.5" font-family="Helvetica,sans-Serif" font-size="10.00">FolderExists</text>
</a>
</g>
</g>
<!-- Node2&#45;&gt;Node4 -->
<g id="edge3_Node000002_Node000004" class="edge">
<title>Node2&#45;&gt;Node4</title>
<g id="a_edge3_Node000002_Node000004"><a xlink:title=" ">
<path fill="none" stroke="#63b8ff" d="M227.31,-54C237.96,-54 249,-54 259.84,-54"/>
<polygon fill="#63b8ff" stroke="#63b8ff" points="259.6,-57.5 269.6,-54 259.6,-50.5 259.6,-57.5"/>
</a>
</g>
</g>
<!-- Node5 -->
<g id="Node000005" class="node">
<title>Node5</title>
<g id="a_Node000005"><a xlink:href="class_code_smile_1_1_editor_1_1_asset_1_1_path_a6bd701a7c06a58ac8ebd39c190df3e61.html#a6bd701a7c06a58ac8ebd39c190df3e61" target="_top" xlink:title="Gets the path of an asset file.">
<polygon fill="white" stroke="#666666" points="425.25,-20 263,-20 263,0 425.25,0 425.25,-20"/>
<text text-anchor="middle" x="344.12" y="-6.5" font-family="Helvetica,sans-Serif" font-size="10.00">CodeSmile.Editor.Asset.Path.Get</text>
</a>
</g>
</g>
<!-- Node2&#45;&gt;Node5 -->
<g id="edge4_Node000002_Node000005" class="edge">
<title>Node2&#45;&gt;Node5</title>
<g id="a_edge4_Node000002_Node000005"><a xlink:title=" ">
<path fill="none" stroke="#63b8ff" d="M225.16,-37.55C245.79,-32.73 268.06,-27.53 287.62,-22.96"/>
<polygon fill="#63b8ff" stroke="#63b8ff" points="288.25,-26.18 297.19,-20.5 286.65,-19.36 288.25,-26.18"/>
</a>
</g>
</g>
</g>
</svg>
