<?xml version="1.0" encoding="UTF-8" standalone="no"?>
<!DOCTYPE svg PUBLIC "-//W3C//DTD SVG 1.1//EN"
 "http://www.w3.org/Graphics/SVG/1.1/DTD/svg11.dtd">
<!-- Generated by graphviz version 8.0.5 (20230430.1635)
 -->
<!-- Title: LoadOrCreate&lt; T &gt; Pages: 1 -->
<svg width="448pt" height="66pt"
 viewBox="0.00 0.00 448.25 66.00" xmlns="http://www.w3.org/2000/svg" xmlns:xlink="http://www.w3.org/1999/xlink">
<g id="graph0" class="graph" transform="scale(1 1) rotate(0) translate(4 62)">
<title>LoadOrCreate&lt; T &gt;</title>
<!-- Node1 -->
<g id="Node000001" class="node">
<title>Node1</title>
<g id="a_Node000001"><a xlink:title="Loads an asset at path or creates the asset if needed.">
<polygon fill="#999999" stroke="#666666" points="99.25,-39 0,-39 0,-19 99.25,-19 99.25,-39"/>
<text text-anchor="middle" x="49.62" y="-25.5" font-family="Helvetica,sans-Serif" font-size="10.00">LoadOrCreate&lt; T &gt;</text>
</a>
</g>
</g>
<!-- Node2 -->
<g id="Node000002" class="node">
<title>Node2</title>
<g id="a_Node000002"><a xlink:href="class_code_smile_editor_1_1_asset_1_1_file_a64bf135da6d9a9b8a5b59c50e839d222.html#a64bf135da6d9a9b8a5b59c50e839d222" target="_top" xlink:title="Writes the byte array to disk, then imports and loads the asset. Overwrites any existing file.">
<polygon fill="white" stroke="#666666" points="209.75,-58 165.25,-58 165.25,-38 209.75,-38 209.75,-58"/>
<text text-anchor="middle" x="187.5" y="-44.5" font-family="Helvetica,sans-Serif" font-size="10.00">Create</text>
</a>
</g>
</g>
<!-- Node1&#45;&gt;Node2 -->
<g id="edge1_Node000001_Node000002" class="edge">
<title>Node1&#45;&gt;Node2</title>
<g id="a_edge1_Node000001_Node000002"><a xlink:title=" ">
<path fill="none" stroke="#63b8ff" d="M99.68,-35.86C117.84,-38.4 137.95,-41.21 154.24,-43.49"/>
<polygon fill="#63b8ff" stroke="#63b8ff" points="153.45,-47.05 163.84,-44.97 154.42,-40.12 153.45,-47.05"/>
</a>
</g>
</g>
<!-- Node3 -->
<g id="Node000003" class="node">
<title>Node3</title>
<g id="a_Node000003"><a xlink:href="class_code_smile_editor_1_1_asset_1_1_file_a4dc6aff1e32f03b26ec0e310fb4233c0.html#a4dc6aff1e32f03b26ec0e310fb4233c0" target="_top" xlink:title="Imports a file at a given path that was created or modified &#39;externally&#39;, then loads and returns the ...">
<polygon fill="white" stroke="#666666" points="239.75,-20 135.25,-20 135.25,0 239.75,0 239.75,-20"/>
<text text-anchor="middle" x="187.5" y="-6.5" font-family="Helvetica,sans-Serif" font-size="10.00">ImportAndLoad&lt; T &gt;</text>
</a>
</g>
</g>
<!-- Node1&#45;&gt;Node3 -->
<g id="edge2_Node000001_Node000003" class="edge">
<title>Node1&#45;&gt;Node3</title>
<g id="a_edge2_Node000001_Node000003"><a xlink:title=" ">
<path fill="none" stroke="#63b8ff" d="M99.68,-22.14C107.61,-21.03 115.91,-19.87 124.1,-18.73"/>
<polygon fill="#63b8ff" stroke="#63b8ff" points="124.35,-22.09 133.77,-17.23 123.38,-15.15 124.35,-22.09"/>
</a>
</g>
</g>
<!-- Node4 -->
<g id="Node000004" class="node">
<title>Node4</title>
<g id="a_Node000004"><a xlink:href="class_code_smile_editor_1_1_asset_a5d27be243c1f698cba116b768e3f65ec.html#a5d27be243c1f698cba116b768e3f65ec" target="_top" xlink:title="Loads a (sub) object from the asset identified by type.">
<polygon fill="white" stroke="#666666" points="440.25,-20 275.75,-20 275.75,0 440.25,0 440.25,-20"/>
<text text-anchor="middle" x="358" y="-6.5" font-family="Helvetica,sans-Serif" font-size="10.00">CodeSmileEditor.Asset.Load&lt; T &gt;</text>
</a>
</g>
</g>
<!-- Node3&#45;&gt;Node4 -->
<g id="edge3_Node000003_Node000004" class="edge">
<title>Node3&#45;&gt;Node4</title>
<g id="a_edge3_Node000003_Node000004"><a xlink:title=" ">
<path fill="none" stroke="#63b8ff" d="M239.97,-10C247.86,-10 256.21,-10 264.67,-10"/>
<polygon fill="#63b8ff" stroke="#63b8ff" points="264.42,-13.5 274.42,-10 264.42,-6.5 264.42,-13.5"/>
</a>
</g>
</g>
</g>
</svg>
