<?xml version="1.0" encoding="UTF-8" standalone="no"?>
<!DOCTYPE svg PUBLIC "-//W3C//DTD SVG 1.1//EN"
 "http://www.w3.org/Graphics/SVG/1.1/DTD/svg11.dtd">
<!-- Generated by graphviz version 8.0.5 (20230430.1635)
 -->
<!-- Title: LoadOrCreate&lt; T &gt; Pages: 1 -->
<svg width="569pt" height="128pt"
 viewBox="0.00 0.00 568.50 128.00" xmlns="http://www.w3.org/2000/svg" xmlns:xlink="http://www.w3.org/1999/xlink">
<g id="graph0" class="graph" transform="scale(1 1) rotate(0) translate(4 124)">
<title>LoadOrCreate&lt; T &gt;</title>
<!-- Node1 -->
<g id="Node000001" class="node">
<title>Node1</title>
<g id="a_Node000001"><a xlink:title="Tries to load the object at path. If it cannot be loaded, it will be created using the Object instanc...">
<polygon fill="#999999" stroke="#666666" points="99.25,-64 0,-64 0,-44 99.25,-44 99.25,-64"/>
<text text-anchor="middle" x="49.62" y="-50.5" font-family="Helvetica,sans-Serif" font-size="10.00">LoadOrCreate&lt; T &gt;</text>
</a>
</g>
</g>
<!-- Node2 -->
<g id="Node000002" class="node">
<title>Node2</title>
<g id="a_Node000002"><a xlink:href="class_code_smile_1_1_editor_1_1_asset_1_1_file_aad585cc499d994cd55b2a123674a8a46.html#aad585cc499d994cd55b2a123674a8a46" target="_top" xlink:title="Creates (saves) a new asset file at the target path. Also creates all non&#45;existing folders in the pat...">
<polygon fill="white" stroke="#666666" points="179.75,-64 135.25,-64 135.25,-44 179.75,-44 179.75,-64"/>
<text text-anchor="middle" x="157.5" y="-50.5" font-family="Helvetica,sans-Serif" font-size="10.00">Create</text>
</a>
</g>
</g>
<!-- Node1&#45;&gt;Node2 -->
<g id="edge1_Node000001_Node000002" class="edge">
<title>Node1&#45;&gt;Node2</title>
<g id="a_edge1_Node000001_Node000002"><a xlink:title=" ">
<path fill="none" stroke="#63b8ff" d="M99.53,-54C107.83,-54 116.27,-54 124.01,-54"/>
<polygon fill="#63b8ff" stroke="#63b8ff" points="123.77,-57.5 133.77,-54 123.77,-50.5 123.77,-57.5"/>
</a>
</g>
</g>
<!-- Node3 -->
<g id="Node000003" class="node">
<title>Node3</title>
<g id="a_Node000003"><a xlink:href="class_code_smile_1_1_editor_1_1_asset_1_1_path_aa5b7d522e7180d8e9943ca3a7f636b72.html#aa5b7d522e7180d8e9943ca3a7f636b72" target="_top" xlink:title="Creates the folders in the path recursively. Path may point to a file, but only folders will be creat...">
<polygon fill="white" stroke="#666666" points="362.25,-70 215.75,-70 215.75,-38 362.25,-38 362.25,-70"/>
<text text-anchor="start" x="223.75" y="-56.5" font-family="Helvetica,sans-Serif" font-size="10.00">CodeSmile.Editor.Asset.Path.</text>
<text text-anchor="middle" x="289" y="-44.5" font-family="Helvetica,sans-Serif" font-size="10.00">CreateFolders</text>
</a>
</g>
</g>
<!-- Node2&#45;&gt;Node3 -->
<g id="edge2_Node000002_Node000003" class="edge">
<title>Node2&#45;&gt;Node3</title>
<g id="a_edge2_Node000002_Node000003"><a xlink:title=" ">
<path fill="none" stroke="#63b8ff" d="M180.18,-54C187.24,-54 195.56,-54 204.38,-54"/>
<polygon fill="#63b8ff" stroke="#63b8ff" points="204.36,-57.5 214.36,-54 204.36,-50.5 204.36,-57.5"/>
</a>
</g>
</g>
<!-- Node4 -->
<g id="Node000004" class="node">
<title>Node4</title>
<g id="a_Node000004"><a xlink:href="class_code_smile_1_1_editor_1_1_asset_1_1_path_ad6edf57483f25f25967aaf3b5c237cf9.html#ad6edf57483f25f25967aaf3b5c237cf9" target="_top" xlink:title="Tests if the given file exists.">
<polygon fill="white" stroke="#666666" points="552.62,-120 406.12,-120 406.12,-88 552.62,-88 552.62,-120"/>
<text text-anchor="start" x="414.12" y="-106.5" font-family="Helvetica,sans-Serif" font-size="10.00">CodeSmile.Editor.Asset.Path.</text>
<text text-anchor="middle" x="479.38" y="-94.5" font-family="Helvetica,sans-Serif" font-size="10.00">FileExists</text>
</a>
</g>
</g>
<!-- Node3&#45;&gt;Node4 -->
<g id="edge3_Node000003_Node000004" class="edge">
<title>Node3&#45;&gt;Node4</title>
<g id="a_edge3_Node000003_Node000004"><a xlink:title=" ">
<path fill="none" stroke="#63b8ff" d="M351.94,-70.44C369.16,-75.01 388.02,-80.02 405.79,-84.73"/>
<polygon fill="#63b8ff" stroke="#63b8ff" points="404.83,-88.37 415.4,-87.55 406.63,-81.6 404.83,-88.37"/>
</a>
</g>
</g>
<!-- Node5 -->
<g id="Node000005" class="node">
<title>Node5</title>
<g id="a_Node000005"><a xlink:href="class_code_smile_1_1_editor_1_1_asset_1_1_path_a1702f388229f26cb1f4431a1ee8d4a63.html#a1702f388229f26cb1f4431a1ee8d4a63" target="_top" xlink:title="Returns true if the folder exists. False otherwise, or if the path is to a file.">
<polygon fill="white" stroke="#666666" points="552.62,-70 406.12,-70 406.12,-38 552.62,-38 552.62,-70"/>
<text text-anchor="start" x="414.12" y="-56.5" font-family="Helvetica,sans-Serif" font-size="10.00">CodeSmile.Editor.Asset.Path.</text>
<text text-anchor="middle" x="479.38" y="-44.5" font-family="Helvetica,sans-Serif" font-size="10.00">FolderExists</text>
</a>
</g>
</g>
<!-- Node3&#45;&gt;Node5 -->
<g id="edge4_Node000003_Node000005" class="edge">
<title>Node3&#45;&gt;Node5</title>
<g id="a_edge4_Node000003_Node000005"><a xlink:title=" ">
<path fill="none" stroke="#63b8ff" d="M362.56,-54C373.21,-54 384.25,-54 395.09,-54"/>
<polygon fill="#63b8ff" stroke="#63b8ff" points="394.85,-57.5 404.85,-54 394.85,-50.5 394.85,-57.5"/>
</a>
</g>
</g>
<!-- Node6 -->
<g id="Node000006" class="node">
<title>Node6</title>
<g id="a_Node000006"><a xlink:href="class_code_smile_1_1_editor_1_1_asset_1_1_path_a6bd701a7c06a58ac8ebd39c190df3e61.html#a6bd701a7c06a58ac8ebd39c190df3e61" target="_top" xlink:title="Gets the path of an asset file.">
<polygon fill="white" stroke="#666666" points="560.5,-20 398.25,-20 398.25,0 560.5,0 560.5,-20"/>
<text text-anchor="middle" x="479.38" y="-6.5" font-family="Helvetica,sans-Serif" font-size="10.00">CodeSmile.Editor.Asset.Path.Get</text>
</a>
</g>
</g>
<!-- Node3&#45;&gt;Node6 -->
<g id="edge5_Node000003_Node000006" class="edge">
<title>Node3&#45;&gt;Node6</title>
<g id="a_edge5_Node000003_Node000006"><a xlink:title=" ">
<path fill="none" stroke="#63b8ff" d="M360.41,-37.55C381.04,-32.73 403.31,-27.53 422.87,-22.96"/>
<polygon fill="#63b8ff" stroke="#63b8ff" points="423.5,-26.18 432.44,-20.5 421.9,-19.36 423.5,-26.18"/>
</a>
</g>
</g>
</g>
</svg>
