<?xml version="1.0" encoding="UTF-8" standalone="no"?>
<!DOCTYPE svg PUBLIC "-//W3C//DTD SVG 1.1//EN"
 "http://www.w3.org/Graphics/SVG/1.1/DTD/svg11.dtd">
<!-- Generated by graphviz version 8.0.5 (20230430.1635)
 -->
<!-- Title: Get Pages: 1 -->
<!--zoomable 220 -->

<svg id="main" version="1.1" xmlns="http://www.w3.org/2000/svg" xmlns:xlink="http://www.w3.org/1999/xlink" xml:space="preserve" onload="init(evt)">
<style type="text/css"><![CDATA[
.node, .edge {opacity: 0.7;}
.node.selected, .edge.selected {opacity: 1;}
.edge:hover path { stroke: red; }
.edge:hover polygon { stroke: red; fill: red; }
]]></style>

<defs>
  <circle id="rim" cx="0" cy="0" r="7"/>
  <circle id="rim2" cx="0" cy="0" r="3.5"/>
  <g id="zoomPlus">
    <use xlink:href="#rim" fill="#404040"><set attributeName="fill" to="#808080" begin="zoomplus.mouseover" end="zoomplus.mouseout"/></use>
    <path d="M-4,0h8M0,-4v8" fill="none" stroke="white" stroke-width="1.5" pointer-events="none"/>
  </g>
  <g id="zoomMin">
    <use xlink:href="#rim" fill="#404040"><set attributeName="fill" to="#808080" begin="zoomminus.mouseover" end="zoomminus.mouseout"/></use>
    <path d="M-4,0h8" fill="none" stroke="white" stroke-width="1.5" pointer-events="none"/>
  </g>
  <g id="arrowUp" transform="translate(30 24)">
    <use xlink:href="#rim"/>
    <path pointer-events="none" fill="none" stroke="white" stroke-width="1.5" d="M0,-3.0v7 M-2.5,-0.5L0,-3.0L2.5,-0.5"/>
  </g>
  <g id="arrowRight" transform="rotate(90) translate(36 -43)">
    <use xlink:href="#rim"/>
    <path pointer-events="none" fill="none" stroke="white" stroke-width="1.5" d="M0,-3.0v7 M-2.5,-0.5L0,-3.0L2.5,-0.5"/>
  </g>
  <g id="arrowDown" transform="rotate(180) translate(-30 -48)">
    <use xlink:href="#rim"/>
    <path pointer-events="none" fill="none" stroke="white" stroke-width="1.5" d="M0,-3.0v7 M-2.5,-0.5L0,-3.0L2.5,-0.5"/>
  </g>
  <g id="arrowLeft" transform="rotate(270) translate(-36 17)">
    <use xlink:href="#rim"/>
    <path pointer-events="none" fill="none" stroke="white" stroke-width="1.5" d="M0,-3.0v7 M-2.5,-0.5L0,-3.0L2.5,-0.5"/>
  </g>
  <g id="resetDef">
    <use xlink:href="#rim2" fill="#404040"><set attributeName="fill" to="#808080" begin="reset.mouseover" end="reset.mouseout"/></use>
  </g>
</defs>
<script type="application/ecmascript">
var viewWidth = 617;
var viewHeight = 220;
var sectionId = 'dynsection-0';
</script>
<script type="application/ecmascript" xlink:href="svg.min.js"/>
<svg id="graph" class="graph">
<g id="viewport">
<title>Get</title>
<!-- Node1 -->
<g id="Node000001" class="node">
<title>Node1</title>
<g id="a_Node000001"><a xlink:title="Gets the path of an asset file.">
<polygon fill="#999999" stroke="#666666" points="609.25,-114 577.5,-114 577.5,-94 609.25,-94 609.25,-114"/>
<text text-anchor="middle" x="593.38" y="-100.5" font-family="Helvetica,sans-Serif" font-size="10.00">Get</text>
</a>
</g>
</g>
<!-- Node2 -->
<g id="Node000002" class="node">
<title>Node2</title>
<g id="a_Node000002"><a xlink:href="class_code_smile_1_1_editor_1_1_asset_1_1_version_control_a7bccb4c64f3460ad63559dd8b6474c98.html#a7bccb4c64f3460ad63559dd8b6474c98" target="_top" xlink:title="Returns true if the asset can be opened for editing in the version control system....">
<polygon fill="white" stroke="#666666" points="541.5,-208 385.25,-208 385.25,-176 541.5,-176 541.5,-208"/>
<text text-anchor="start" x="393.25" y="-194.5" font-family="Helvetica,sans-Serif" font-size="10.00">CodeSmile.Editor.Asset.Version</text>
<text text-anchor="middle" x="463.38" y="-182.5" font-family="Helvetica,sans-Serif" font-size="10.00">Control.CanMakeEditable</text>
</a>
</g>
</g>
<!-- Node1&#45;&gt;Node2 -->
<g id="edge1_Node000001_Node000002" class="edge">
<title>Node1&#45;&gt;Node2</title>
<g id="a_edge1_Node000001_Node000002"><a xlink:title=" ">
<path fill="none" stroke="#63b8ff" d="M581.12,-123.26C572.04,-137.22 558.09,-155.59 541.5,-167 536.75,-170.27 531.53,-173.13 526.14,-175.64"/>
<polygon fill="#63b8ff" stroke="#63b8ff" points="584.54,-125.38 586.83,-115.03 578.59,-121.69 584.54,-125.38"/>
</a>
</g>
</g>
<!-- Node3 -->
<g id="Node000003" class="node">
<title>Node3</title>
<g id="a_Node000003"><a xlink:href="class_code_smile_1_1_editor_1_1_asset_1_1_path_aa5b7d522e7180d8e9943ca3a7f636b72.html#aa5b7d522e7180d8e9943ca3a7f636b72" target="_top" xlink:title="Creates the folders in the path recursively. Path may point to a file, but only folders will be creat...">
<polygon fill="white" stroke="#666666" points="501.75,-158 425,-158 425,-138 501.75,-138 501.75,-158"/>
<text text-anchor="middle" x="463.38" y="-144.5" font-family="Helvetica,sans-Serif" font-size="10.00">CreateFolders</text>
</a>
</g>
</g>
<!-- Node1&#45;&gt;Node3 -->
<g id="edge2_Node000001_Node000003" class="edge">
<title>Node1&#45;&gt;Node3</title>
<g id="a_edge2_Node000001_Node000003"><a xlink:title=" ">
<path fill="none" stroke="#63b8ff" d="M567.54,-117.53C559.4,-121.6 550.21,-125.83 541.5,-129 528.93,-133.58 514.81,-137.41 502.13,-140.41"/>
<polygon fill="#63b8ff" stroke="#63b8ff" points="568.9,-120.25 576.17,-112.55 565.68,-114.04 568.9,-120.25"/>
</a>
</g>
</g>
<!-- Node11 -->
<g id="Node000011" class="node">
<title>Node11</title>
<g id="a_Node000011"><a xlink:href="class_code_smile_1_1_editor_1_1_asset_a82b0bb0beb5f5422951631789bca4256.html#a82b0bb0beb5f5422951631789bca4256" target="_top" xlink:title="Returns the type of the main asset for the GUID.">
<polygon fill="white" stroke="#666666" points="532.88,-120 393.88,-120 393.88,-88 532.88,-88 532.88,-120"/>
<text text-anchor="start" x="401.88" y="-106.5" font-family="Helvetica,sans-Serif" font-size="10.00">CodeSmile.Editor.Asset.Get</text>
<text text-anchor="middle" x="463.38" y="-94.5" font-family="Helvetica,sans-Serif" font-size="10.00">MainType</text>
</a>
</g>
</g>
<!-- Node1&#45;&gt;Node11 -->
<g id="edge10_Node000001_Node000011" class="edge">
<title>Node1&#45;&gt;Node11</title>
<g id="a_edge10_Node000001_Node000011"><a xlink:title=" ">
<path fill="none" stroke="#63b8ff" d="M566.36,-104C556.66,-104 545.12,-104 533.36,-104"/>
<polygon fill="#63b8ff" stroke="#63b8ff" points="566.19,-107.5 576.19,-104 566.19,-100.5 566.19,-107.5"/>
</a>
</g>
</g>
<!-- Node12 -->
<g id="Node000012" class="node">
<title>Node12</title>
<g id="a_Node000012"><a xlink:href="class_code_smile_1_1_editor_1_1_asset_1_1_file_a9702d12ef27f2d0dfd1f8201fbb37088.html#a9702d12ef27f2d0dfd1f8201fbb37088" target="_top" xlink:title="Loads the main asset object for the guid. Commonly this is the only object of the asset,...">
<polygon fill="white" stroke="#666666" points="534.38,-70 392.38,-70 392.38,-38 534.38,-38 534.38,-70"/>
<text text-anchor="start" x="400.38" y="-56.5" font-family="Helvetica,sans-Serif" font-size="10.00">CodeSmile.Editor.Asset.File.</text>
<text text-anchor="middle" x="463.38" y="-44.5" font-family="Helvetica,sans-Serif" font-size="10.00">LoadMain&lt; T &gt;</text>
</a>
</g>
</g>
<!-- Node1&#45;&gt;Node12 -->
<g id="edge11_Node000001_Node000012" class="edge">
<title>Node1&#45;&gt;Node12</title>
<g id="a_edge11_Node000001_Node000012"><a xlink:title=" ">
<path fill="none" stroke="#63b8ff" d="M567.4,-90.84C559.25,-86.79 550.09,-82.48 541.5,-79 534.06,-75.99 526.12,-73.07 518.25,-70.37"/>
<polygon fill="#63b8ff" stroke="#63b8ff" points="565.55,-94.34 576.05,-95.75 568.73,-88.1 565.55,-94.34"/>
</a>
</g>
</g>
<!-- Node13 -->
<g id="Node000013" class="node">
<title>Node13</title>
<g id="a_Node000013"><a xlink:href="class_code_smile_1_1_editor_1_1_asset_1_1_path_a7ae63d2fe5a863de1b43c6a4895f32e6.html#a7ae63d2fe5a863de1b43c6a4895f32e6" target="_top" xlink:title="Converts an array of objects to their asset paths. The returned array has the same size....">
<polygon fill="white" stroke="#666666" points="502.12,-20 424.62,-20 424.62,0 502.12,0 502.12,-20"/>
<text text-anchor="middle" x="463.38" y="-6.5" font-family="Helvetica,sans-Serif" font-size="10.00">ToAssetPaths</text>
</a>
</g>
</g>
<!-- Node1&#45;&gt;Node13 -->
<g id="edge12_Node000001_Node000013" class="edge">
<title>Node1&#45;&gt;Node13</title>
<g id="a_edge12_Node000001_Node000013"><a xlink:title=" ">
<path fill="none" stroke="#63b8ff" d="M583.92,-84.09C575.61,-66.92 561.28,-42.77 541.5,-29 530.07,-21.04 515.65,-16.41 502.39,-13.71"/>
<polygon fill="#63b8ff" stroke="#63b8ff" points="580.98,-85.09 588.32,-92.73 587.35,-82.18 580.98,-85.09"/>
</a>
</g>
</g>
<!-- Node4 -->
<g id="Node000004" class="node">
<title>Node4</title>
<g id="a_Node000004"><a xlink:href="class_code_smile_1_1_editor_1_1_asset_1_1_file_a613ec8386d2e3f381b8d875cda4f8c33.html#a613ec8386d2e3f381b8d875cda4f8c33" target="_top" xlink:title="Makes a copy of the source asset and saves it in the destination. Will create destination path folder...">
<polygon fill="white" stroke="#666666" points="349.25,-207 184.75,-207 184.75,-187 349.25,-187 349.25,-207"/>
<text text-anchor="middle" x="267" y="-193.5" font-family="Helvetica,sans-Serif" font-size="10.00">CodeSmile.Editor.Asset.File.Copy</text>
</a>
</g>
</g>
<!-- Node3&#45;&gt;Node4 -->
<g id="edge3_Node000003_Node000004" class="edge">
<title>Node3&#45;&gt;Node4</title>
<g id="a_edge3_Node000003_Node000004"><a xlink:title=" ">
<path fill="none" stroke="#63b8ff" d="M414.12,-159.82C404.55,-162.18 394.58,-164.66 385.25,-167 359.67,-173.42 331,-180.76 308.4,-186.57"/>
<polygon fill="#63b8ff" stroke="#63b8ff" points="414.83,-163 423.7,-157.21 413.15,-156.2 414.83,-163"/>
</a>
</g>
</g>
<!-- Node6 -->
<g id="Node000006" class="node">
<title>Node6</title>
<g id="a_Node000006"><a xlink:href="class_code_smile_1_1_editor_1_1_asset_1_1_file_aad585cc499d994cd55b2a123674a8a46.html#aad585cc499d994cd55b2a123674a8a46" target="_top" xlink:title="Creates (saves) a new asset file at the target path. Also creates all non&#45;existing folders in the pat...">
<polygon fill="white" stroke="#666666" points="338,-164 196,-164 196,-132 338,-132 338,-164"/>
<text text-anchor="start" x="204" y="-150.5" font-family="Helvetica,sans-Serif" font-size="10.00">CodeSmile.Editor.Asset.File.</text>
<text text-anchor="middle" x="267" y="-138.5" font-family="Helvetica,sans-Serif" font-size="10.00">Create</text>
</a>
</g>
</g>
<!-- Node3&#45;&gt;Node6 -->
<g id="edge5_Node000003_Node000006" class="edge">
<title>Node3&#45;&gt;Node6</title>
<g id="a_edge5_Node000003_Node000006"><a xlink:title=" ">
<path fill="none" stroke="#63b8ff" d="M414.11,-148C391.27,-148 363.54,-148 338.41,-148"/>
<polygon fill="#63b8ff" stroke="#63b8ff" points="413.9,-151.5 423.9,-148 413.9,-144.5 413.9,-151.5"/>
</a>
</g>
</g>
<!-- Node9 -->
<g id="Node000009" class="node">
<title>Node9</title>
<g id="a_Node000009"><a xlink:href="class_code_smile_1_1_editor_1_1_asset_1_1_file_ab7eadabd235d60aafe18c2f4fea44d9e.html#ab7eadabd235d60aafe18c2f4fea44d9e" target="_top" xlink:title="Moves an asset from source to destination path. Any non&#45;existing folders in destination path will be ...">
<polygon fill="white" stroke="#666666" points="349.25,-105 184.75,-105 184.75,-85 349.25,-85 349.25,-105"/>
<text text-anchor="middle" x="267" y="-91.5" font-family="Helvetica,sans-Serif" font-size="10.00">CodeSmile.Editor.Asset.File.Move</text>
</a>
</g>
</g>
<!-- Node3&#45;&gt;Node9 -->
<g id="edge8_Node000003_Node000009" class="edge">
<title>Node3&#45;&gt;Node9</title>
<g id="a_edge8_Node000003_Node000009"><a xlink:title=" ">
<path fill="none" stroke="#63b8ff" d="M414.06,-136.42C404.49,-134.03 394.54,-131.49 385.25,-129 357.41,-121.54 326.06,-112.41 302.78,-105.49"/>
<polygon fill="#63b8ff" stroke="#63b8ff" points="413.09,-140.03 423.64,-139.03 414.77,-133.23 413.09,-140.03"/>
</a>
</g>
</g>
<!-- Node5 -->
<g id="Node000005" class="node">
<title>Node5</title>
<g id="a_Node000005"><a xlink:href="class_code_smile_1_1_editor_1_1_asset_a0e4eef3b828c3805de8639ae1068d55c.html#a0e4eef3b828c3805de8639ae1068d55c" target="_top" xlink:title="Makes a copy of the asset. Will create destination path folders if necessary.">
<polygon fill="white" stroke="#666666" points="147.25,-212 1.5,-212 1.5,-192 147.25,-192 147.25,-212"/>
<text text-anchor="middle" x="74.38" y="-198.5" font-family="Helvetica,sans-Serif" font-size="10.00">CodeSmile.Editor.Asset.Copy</text>
</a>
</g>
</g>
<!-- Node4&#45;&gt;Node5 -->
<g id="edge4_Node000004_Node000005" class="edge">
<title>Node4&#45;&gt;Node5</title>
<g id="a_edge4_Node000004_Node000005"><a xlink:title=" ">
<path fill="none" stroke="#63b8ff" d="M173.38,-199.43C164.71,-199.66 156,-199.89 147.56,-200.11"/>
<polygon fill="#63b8ff" stroke="#63b8ff" points="173.42,-202.9 183.33,-199.14 173.24,-195.91 173.42,-202.9"/>
</a>
</g>
</g>
<!-- Node7 -->
<g id="Node000007" class="node">
<title>Node7</title>
<g id="a_Node000007"><a xlink:href="class_code_smile_1_1_editor_1_1_asset_a4eb9736b74290d8c324d9d1a3fb0796a.html#a4eb9736b74290d8c324d9d1a3fb0796a" target="_top" xlink:title="Returns an instance by creating (saving) the object as an asset file at the given path....">
<polygon fill="white" stroke="#666666" points="148.75,-174 0,-174 0,-154 148.75,-154 148.75,-174"/>
<text text-anchor="middle" x="74.38" y="-160.5" font-family="Helvetica,sans-Serif" font-size="10.00">CodeSmile.Editor.Asset.Asset</text>
</a>
</g>
</g>
<!-- Node6&#45;&gt;Node7 -->
<g id="edge6_Node000006_Node000007" class="edge">
<title>Node6&#45;&gt;Node7</title>
<g id="a_edge6_Node000006_Node000007"><a xlink:title=" ">
<path fill="none" stroke="#63b8ff" d="M184.77,-154.82C172.9,-155.81 160.74,-156.83 149.04,-157.82"/>
<polygon fill="#63b8ff" stroke="#63b8ff" points="184.89,-158.24 194.56,-153.91 184.3,-151.26 184.89,-158.24"/>
</a>
</g>
</g>
<!-- Node8 -->
<g id="Node000008" class="node">
<title>Node8</title>
<g id="a_Node000008"><a xlink:href="class_code_smile_1_1_editor_1_1_asset_1_1_file_aafa3d6fab63beb8b4ea1166456e994b9.html#aafa3d6fab63beb8b4ea1166456e994b9" target="_top" xlink:title="Tries to load the object at path. If it cannot be loaded, it will be created using the Object instanc...">
<polygon fill="white" stroke="#666666" points="145.38,-136 3.38,-136 3.38,-104 145.38,-104 145.38,-136"/>
<text text-anchor="start" x="11.38" y="-122.5" font-family="Helvetica,sans-Serif" font-size="10.00">CodeSmile.Editor.Asset.File.</text>
<text text-anchor="middle" x="74.38" y="-110.5" font-family="Helvetica,sans-Serif" font-size="10.00">LoadOrCreate&lt; T &gt;</text>
</a>
</g>
</g>
<!-- Node6&#45;&gt;Node8 -->
<g id="edge7_Node000006_Node000008" class="edge">
<title>Node6&#45;&gt;Node8</title>
<g id="a_edge7_Node000006_Node000008"><a xlink:title=" ">
<path fill="none" stroke="#63b8ff" d="M184.78,-136.07C171.83,-134.17 158.52,-132.21 145.84,-130.35"/>
<polygon fill="#63b8ff" stroke="#63b8ff" points="184.16,-139.66 194.56,-137.65 185.17,-132.74 184.16,-139.66"/>
</a>
</g>
</g>
<!-- Node10 -->
<g id="Node000010" class="node">
<title>Node10</title>
<g id="a_Node000010"><a xlink:href="class_code_smile_1_1_editor_1_1_asset_a45faf9fc17e3cb57b87d2ae09e4dd7f8.html#a45faf9fc17e3cb57b87d2ae09e4dd7f8" target="_top" xlink:title="Moves asset to destination path. Any non&#45;existing folders in destination path will be created....">
<polygon fill="white" stroke="#666666" points="147.25,-86 1.5,-86 1.5,-66 147.25,-66 147.25,-86"/>
<text text-anchor="middle" x="74.38" y="-72.5" font-family="Helvetica,sans-Serif" font-size="10.00">CodeSmile.Editor.Asset.Move</text>
</a>
</g>
</g>
<!-- Node9&#45;&gt;Node10 -->
<g id="edge9_Node000009_Node000010" class="edge">
<title>Node9&#45;&gt;Node10</title>
<g id="a_edge9_Node000009_Node000010"><a xlink:title=" ">
<path fill="none" stroke="#63b8ff" d="M173.67,-85.8C164.9,-84.92 156.1,-84.05 147.56,-83.19"/>
<polygon fill="#63b8ff" stroke="#63b8ff" points="173.03,-89.35 183.33,-86.86 173.72,-82.38 173.03,-89.35"/>
</a>
</g>
</g>
</g>
</svg>

<g id="navigator" transform="translate(0 0)" fill="#404254">
  <rect fill="#f2f5e9" fill-opacity="0.5" stroke="#606060" stroke-width=".5" x="0" y="0" width="60" height="60"/>
  <use id="zoomplus" xlink:href="#zoomPlus" x="17" y="9" onmousedown="handleZoom(evt,'in')"/>
  <use id="zoomminus" xlink:href="#zoomMin" x="42" y="9" onmousedown="handleZoom(evt,'out')"/>
  <use id="reset" xlink:href="#resetDef" x="30" y="36" onmousedown="handleReset()"/>
   <use id="arrowup" xlink:href="#arrowUp" x="0" y="0" onmousedown="handlePan(0,-1)"/>
  <use id="arrowright" xlink:href="#arrowRight" x="0" y="0" onmousedown="handlePan(1,0)"/>
  <use id="arrowdown" xlink:href="#arrowDown" x="0" y="0" onmousedown="handlePan(0,1)"/>
  <use id="arrowleft" xlink:href="#arrowLeft" x="0" y="0" onmousedown="handlePan(-1,0)"/>
</g>
<svg viewBox="0 0 15 15" width="100%" height="30px" preserveAspectRatio="xMaxYMin meet">
 <g id="arrow_out" transform="scale(0.3 0.3)">
  <a xlink:href="class_code_smile_1_1_editor_1_1_asset_1_1_path_a6bd701a7c06a58ac8ebd39c190df3e61_a6bd701a7c06a58ac8ebd39c190df3e61_icgraph_org.svg" target="_base">
   <rect id="button" ry="5" rx="5" y="6" x="6" height="38" width="38"
        fill="#f2f5e9" fill-opacity="0.5" stroke="#606060" stroke-width="1.0"/>
   <path id="arrow"
     d="M 11.500037,31.436501 C 11.940474,20.09759 22.043105,11.32322 32.158766,21.979434 L 37.068811,17.246167 C 37.068811,17.246167 37.088388,32 37.088388,32 L 22.160133,31.978069 C 22.160133,31.978069 26.997745,27.140456 26.997745,27.140456 C 18.528582,18.264221 13.291696,25.230495 11.500037,31.436501 z"
     style="fill:#404040;"/>
  </a>
 </g>
</svg>

<style type='text/css'>
<![CDATA[
[data-mouse-over-selected='false'] { opacity: 0.7; }
[data-mouse-over-selected='true']  { opacity: 1.0; }
]]>
</style>
<script type="application/ecmascript"><![CDATA[
document.addEventListener('DOMContentLoaded', (event) => {
  highlightEdges();
  highlightAdjacentNodes();
});
]]></script>
</svg>
