<?xml version="1.0" encoding="UTF-8" standalone="no"?>
<!DOCTYPE svg PUBLIC "-//W3C//DTD SVG 1.1//EN"
 "http://www.w3.org/Graphics/SVG/1.1/DTD/svg11.dtd">
<!-- Generated by graphviz version 8.0.5 (20230430.1635)
 -->
<!-- Title: SetActiveImporterToDefault Pages: 1 -->
<svg width="339pt" height="90pt"
 viewBox="0.00 0.00 338.50 90.00" xmlns="http://www.w3.org/2000/svg" xmlns:xlink="http://www.w3.org/1999/xlink">
<g id="graph0" class="graph" transform="scale(1 1) rotate(0) translate(4 86)">
<title>SetActiveImporterToDefault</title>
<!-- Node1 -->
<g id="Node000001" class="node">
<title>Node1</title>
<g id="a_Node000001"><a xlink:title="Sets the active AssetImporter type back to the default type.">
<polygon fill="#999999" stroke="#666666" points="133,-51 0,-51 0,-31 133,-31 133,-51"/>
<text text-anchor="middle" x="66.5" y="-37.5" font-family="Helvetica,sans-Serif" font-size="10.00">SetActiveImporterToDefault</text>
</a>
</g>
</g>
<!-- Node2 -->
<g id="Node000002" class="node">
<title>Node2</title>
<g id="a_Node000002"><a xlink:href="class_code_smile_1_1_editor_1_1_asset_1_1_importer_a6fed2633e603f30a65ff02dedadf557a.html#a6fed2633e603f30a65ff02dedadf557a" target="_top" xlink:title="Clears an asset&#39;s importer override for the specified asset.">
<polygon fill="white" stroke="#666666" points="330.5,-82 169,-82 169,-50 330.5,-50 330.5,-82"/>
<text text-anchor="start" x="177" y="-68.5" font-family="Helvetica,sans-Serif" font-size="10.00">CodeSmile.Editor.Asset.Importer.</text>
<text text-anchor="middle" x="249.75" y="-56.5" font-family="Helvetica,sans-Serif" font-size="10.00">ClearOverride</text>
</a>
</g>
</g>
<!-- Node1&#45;&gt;Node2 -->
<g id="edge1_Node000001_Node000002" class="edge">
<title>Node1&#45;&gt;Node2</title>
<g id="a_edge1_Node000001_Node000002"><a xlink:title=" ">
<path fill="none" stroke="#63b8ff" d="M133.45,-50.1C141.4,-51.19 149.63,-52.33 157.86,-53.46"/>
<polygon fill="#63b8ff" stroke="#63b8ff" points="157.27,-57.05 167.66,-54.95 158.23,-50.12 157.27,-57.05"/>
</a>
</g>
</g>
<!-- Node3 -->
<g id="Node000003" class="node">
<title>Node3</title>
<g id="a_Node000003"><a xlink:href="class_code_smile_1_1_editor_1_1_asset_1_1_importer_aed500f5c8bd8afe9c414b6e94d64c270.html#aed500f5c8bd8afe9c414b6e94d64c270" target="_top" xlink:title="Returns true if the AssetImporter type for this asset has been overridden.">
<polygon fill="white" stroke="#666666" points="330.5,-32 169,-32 169,0 330.5,0 330.5,-32"/>
<text text-anchor="start" x="177" y="-18.5" font-family="Helvetica,sans-Serif" font-size="10.00">CodeSmile.Editor.Asset.Importer.</text>
<text text-anchor="middle" x="249.75" y="-6.5" font-family="Helvetica,sans-Serif" font-size="10.00">IsOverridden</text>
</a>
</g>
</g>
<!-- Node1&#45;&gt;Node3 -->
<g id="edge2_Node000001_Node000003" class="edge">
<title>Node1&#45;&gt;Node3</title>
<g id="a_edge2_Node000001_Node000003"><a xlink:title=" ">
<path fill="none" stroke="#63b8ff" d="M133.45,-31.9C141.4,-30.81 149.63,-29.67 157.86,-28.54"/>
<polygon fill="#63b8ff" stroke="#63b8ff" points="158.23,-31.88 167.66,-27.05 157.27,-24.95 158.23,-31.88"/>
</a>
</g>
</g>
</g>
</svg>
