<?xml version="1.0" encoding="UTF-8" standalone="no"?>
<!DOCTYPE svg PUBLIC "-//W3C//DTD SVG 1.1//EN"
 "http://www.w3.org/Graphics/SVG/1.1/DTD/svg11.dtd">
<!-- Generated by graphviz version 9.0.0 (20230911.1827)
 -->
<!-- Title: Asset.Database Pages: 1 -->
<svg width="152pt" height="256pt"
 viewBox="0.00 0.00 152.00 256.00" xmlns="http://www.w3.org/2000/svg" xmlns:xlink="http://www.w3.org/1999/xlink">
<g id="graph0" class="graph" transform="scale(1 1) rotate(0) translate(4 252)">
<title>Asset.Database</title>
<!-- Node1 -->
<g id="Node000001" class="node">
<title>Node1</title>
<g id="a_Node000001"><a xlink:title="Groups all asset database functionality.">
<polygon fill="#999999" stroke="none" points="144,-248 0,-248 0,0 144,0 144,-248"/>
<text text-anchor="start" x="37.12" y="-234.5" font-family="Helvetica,sans-Serif" font-size="10.00">Asset.Database</text>
<text text-anchor="start" x="4" y="-218.5" font-family="Helvetica,sans-Serif" font-size="10.00">+</text>
<text text-anchor="start" x="14" y="-218.5" font-family="Helvetica,sans-Serif" font-size="10.00">DesiredWorkerCount</text>
<text text-anchor="start" x="4" y="-202.5" font-family="Helvetica,sans-Serif" font-size="10.00">+</text>
<text text-anchor="start" x="14" y="-202.5" font-family="Helvetica,sans-Serif" font-size="10.00">DirectoryMonitoring</text>
<text text-anchor="start" x="4" y="-186.5" font-family="Helvetica,sans-Serif" font-size="10.00">+</text>
<text text-anchor="start" x="14" y="-186.5" font-family="Helvetica,sans-Serif" font-size="10.00">AllowAutoRefresh()</text>
<text text-anchor="start" x="4" y="-170.5" font-family="Helvetica,sans-Serif" font-size="10.00">+</text>
<text text-anchor="start" x="14" y="-170.5" font-family="Helvetica,sans-Serif" font-size="10.00">Contains()</text>
<text text-anchor="start" x="4" y="-154.5" font-family="Helvetica,sans-Serif" font-size="10.00">+</text>
<text text-anchor="start" x="14" y="-154.5" font-family="Helvetica,sans-Serif" font-size="10.00">Contains()</text>
<text text-anchor="start" x="4" y="-138.5" font-family="Helvetica,sans-Serif" font-size="10.00">+</text>
<text text-anchor="start" x="14" y="-138.5" font-family="Helvetica,sans-Serif" font-size="10.00">DisallowAutoRefresh()</text>
<text text-anchor="start" x="4" y="-122.5" font-family="Helvetica,sans-Serif" font-size="10.00">+</text>
<text text-anchor="start" x="14" y="-122.5" font-family="Helvetica,sans-Serif" font-size="10.00">ImportAll()</text>
<text text-anchor="start" x="4" y="-106.5" font-family="Helvetica,sans-Serif" font-size="10.00">+</text>
<text text-anchor="start" x="14" y="-106.5" font-family="Helvetica,sans-Serif" font-size="10.00">ReleaseFileHandles()</text>
<text text-anchor="start" x="4" y="-90.5" font-family="Helvetica,sans-Serif" font-size="10.00">+</text>
<text text-anchor="start" x="14" y="-90.5" font-family="Helvetica,sans-Serif" font-size="10.00">SaveAll()</text>
<text text-anchor="start" x="4" y="-74.5" font-family="Helvetica,sans-Serif" font-size="10.00">+</text>
<text text-anchor="start" x="14" y="-74.5" font-family="Helvetica,sans-Serif" font-size="10.00">UpgradeAllAssetSerialization</text>
<text text-anchor="start" x="14" y="-62.5" font-family="Helvetica,sans-Serif" font-size="10.00">Versions()</text>
<text text-anchor="start" x="4" y="-46.5" font-family="Helvetica,sans-Serif" font-size="10.00">+</text>
<text text-anchor="start" x="14" y="-46.5" font-family="Helvetica,sans-Serif" font-size="10.00">UpgradeAssetSerialization</text>
<text text-anchor="start" x="14" y="-34.5" font-family="Helvetica,sans-Serif" font-size="10.00">Version()</text>
<text text-anchor="start" x="4" y="-18.5" font-family="Helvetica,sans-Serif" font-size="10.00">+</text>
<text text-anchor="start" x="14" y="-18.5" font-family="Helvetica,sans-Serif" font-size="10.00">UpgradeAssetSerialization</text>
<text text-anchor="start" x="14" y="-6.5" font-family="Helvetica,sans-Serif" font-size="10.00">Version()</text>
<polygon fill="#666666" stroke="#666666" points="0,-230 0,-230 144,-230 144,-230 0,-230"/>
<polygon fill="#666666" stroke="#666666" points="0,-198 0,-198 12,-198 12,-198 0,-198"/>
<polygon fill="#666666" stroke="#666666" points="12,-198 12,-198 144,-198 144,-198 12,-198"/>
<polygon fill="none" stroke="#666666" points="0,0 0,-248 144,-248 144,0 0,0"/>
</a>
</g>
</g>
</g>
</svg>
