<?xml version="1.0" encoding="UTF-8" standalone="no"?>
<!DOCTYPE svg PUBLIC "-//W3C//DTD SVG 1.1//EN"
 "http://www.w3.org/Graphics/SVG/1.1/DTD/svg11.dtd">
<!-- Generated by graphviz version 8.0.5 (20230430.1635)
 -->
<!-- Title: Asset.Path Pages: 1 -->
<svg width="220pt" height="660pt"
 viewBox="0.00 0.00 219.50 660.00" xmlns="http://www.w3.org/2000/svg" xmlns:xlink="http://www.w3.org/1999/xlink">
<g id="graph0" class="graph" transform="scale(1 1) rotate(0) translate(4 656)">
<title>Asset.Path</title>
<!-- Node1 -->
<g id="Node000001" class="node">
<title>Node1</title>
<g id="a_Node000001"><a xlink:title="Represents a relative path to an asset file or folder, typically under &#39;Assets&#39; or &#39;Packages&#39;.">
<polygon fill="#999999" stroke="none" points="172,-564 36,-564 36,0 172,0 172,-564"/>
<text text-anchor="start" x="79.62" y="-550.5" font-family="Helvetica,sans-Serif" font-size="10.00">Asset.Path</text>
<text text-anchor="start" x="40" y="-534.5" font-family="Helvetica,sans-Serif" font-size="10.00">+</text>
<text text-anchor="start" x="50" y="-534.5" font-family="Helvetica,sans-Serif" font-size="10.00">AssetPath</text>
<text text-anchor="start" x="40" y="-518.5" font-family="Helvetica,sans-Serif" font-size="10.00">+</text>
<text text-anchor="start" x="50" y="-518.5" font-family="Helvetica,sans-Serif" font-size="10.00">Exists</text>
<text text-anchor="start" x="40" y="-502.5" font-family="Helvetica,sans-Serif" font-size="10.00">+</text>
<text text-anchor="start" x="50" y="-502.5" font-family="Helvetica,sans-Serif" font-size="10.00">ExistsInFileSystem</text>
<text text-anchor="start" x="40" y="-486.5" font-family="Helvetica,sans-Serif" font-size="10.00">+</text>
<text text-anchor="start" x="50" y="-486.5" font-family="Helvetica,sans-Serif" font-size="10.00">Extension</text>
<text text-anchor="start" x="40" y="-470.5" font-family="Helvetica,sans-Serif" font-size="10.00">+</text>
<text text-anchor="start" x="50" y="-470.5" font-family="Helvetica,sans-Serif" font-size="10.00">FileName</text>
<text text-anchor="start" x="40" y="-454.5" font-family="Helvetica,sans-Serif" font-size="10.00">+</text>
<text text-anchor="start" x="50" y="-454.5" font-family="Helvetica,sans-Serif" font-size="10.00">FileNameWithoutExtension</text>
<text text-anchor="start" x="40" y="-438.5" font-family="Helvetica,sans-Serif" font-size="10.00">+</text>
<text text-anchor="start" x="50" y="-438.5" font-family="Helvetica,sans-Serif" font-size="10.00">FolderPath</text>
<text text-anchor="start" x="40" y="-422.5" font-family="Helvetica,sans-Serif" font-size="10.00">+</text>
<text text-anchor="start" x="50" y="-422.5" font-family="Helvetica,sans-Serif" font-size="10.00">FullAssetsPath</text>
<text text-anchor="start" x="40" y="-406.5" font-family="Helvetica,sans-Serif" font-size="10.00">+</text>
<text text-anchor="start" x="50" y="-406.5" font-family="Helvetica,sans-Serif" font-size="10.00">FullLibraryPath</text>
<text text-anchor="start" x="40" y="-390.5" font-family="Helvetica,sans-Serif" font-size="10.00">+</text>
<text text-anchor="start" x="50" y="-390.5" font-family="Helvetica,sans-Serif" font-size="10.00">FullLogsPath</text>
<text text-anchor="start" x="50" y="-374.5" font-family="Helvetica,sans-Serif" font-size="10.00">and 10 more...</text>
<text text-anchor="start" x="40" y="-358.5" font-family="Helvetica,sans-Serif" font-size="10.00">+</text>
<text text-anchor="start" x="50" y="-358.5" font-family="Helvetica,sans-Serif" font-size="10.00">Path()</text>
<text text-anchor="start" x="40" y="-342.5" font-family="Helvetica,sans-Serif" font-size="10.00">+</text>
<text text-anchor="start" x="50" y="-342.5" font-family="Helvetica,sans-Serif" font-size="10.00">Path()</text>
<text text-anchor="start" x="40" y="-326.5" font-family="Helvetica,sans-Serif" font-size="10.00">+</text>
<text text-anchor="start" x="50" y="-326.5" font-family="Helvetica,sans-Serif" font-size="10.00">Path()</text>
<text text-anchor="start" x="40" y="-310.5" font-family="Helvetica,sans-Serif" font-size="10.00">+</text>
<text text-anchor="start" x="50" y="-310.5" font-family="Helvetica,sans-Serif" font-size="10.00">CreateFolders()</text>
<text text-anchor="start" x="40" y="-294.5" font-family="Helvetica,sans-Serif" font-size="10.00">+</text>
<text text-anchor="start" x="50" y="-294.5" font-family="Helvetica,sans-Serif" font-size="10.00">Equals()</text>
<text text-anchor="start" x="40" y="-278.5" font-family="Helvetica,sans-Serif" font-size="10.00">+</text>
<text text-anchor="start" x="50" y="-278.5" font-family="Helvetica,sans-Serif" font-size="10.00">Equals()</text>
<text text-anchor="start" x="40" y="-262.5" font-family="Helvetica,sans-Serif" font-size="10.00">+</text>
<text text-anchor="start" x="50" y="-262.5" font-family="Helvetica,sans-Serif" font-size="10.00">Equals()</text>
<text text-anchor="start" x="40" y="-246.5" font-family="Helvetica,sans-Serif" font-size="10.00">+</text>
<text text-anchor="start" x="50" y="-246.5" font-family="Helvetica,sans-Serif" font-size="10.00">GetHashCode()</text>
<text text-anchor="start" x="40" y="-230.5" font-family="Helvetica,sans-Serif" font-size="10.00">+</text>
<text text-anchor="start" x="50" y="-230.5" font-family="Helvetica,sans-Serif" font-size="10.00">OpenExternal()</text>
<text text-anchor="start" x="40" y="-214.5" font-family="Helvetica,sans-Serif" font-size="10.00">+</text>
<text text-anchor="start" x="50" y="-214.5" font-family="Helvetica,sans-Serif" font-size="10.00">Rename()</text>
<text text-anchor="start" x="40" y="-198.5" font-family="Helvetica,sans-Serif" font-size="10.00">+</text>
<text text-anchor="start" x="50" y="-198.5" font-family="Helvetica,sans-Serif" font-size="10.00">ToString()</text>
<text text-anchor="start" x="40" y="-182.5" font-family="Helvetica,sans-Serif" font-size="10.00">+</text>
<text text-anchor="start" x="50" y="-182.5" font-family="Helvetica,sans-Serif" font-size="10.00">CreateFolders()</text>
<text text-anchor="start" x="40" y="-166.5" font-family="Helvetica,sans-Serif" font-size="10.00">+</text>
<text text-anchor="start" x="50" y="-166.5" font-family="Helvetica,sans-Serif" font-size="10.00">FileExists()</text>
<text text-anchor="start" x="40" y="-150.5" font-family="Helvetica,sans-Serif" font-size="10.00">+</text>
<text text-anchor="start" x="50" y="-150.5" font-family="Helvetica,sans-Serif" font-size="10.00">FolderExists()</text>
<text text-anchor="start" x="40" y="-134.5" font-family="Helvetica,sans-Serif" font-size="10.00">+</text>
<text text-anchor="start" x="50" y="-134.5" font-family="Helvetica,sans-Serif" font-size="10.00">FromMeta()</text>
<text text-anchor="start" x="40" y="-118.5" font-family="Helvetica,sans-Serif" font-size="10.00">+</text>
<text text-anchor="start" x="50" y="-118.5" font-family="Helvetica,sans-Serif" font-size="10.00">Get()</text>
<text text-anchor="start" x="40" y="-102.5" font-family="Helvetica,sans-Serif" font-size="10.00">+</text>
<text text-anchor="start" x="50" y="-102.5" font-family="Helvetica,sans-Serif" font-size="10.00">Get()</text>
<text text-anchor="start" x="40" y="-86.5" font-family="Helvetica,sans-Serif" font-size="10.00">+</text>
<text text-anchor="start" x="50" y="-86.5" font-family="Helvetica,sans-Serif" font-size="10.00">Get()</text>
<text text-anchor="start" x="40" y="-70.5" font-family="Helvetica,sans-Serif" font-size="10.00">+</text>
<text text-anchor="start" x="50" y="-70.5" font-family="Helvetica,sans-Serif" font-size="10.00">GetGuid()</text>
<text text-anchor="start" x="40" y="-54.5" font-family="Helvetica,sans-Serif" font-size="10.00">+</text>
<text text-anchor="start" x="50" y="-54.5" font-family="Helvetica,sans-Serif" font-size="10.00">GetScene()</text>
<text text-anchor="start" x="40" y="-38.5" font-family="Helvetica,sans-Serif" font-size="10.00">+</text>
<text text-anchor="start" x="50" y="-38.5" font-family="Helvetica,sans-Serif" font-size="10.00">GetSubFolders()</text>
<text text-anchor="start" x="50" y="-22.5" font-family="Helvetica,sans-Serif" font-size="10.00">and 12 more...</text>
<text text-anchor="start" x="40" y="-6.5" font-family="Helvetica,sans-Serif" font-size="10.00">~</text>
<text text-anchor="start" x="50" y="-6.5" font-family="Helvetica,sans-Serif" font-size="10.00">UniquifyAsNeeded()</text>
<polygon fill="#666666" stroke="#666666" points="36,-546 36,-546 172,-546 172,-546 36,-546"/>
<polygon fill="#666666" stroke="#666666" points="36,-370 36,-370 48,-370 48,-370 36,-370"/>
<polygon fill="#666666" stroke="#666666" points="48,-370 48,-370 172,-370 172,-370 48,-370"/>
<polygon fill="none" stroke="#666666" points="36,0 36,-564 172,-564 172,0 36,0"/>
</a>
</g>
</g>
<!-- Node2 -->
<g id="Node000002" class="node">
<title>Node2</title>
<g id="a_Node000002"><a xlink:title=" ">
<polygon fill="white" stroke="none" points="94,-652 0,-652 0,-600 94,-600 94,-652"/>
<text text-anchor="start" x="5" y="-638.5" font-family="Helvetica,sans-Serif" font-size="10.00">IEquatable&lt; Path &gt;</text>
<text text-anchor="start" x="45.5" y="-622.5" font-family="Helvetica,sans-Serif" font-size="10.00"> </text>
<text text-anchor="start" x="45.5" y="-606.5" font-family="Helvetica,sans-Serif" font-size="10.00"> </text>
<polygon fill="#bfbfbf" stroke="#bfbfbf" points="0,-634 0,-634 94,-634 94,-634 0,-634"/>
<polygon fill="#bfbfbf" stroke="#bfbfbf" points="0,-618 0,-618 94,-618 94,-618 0,-618"/>
<polygon fill="none" stroke="#bfbfbf" points="0,-600 0,-652 94,-652 94,-600 0,-600"/>
</a>
</g>
</g>
<!-- Node2&#45;&gt;Node1 -->
<g id="edge1_Node000001_Node000002" class="edge">
<title>Node2&#45;&gt;Node1</title>
<g id="a_edge1_Node000001_Node000002"><a xlink:title=" ">
<path fill="none" stroke="#63b8ff" d="M52.93,-589.4C54.2,-581.81 55.63,-573.24 57.18,-563.91"/>
<polygon fill="none" stroke="#63b8ff" points="49.34,-588.69 51.15,-599.13 56.24,-589.84 49.34,-588.69"/>
</a>
</g>
</g>
<!-- Node3 -->
<g id="Node000003" class="node">
<title>Node3</title>
<g id="a_Node000003"><a xlink:title=" ">
<polygon fill="white" stroke="none" points="211.5,-652 112.5,-652 112.5,-600 211.5,-600 211.5,-652"/>
<text text-anchor="start" x="117.38" y="-638.5" font-family="Helvetica,sans-Serif" font-size="10.00">IEquatable&lt; String &gt;</text>
<text text-anchor="start" x="160.5" y="-622.5" font-family="Helvetica,sans-Serif" font-size="10.00"> </text>
<text text-anchor="start" x="160.5" y="-606.5" font-family="Helvetica,sans-Serif" font-size="10.00"> </text>
<polygon fill="#bfbfbf" stroke="#bfbfbf" points="112.5,-634 112.5,-634 211.5,-634 211.5,-634 112.5,-634"/>
<polygon fill="#bfbfbf" stroke="#bfbfbf" points="112.5,-618 112.5,-618 211.5,-618 211.5,-618 112.5,-618"/>
<polygon fill="none" stroke="#bfbfbf" points="112.5,-600 112.5,-652 211.5,-652 211.5,-600 112.5,-600"/>
</a>
</g>
</g>
<!-- Node3&#45;&gt;Node1 -->
<g id="edge2_Node000001_Node000003" class="edge">
<title>Node3&#45;&gt;Node1</title>
<g id="a_edge2_Node000001_Node000003"><a xlink:title=" ">
<path fill="none" stroke="#63b8ff" d="M155.96,-589.4C154.68,-581.81 153.22,-573.24 151.64,-563.91"/>
<polygon fill="none" stroke="#63b8ff" points="152.66,-589.85 157.78,-599.13 159.56,-588.68 152.66,-589.85"/>
</a>
</g>
</g>
</g>
</svg>
