<?xml version="1.0" encoding="UTF-8" standalone="no"?>
<!DOCTYPE svg PUBLIC "-//W3C//DTD SVG 1.1//EN"
 "http://www.w3.org/Graphics/SVG/1.1/DTD/svg11.dtd">
<!-- Generated by graphviz version 8.0.5 (20230430.1635)
 -->
<!-- Title: ToStrings Pages: 1 -->
<svg width="269pt" height="58pt"
 viewBox="0.00 0.00 268.75 58.00" xmlns="http://www.w3.org/2000/svg" xmlns:xlink="http://www.w3.org/1999/xlink">
<g id="graph0" class="graph" transform="scale(1 1) rotate(0) translate(4 54)">
<title>ToStrings</title>
<!-- Node1 -->
<g id="Node000001" class="node">
<title>Node1</title>
<g id="a_Node000001"><a xlink:title="Converts a collection of Path instances to a string array.">
<polygon fill="#999999" stroke="#666666" points="260.75,-26 203.5,-26 203.5,-6 260.75,-6 260.75,-26"/>
<text text-anchor="middle" x="232.12" y="-12.5" font-family="Helvetica,sans-Serif" font-size="10.00">ToStrings</text>
</a>
</g>
</g>
<!-- Node2 -->
<g id="Node000002" class="node">
<title>Node2</title>
<g id="a_Node000002"><a xlink:href="class_code_smile_1_1_editor_1_1_asset_1_1_database.html#ac5034822c95937bce27fc0a2ed42e190" target="_top" xlink:title="Forces reserializing the assets as the given paths. This loads the assets, upgrades them to their cur...">
<polygon fill="white" stroke="#666666" points="167.5,-32 0,-32 0,0 167.5,0 167.5,-32"/>
<text text-anchor="start" x="8" y="-18.5" font-family="Helvetica,sans-Serif" font-size="10.00">CodeSmile.Editor.Asset.Database.</text>
<text text-anchor="middle" x="83.75" y="-6.5" font-family="Helvetica,sans-Serif" font-size="10.00">ForceReserialize</text>
</a>
</g>
</g>
<!-- Node1&#45;&gt;Node2 -->
<g id="edge1_Node000001_Node000002" class="edge">
<title>Node1&#45;&gt;Node2</title>
<g id="a_edge1_Node000001_Node000002"><a xlink:title=" ">
<path fill="none" stroke="#63b8ff" d="M192.45,-16C184.72,-16 176.32,-16 167.74,-16"/>
<polygon fill="#63b8ff" stroke="#63b8ff" points="192.25,-19.5 202.25,-16 192.25,-12.5 192.25,-19.5"/>
</a>
</g>
</g>
<!-- Node2&#45;&gt;Node2 -->
<g id="edge2_Node000002_Node000002" class="edge">
<title>Node2&#45;&gt;Node2</title>
<g id="a_edge2_Node000002_Node000002"><a xlink:title=" ">
<path fill="none" stroke="#63b8ff" d="M109.14,-43.05C105.28,-47.19 96.82,-50 83.75,-50 61.15,-50 52.32,-41.58 57.26,-32.44"/>
<polygon fill="#63b8ff" stroke="#63b8ff" points="112.69,-43.75 110.24,-33.44 105.73,-43.03 112.69,-43.75"/>
</a>
</g>
</g>
</g>
</svg>
