<?xml version="1.0" encoding="UTF-8" standalone="no"?>
<!DOCTYPE svg PUBLIC "-//W3C//DTD SVG 1.1//EN"
 "http://www.w3.org/Graphics/SVG/1.1/DTD/svg11.dtd">
<!-- Generated by graphviz version 9.0.0 (20230911.1827)
 -->
<!-- Title: Get Pages: 1 -->
<svg width="229pt" height="254pt"
 viewBox="0.00 0.00 229.00 254.00" xmlns="http://www.w3.org/2000/svg" xmlns:xlink="http://www.w3.org/1999/xlink">

<svg id="main" version="1.1" xmlns="http://www.w3.org/2000/svg" xmlns:xlink="http://www.w3.org/1999/xlink" xml:space="preserve" onload="init(evt)">
<style type="text/css"><![CDATA[
.node, .edge {opacity: 0.7;}
.node.selected, .edge.selected {opacity: 1;}
.edge:hover path { stroke: red; }
.edge:hover polygon { stroke: red; fill: red; }
]]></style>
<script type="application/ecmascript" xlink:href="svg.min.js"/>
<svg id="graph" class="graph">
<g id="graph0" class="graph" transform="scale(1 1) rotate(0) translate(4 250)">
<title>Get</title>
<!-- Node1 -->
<g id="Node000001" class="node">
<title>Node1</title>
<g id="a_Node000001"><a xlink:title="Gets the relative path of an asset.">
<polygon fill="#999999" stroke="#666666" points="221,-139 189.25,-139 189.25,-119 221,-119 221,-139"/>
<text text-anchor="middle" x="205.12" y="-125.5" font-family="Helvetica,sans-Serif" font-size="10.00">Get</text>
</a>
</g>
</g>
<!-- Node2 -->
<g id="Node000002" class="node">
<title>Node2</title>
<g id="a_Node000002"><a xlink:href="class_code_smile_editor_1_1_asset_1_1_path_a3d0d7574b95b19be03fdfd90e6c628e2.html#a3d0d7574b95b19be03fdfd90e6c628e2" target="_top" xlink:title="Creates an asset path from an asset instance.">
<polygon fill="white" stroke="#666666" points="94.75,-246 58.5,-246 58.5,-226 94.75,-226 94.75,-246"/>
<text text-anchor="middle" x="76.62" y="-232.5" font-family="Helvetica,sans-Serif" font-size="10.00">Path</text>
</a>
</g>
</g>
<!-- Node1&#45;&gt;Node2 -->
<g id="edge1_Node000001_Node000002" class="edge">
<title>Node1&#45;&gt;Node2</title>
<g id="a_edge1_Node000001_Node000002"><a xlink:title=" ">
<path fill="none" stroke="#63b8ff" d="M197.38,-150.08C189.83,-170.28 175.64,-200.11 153.25,-217 136.28,-229.8 111.68,-234.05 95.2,-235.42"/>
<polygon fill="#63b8ff" stroke="#63b8ff" points="200.69,-151.24 200.66,-140.64 194.07,-148.94 200.69,-151.24"/>
</a>
</g>
</g>
<!-- Node3 -->
<g id="Node000003" class="node">
<title>Node3</title>
<g id="a_Node000003"><a xlink:href="class_code_smile_editor_1_1_asset_1_1_version_control_a7f6bbb0782e7f7635706b0e0bc921341.html#a7f6bbb0782e7f7635706b0e0bc921341" target="_top" xlink:title="Returns true if the asset can be opened for editing in the version control system.">
<polygon fill="white" stroke="#666666" points="153.25,-208 0,-208 0,-176 153.25,-176 153.25,-208"/>
<text text-anchor="start" x="8" y="-194.5" font-family="Helvetica,sans-Serif" font-size="10.00">CodeSmileEditor.Asset.Version</text>
<text text-anchor="middle" x="76.62" y="-182.5" font-family="Helvetica,sans-Serif" font-size="10.00">Control.CanMakeEditable</text>
</a>
</g>
</g>
<!-- Node1&#45;&gt;Node3 -->
<g id="edge2_Node000001_Node000003" class="edge">
<title>Node1&#45;&gt;Node3</title>
<g id="a_edge2_Node000001_Node000003"><a xlink:title=" ">
<path fill="none" stroke="#63b8ff" d="M183.89,-146.48C174.94,-153.57 164.02,-161.39 153.25,-167 147.24,-170.13 140.76,-172.98 134.21,-175.54"/>
<polygon fill="#63b8ff" stroke="#63b8ff" points="186.05,-149.23 191.55,-140.18 181.61,-143.83 186.05,-149.23"/>
</a>
</g>
</g>
<!-- Node4 -->
<g id="Node000004" class="node">
<title>Node4</title>
<g id="a_Node000004"><a xlink:href="class_code_smile_editor_1_1_asset_1_1_path_aa30592adbaf54202ead85cd483107e55.html#aa30592adbaf54202ead85cd483107e55" target="_top" xlink:title="Creates any missing folders in the path.">
<polygon fill="white" stroke="#666666" points="115,-158 38.25,-158 38.25,-138 115,-138 115,-158"/>
<text text-anchor="middle" x="76.62" y="-144.5" font-family="Helvetica,sans-Serif" font-size="10.00">CreateFolders</text>
</a>
</g>
</g>
<!-- Node1&#45;&gt;Node4 -->
<g id="edge3_Node000001_Node000004" class="edge">
<title>Node1&#45;&gt;Node4</title>
<g id="a_edge3_Node000001_Node000004"><a xlink:title=" ">
<path fill="none" stroke="#63b8ff" d="M177.98,-132.93C159.89,-135.64 135.53,-139.3 115.34,-142.34"/>
<polygon fill="#63b8ff" stroke="#63b8ff" points="178.25,-136.43 187.62,-131.48 177.21,-129.5 178.25,-136.43"/>
</a>
</g>
</g>
<!-- Node5 -->
<g id="Node000005" class="node">
<title>Node5</title>
<g id="a_Node000005"><a xlink:href="class_code_smile_editor_1_1_asset_1_1_path_a7b337848207b6bc5aebde6ae18e18d54.html#a7b337848207b6bc5aebde6ae18e18d54" target="_top" xlink:title="Converts an array of asset instances to their asset paths.">
<polygon fill="white" stroke="#666666" points="92.5,-120 60.75,-120 60.75,-100 92.5,-100 92.5,-120"/>
<text text-anchor="middle" x="76.62" y="-106.5" font-family="Helvetica,sans-Serif" font-size="10.00">Get</text>
</a>
</g>
</g>
<!-- Node1&#45;&gt;Node5 -->
<g id="edge4_Node000001_Node000005" class="edge">
<title>Node1&#45;&gt;Node5</title>
<g id="a_edge4_Node000001_Node000005"><a xlink:title=" ">
<path fill="none" stroke="#63b8ff" d="M177.93,-125.07C152.13,-121.19 113.62,-115.41 92.61,-112.25"/>
<polygon fill="#63b8ff" stroke="#63b8ff" points="177.21,-128.5 187.62,-126.52 178.25,-121.57 177.21,-128.5"/>
</a>
</g>
</g>
<!-- Node6 -->
<g id="Node000006" class="node">
<title>Node6</title>
<g id="a_Node000006"><a xlink:href="class_code_smile_editor_1_1_asset_1_1_file_a82b0bb0beb5f5422951631789bca4256.html#a82b0bb0beb5f5422951631789bca4256" target="_top" xlink:title="Returns the type of the main asset for the GUID.">
<polygon fill="white" stroke="#666666" points="146.12,-82 7.12,-82 7.12,-50 146.12,-50 146.12,-82"/>
<text text-anchor="start" x="15.12" y="-68.5" font-family="Helvetica,sans-Serif" font-size="10.00">CodeSmileEditor.Asset.File.</text>
<text text-anchor="middle" x="76.62" y="-56.5" font-family="Helvetica,sans-Serif" font-size="10.00">GetMainType</text>
</a>
</g>
</g>
<!-- Node1&#45;&gt;Node6 -->
<g id="edge5_Node000001_Node000006" class="edge">
<title>Node1&#45;&gt;Node6</title>
<g id="a_edge5_Node000001_Node000006"><a xlink:title=" ">
<path fill="none" stroke="#63b8ff" d="M183.89,-111.52C174.94,-104.43 164.02,-96.61 153.25,-91 147.24,-87.87 140.76,-85.02 134.21,-82.46"/>
<polygon fill="#63b8ff" stroke="#63b8ff" points="181.61,-114.17 191.55,-117.82 186.05,-108.77 181.61,-114.17"/>
</a>
</g>
</g>
<!-- Node7 -->
<g id="Node000007" class="node">
<title>Node7</title>
<g id="a_Node000007"><a xlink:href="class_code_smile_editor_1_1_asset_1_1_file_a9702d12ef27f2d0dfd1f8201fbb37088.html#a9702d12ef27f2d0dfd1f8201fbb37088" target="_top" xlink:title="Loads the main (root) asset object for the GUID.">
<polygon fill="white" stroke="#666666" points="146.12,-32 7.12,-32 7.12,0 146.12,0 146.12,-32"/>
<text text-anchor="start" x="15.12" y="-18.5" font-family="Helvetica,sans-Serif" font-size="10.00">CodeSmileEditor.Asset.File.</text>
<text text-anchor="middle" x="76.62" y="-6.5" font-family="Helvetica,sans-Serif" font-size="10.00">LoadMain&lt; T &gt;</text>
</a>
</g>
</g>
<!-- Node1&#45;&gt;Node7 -->
<g id="edge6_Node000001_Node000007" class="edge">
<title>Node1&#45;&gt;Node7</title>
<g id="a_edge6_Node000001_Node000007"><a xlink:title=" ">
<path fill="none" stroke="#63b8ff" d="M196.99,-107.95C189.2,-88.02 174.89,-58.61 153.25,-41 149.28,-37.77 144.88,-34.95 140.25,-32.5"/>
<polygon fill="#63b8ff" stroke="#63b8ff" points="193.67,-109.07 200.39,-117.27 200.25,-106.67 193.67,-109.07"/>
</a>
</g>
</g>
</g>
</svg>
</svg>

<style type='text/css'>
<![CDATA[
[data-mouse-over-selected='false'] { opacity: 0.7; }
[data-mouse-over-selected='true']  { opacity: 1.0; }
]]>
</style>
<script type="application/ecmascript"><![CDATA[
document.addEventListener('DOMContentLoaded', (event) => {
  highlightEdges();
  highlightAdjacentNodes();
});
]]></script>
</svg>
