<?xml version="1.0" encoding="UTF-8" standalone="no"?>
<!DOCTYPE svg PUBLIC "-//W3C//DTD SVG 1.1//EN"
 "http://www.w3.org/Graphics/SVG/1.1/DTD/svg11.dtd">
<!-- Generated by graphviz version 8.0.5 (20230430.1635)
 -->
<!-- Title: Copy Pages: 1 -->
<svg width="628pt" height="128pt"
 viewBox="0.00 0.00 627.75 128.00" xmlns="http://www.w3.org/2000/svg" xmlns:xlink="http://www.w3.org/1999/xlink">
<g id="graph0" class="graph" transform="scale(1 1) rotate(0) translate(4 124)">
<title>Copy</title>
<!-- Node1 -->
<g id="Node000001" class="node">
<title>Node1</title>
<g id="a_Node000001"><a xlink:title="Makes a copy of the asset. Will create destination path folders if necessary.">
<polygon fill="#999999" stroke="#666666" points="38.5,-64 0,-64 0,-44 38.5,-44 38.5,-64"/>
<text text-anchor="middle" x="19.25" y="-50.5" font-family="Helvetica,sans-Serif" font-size="10.00">Copy</text>
</a>
</g>
</g>
<!-- Node2 -->
<g id="Node000002" class="node">
<title>Node2</title>
<g id="a_Node000002"><a xlink:href="class_code_smile_1_1_editor_1_1_asset_1_1_file.html#a613ec8386d2e3f381b8d875cda4f8c33" target="_top" xlink:title="Makes a copy of the source asset and saves it in the destination. Will create destination path folder...">
<polygon fill="white" stroke="#666666" points="239,-64 74.5,-64 74.5,-44 239,-44 239,-64"/>
<text text-anchor="middle" x="156.75" y="-50.5" font-family="Helvetica,sans-Serif" font-size="10.00">CodeSmile.Editor.Asset.File.Copy</text>
</a>
</g>
</g>
<!-- Node1&#45;&gt;Node2 -->
<g id="edge1_Node000001_Node000002" class="edge">
<title>Node1&#45;&gt;Node2</title>
<g id="a_edge1_Node000001_Node000002"><a xlink:title=" ">
<path fill="none" stroke="#63b8ff" d="M38.81,-54C45.74,-54 54.15,-54 63.26,-54"/>
<polygon fill="#63b8ff" stroke="#63b8ff" points="63.23,-57.5 73.23,-54 63.23,-50.5 63.23,-57.5"/>
</a>
</g>
</g>
<!-- Node3 -->
<g id="Node000003" class="node">
<title>Node3</title>
<g id="a_Node000003"><a xlink:href="class_code_smile_1_1_editor_1_1_asset_1_1_path.html#aa5b7d522e7180d8e9943ca3a7f636b72" target="_top" xlink:title="Creates the folders in the path recursively. Path may point to a file, but only folders will be creat...">
<polygon fill="white" stroke="#666666" points="421.5,-70 275,-70 275,-38 421.5,-38 421.5,-70"/>
<text text-anchor="start" x="283" y="-56.5" font-family="Helvetica,sans-Serif" font-size="10.00">CodeSmile.Editor.Asset.Path.</text>
<text text-anchor="middle" x="348.25" y="-44.5" font-family="Helvetica,sans-Serif" font-size="10.00">CreateFolders</text>
</a>
</g>
</g>
<!-- Node2&#45;&gt;Node3 -->
<g id="edge2_Node000002_Node000003" class="edge">
<title>Node2&#45;&gt;Node3</title>
<g id="a_edge2_Node000002_Node000003"><a xlink:title=" ">
<path fill="none" stroke="#63b8ff" d="M239.49,-54C247.55,-54 255.73,-54 263.81,-54"/>
<polygon fill="#63b8ff" stroke="#63b8ff" points="263.73,-57.5 273.73,-54 263.73,-50.5 263.73,-57.5"/>
</a>
</g>
</g>
<!-- Node4 -->
<g id="Node000004" class="node">
<title>Node4</title>
<g id="a_Node000004"><a xlink:href="class_code_smile_1_1_editor_1_1_asset_1_1_path.html#ad6edf57483f25f25967aaf3b5c237cf9" target="_top" xlink:title="Tests if the given file exists.">
<polygon fill="white" stroke="#666666" points="611.88,-120 465.38,-120 465.38,-88 611.88,-88 611.88,-120"/>
<text text-anchor="start" x="473.38" y="-106.5" font-family="Helvetica,sans-Serif" font-size="10.00">CodeSmile.Editor.Asset.Path.</text>
<text text-anchor="middle" x="538.62" y="-94.5" font-family="Helvetica,sans-Serif" font-size="10.00">FileExists</text>
</a>
</g>
</g>
<!-- Node3&#45;&gt;Node4 -->
<g id="edge3_Node000003_Node000004" class="edge">
<title>Node3&#45;&gt;Node4</title>
<g id="a_edge3_Node000003_Node000004"><a xlink:title=" ">
<path fill="none" stroke="#63b8ff" d="M411.19,-70.44C428.41,-75.01 447.27,-80.02 465.04,-84.73"/>
<polygon fill="#63b8ff" stroke="#63b8ff" points="464.08,-88.37 474.65,-87.55 465.88,-81.6 464.08,-88.37"/>
</a>
</g>
</g>
<!-- Node5 -->
<g id="Node000005" class="node">
<title>Node5</title>
<g id="a_Node000005"><a xlink:href="class_code_smile_1_1_editor_1_1_asset_1_1_path.html#a1702f388229f26cb1f4431a1ee8d4a63" target="_top" xlink:title="Returns true if the folder exists. False otherwise, or if the path is to a file.">
<polygon fill="white" stroke="#666666" points="611.88,-70 465.38,-70 465.38,-38 611.88,-38 611.88,-70"/>
<text text-anchor="start" x="473.38" y="-56.5" font-family="Helvetica,sans-Serif" font-size="10.00">CodeSmile.Editor.Asset.Path.</text>
<text text-anchor="middle" x="538.62" y="-44.5" font-family="Helvetica,sans-Serif" font-size="10.00">FolderExists</text>
</a>
</g>
</g>
<!-- Node3&#45;&gt;Node5 -->
<g id="edge4_Node000003_Node000005" class="edge">
<title>Node3&#45;&gt;Node5</title>
<g id="a_edge4_Node000003_Node000005"><a xlink:title=" ">
<path fill="none" stroke="#63b8ff" d="M421.81,-54C432.46,-54 443.5,-54 454.34,-54"/>
<polygon fill="#63b8ff" stroke="#63b8ff" points="454.1,-57.5 464.1,-54 454.1,-50.5 454.1,-57.5"/>
</a>
</g>
</g>
<!-- Node6 -->
<g id="Node000006" class="node">
<title>Node6</title>
<g id="a_Node000006"><a xlink:href="class_code_smile_1_1_editor_1_1_asset_1_1_path.html#a6bd701a7c06a58ac8ebd39c190df3e61" target="_top" xlink:title="Gets the path of an asset file.">
<polygon fill="white" stroke="#666666" points="619.75,-20 457.5,-20 457.5,0 619.75,0 619.75,-20"/>
<text text-anchor="middle" x="538.62" y="-6.5" font-family="Helvetica,sans-Serif" font-size="10.00">CodeSmile.Editor.Asset.Path.Get</text>
</a>
</g>
</g>
<!-- Node3&#45;&gt;Node6 -->
<g id="edge5_Node000003_Node000006" class="edge">
<title>Node3&#45;&gt;Node6</title>
<g id="a_edge5_Node000003_Node000006"><a xlink:title=" ">
<path fill="none" stroke="#63b8ff" d="M419.66,-37.55C440.29,-32.73 462.56,-27.53 482.12,-22.96"/>
<polygon fill="#63b8ff" stroke="#63b8ff" points="482.75,-26.18 491.69,-20.5 481.15,-19.36 482.75,-26.18"/>
</a>
</g>
</g>
</g>
</svg>
