<?xml version="1.0" encoding="UTF-8" standalone="no"?>
<!DOCTYPE svg PUBLIC "-//W3C//DTD SVG 1.1//EN"
 "http://www.w3.org/Graphics/SVG/1.1/DTD/svg11.dtd">
<!-- Generated by graphviz version 8.0.5 (20230430.1635)
 -->
<!-- Title: Asset.Path Pages: 1 -->
<svg width="220pt" height="644pt"
 viewBox="0.00 0.00 219.50 644.00" xmlns="http://www.w3.org/2000/svg" xmlns:xlink="http://www.w3.org/1999/xlink">
<g id="graph0" class="graph" transform="scale(1 1) rotate(0) translate(4 640)">
<title>Asset.Path</title>
<!-- Node1 -->
<g id="Node000001" class="node">
<title>Node1</title>
<g id="a_Node000001"><a xlink:title="Represents a relative path to an asset file or folder, typically under &#39;Assets&#39; or &#39;Packages&#39;.">
<polygon fill="#999999" stroke="none" points="172,-548 36,-548 36,0 172,0 172,-548"/>
<text text-anchor="start" x="79.62" y="-534.5" font-family="Helvetica,sans-Serif" font-size="10.00">Asset.Path</text>
<text text-anchor="start" x="40" y="-518.5" font-family="Helvetica,sans-Serif" font-size="10.00">+</text>
<text text-anchor="start" x="50" y="-518.5" font-family="Helvetica,sans-Serif" font-size="10.00">AssetPath</text>
<text text-anchor="start" x="40" y="-502.5" font-family="Helvetica,sans-Serif" font-size="10.00">+</text>
<text text-anchor="start" x="50" y="-502.5" font-family="Helvetica,sans-Serif" font-size="10.00">Exists</text>
<text text-anchor="start" x="40" y="-486.5" font-family="Helvetica,sans-Serif" font-size="10.00">+</text>
<text text-anchor="start" x="50" y="-486.5" font-family="Helvetica,sans-Serif" font-size="10.00">ExistsInFileSystem</text>
<text text-anchor="start" x="40" y="-470.5" font-family="Helvetica,sans-Serif" font-size="10.00">+</text>
<text text-anchor="start" x="50" y="-470.5" font-family="Helvetica,sans-Serif" font-size="10.00">Extension</text>
<text text-anchor="start" x="40" y="-454.5" font-family="Helvetica,sans-Serif" font-size="10.00">+</text>
<text text-anchor="start" x="50" y="-454.5" font-family="Helvetica,sans-Serif" font-size="10.00">FileName</text>
<text text-anchor="start" x="40" y="-438.5" font-family="Helvetica,sans-Serif" font-size="10.00">+</text>
<text text-anchor="start" x="50" y="-438.5" font-family="Helvetica,sans-Serif" font-size="10.00">FileNameWithoutExtension</text>
<text text-anchor="start" x="40" y="-422.5" font-family="Helvetica,sans-Serif" font-size="10.00">+</text>
<text text-anchor="start" x="50" y="-422.5" font-family="Helvetica,sans-Serif" font-size="10.00">FolderPath</text>
<text text-anchor="start" x="40" y="-406.5" font-family="Helvetica,sans-Serif" font-size="10.00">+</text>
<text text-anchor="start" x="50" y="-406.5" font-family="Helvetica,sans-Serif" font-size="10.00">FullAssetsPath</text>
<text text-anchor="start" x="40" y="-390.5" font-family="Helvetica,sans-Serif" font-size="10.00">+</text>
<text text-anchor="start" x="50" y="-390.5" font-family="Helvetica,sans-Serif" font-size="10.00">FullLibraryPath</text>
<text text-anchor="start" x="40" y="-374.5" font-family="Helvetica,sans-Serif" font-size="10.00">+</text>
<text text-anchor="start" x="50" y="-374.5" font-family="Helvetica,sans-Serif" font-size="10.00">FullLogsPath</text>
<text text-anchor="start" x="50" y="-358.5" font-family="Helvetica,sans-Serif" font-size="10.00">and 10 more...</text>
<text text-anchor="start" x="40" y="-342.5" font-family="Helvetica,sans-Serif" font-size="10.00">+</text>
<text text-anchor="start" x="50" y="-342.5" font-family="Helvetica,sans-Serif" font-size="10.00">Path()</text>
<text text-anchor="start" x="40" y="-326.5" font-family="Helvetica,sans-Serif" font-size="10.00">+</text>
<text text-anchor="start" x="50" y="-326.5" font-family="Helvetica,sans-Serif" font-size="10.00">Path()</text>
<text text-anchor="start" x="40" y="-310.5" font-family="Helvetica,sans-Serif" font-size="10.00">+</text>
<text text-anchor="start" x="50" y="-310.5" font-family="Helvetica,sans-Serif" font-size="10.00">CreateFolders()</text>
<text text-anchor="start" x="40" y="-294.5" font-family="Helvetica,sans-Serif" font-size="10.00">+</text>
<text text-anchor="start" x="50" y="-294.5" font-family="Helvetica,sans-Serif" font-size="10.00">Equals()</text>
<text text-anchor="start" x="40" y="-278.5" font-family="Helvetica,sans-Serif" font-size="10.00">+</text>
<text text-anchor="start" x="50" y="-278.5" font-family="Helvetica,sans-Serif" font-size="10.00">Equals()</text>
<text text-anchor="start" x="40" y="-262.5" font-family="Helvetica,sans-Serif" font-size="10.00">+</text>
<text text-anchor="start" x="50" y="-262.5" font-family="Helvetica,sans-Serif" font-size="10.00">Equals()</text>
<text text-anchor="start" x="40" y="-246.5" font-family="Helvetica,sans-Serif" font-size="10.00">+</text>
<text text-anchor="start" x="50" y="-246.5" font-family="Helvetica,sans-Serif" font-size="10.00">GetHashCode()</text>
<text text-anchor="start" x="40" y="-230.5" font-family="Helvetica,sans-Serif" font-size="10.00">+</text>
<text text-anchor="start" x="50" y="-230.5" font-family="Helvetica,sans-Serif" font-size="10.00">OpenExternal()</text>
<text text-anchor="start" x="40" y="-214.5" font-family="Helvetica,sans-Serif" font-size="10.00">+</text>
<text text-anchor="start" x="50" y="-214.5" font-family="Helvetica,sans-Serif" font-size="10.00">Rename()</text>
<text text-anchor="start" x="40" y="-198.5" font-family="Helvetica,sans-Serif" font-size="10.00">+</text>
<text text-anchor="start" x="50" y="-198.5" font-family="Helvetica,sans-Serif" font-size="10.00">ToString()</text>
<text text-anchor="start" x="40" y="-182.5" font-family="Helvetica,sans-Serif" font-size="10.00">+</text>
<text text-anchor="start" x="50" y="-182.5" font-family="Helvetica,sans-Serif" font-size="10.00">CreateFolders()</text>
<text text-anchor="start" x="40" y="-166.5" font-family="Helvetica,sans-Serif" font-size="10.00">+</text>
<text text-anchor="start" x="50" y="-166.5" font-family="Helvetica,sans-Serif" font-size="10.00">FileExists()</text>
<text text-anchor="start" x="40" y="-150.5" font-family="Helvetica,sans-Serif" font-size="10.00">+</text>
<text text-anchor="start" x="50" y="-150.5" font-family="Helvetica,sans-Serif" font-size="10.00">FolderExists()</text>
<text text-anchor="start" x="40" y="-134.5" font-family="Helvetica,sans-Serif" font-size="10.00">+</text>
<text text-anchor="start" x="50" y="-134.5" font-family="Helvetica,sans-Serif" font-size="10.00">FromMeta()</text>
<text text-anchor="start" x="40" y="-118.5" font-family="Helvetica,sans-Serif" font-size="10.00">+</text>
<text text-anchor="start" x="50" y="-118.5" font-family="Helvetica,sans-Serif" font-size="10.00">Get()</text>
<text text-anchor="start" x="40" y="-102.5" font-family="Helvetica,sans-Serif" font-size="10.00">+</text>
<text text-anchor="start" x="50" y="-102.5" font-family="Helvetica,sans-Serif" font-size="10.00">Get()</text>
<text text-anchor="start" x="40" y="-86.5" font-family="Helvetica,sans-Serif" font-size="10.00">+</text>
<text text-anchor="start" x="50" y="-86.5" font-family="Helvetica,sans-Serif" font-size="10.00">Get()</text>
<text text-anchor="start" x="40" y="-70.5" font-family="Helvetica,sans-Serif" font-size="10.00">+</text>
<text text-anchor="start" x="50" y="-70.5" font-family="Helvetica,sans-Serif" font-size="10.00">GetGuid()</text>
<text text-anchor="start" x="40" y="-54.5" font-family="Helvetica,sans-Serif" font-size="10.00">+</text>
<text text-anchor="start" x="50" y="-54.5" font-family="Helvetica,sans-Serif" font-size="10.00">GetScene()</text>
<text text-anchor="start" x="40" y="-38.5" font-family="Helvetica,sans-Serif" font-size="10.00">+</text>
<text text-anchor="start" x="50" y="-38.5" font-family="Helvetica,sans-Serif" font-size="10.00">GetSubFolders()</text>
<text text-anchor="start" x="50" y="-22.5" font-family="Helvetica,sans-Serif" font-size="10.00">and 12 more...</text>
<text text-anchor="start" x="40" y="-6.5" font-family="Helvetica,sans-Serif" font-size="10.00">~</text>
<text text-anchor="start" x="50" y="-6.5" font-family="Helvetica,sans-Serif" font-size="10.00">UniquifyAsNeeded()</text>
<polygon fill="#666666" stroke="#666666" points="36,-530 36,-530 172,-530 172,-530 36,-530"/>
<polygon fill="#666666" stroke="#666666" points="36,-354 36,-354 48,-354 48,-354 36,-354"/>
<polygon fill="#666666" stroke="#666666" points="48,-354 48,-354 172,-354 172,-354 48,-354"/>
<polygon fill="none" stroke="#666666" points="36,0 36,-548 172,-548 172,0 36,0"/>
</a>
</g>
</g>
<!-- Node2 -->
<g id="Node000002" class="node">
<title>Node2</title>
<g id="a_Node000002"><a xlink:title=" ">
<polygon fill="white" stroke="none" points="94,-636 0,-636 0,-584 94,-584 94,-636"/>
<text text-anchor="start" x="5" y="-622.5" font-family="Helvetica,sans-Serif" font-size="10.00">IEquatable&lt; Path &gt;</text>
<text text-anchor="start" x="45.5" y="-606.5" font-family="Helvetica,sans-Serif" font-size="10.00"> </text>
<text text-anchor="start" x="45.5" y="-590.5" font-family="Helvetica,sans-Serif" font-size="10.00"> </text>
<polygon fill="#bfbfbf" stroke="#bfbfbf" points="0,-618 0,-618 94,-618 94,-618 0,-618"/>
<polygon fill="#bfbfbf" stroke="#bfbfbf" points="0,-602 0,-602 94,-602 94,-602 0,-602"/>
<polygon fill="none" stroke="#bfbfbf" points="0,-584 0,-636 94,-636 94,-584 0,-584"/>
</a>
</g>
</g>
<!-- Node2&#45;&gt;Node1 -->
<g id="edge1_Node000001_Node000002" class="edge">
<title>Node2&#45;&gt;Node1</title>
<g id="a_edge1_Node000001_Node000002"><a xlink:title=" ">
<path fill="none" stroke="#63b8ff" d="M53.08,-573.36C54.39,-565.72 55.86,-557.09 57.46,-547.69"/>
<polygon fill="none" stroke="#63b8ff" points="49.47,-572.72 51.24,-583.17 56.37,-573.9 49.47,-572.72"/>
</a>
</g>
</g>
<!-- Node3 -->
<g id="Node000003" class="node">
<title>Node3</title>
<g id="a_Node000003"><a xlink:title=" ">
<polygon fill="white" stroke="none" points="211.5,-636 112.5,-636 112.5,-584 211.5,-584 211.5,-636"/>
<text text-anchor="start" x="117.38" y="-622.5" font-family="Helvetica,sans-Serif" font-size="10.00">IEquatable&lt; String &gt;</text>
<text text-anchor="start" x="160.5" y="-606.5" font-family="Helvetica,sans-Serif" font-size="10.00"> </text>
<text text-anchor="start" x="160.5" y="-590.5" font-family="Helvetica,sans-Serif" font-size="10.00"> </text>
<polygon fill="#bfbfbf" stroke="#bfbfbf" points="112.5,-618 112.5,-618 211.5,-618 211.5,-618 112.5,-618"/>
<polygon fill="#bfbfbf" stroke="#bfbfbf" points="112.5,-602 112.5,-602 211.5,-602 211.5,-602 112.5,-602"/>
<polygon fill="none" stroke="#bfbfbf" points="112.5,-584 112.5,-636 211.5,-636 211.5,-584 112.5,-584"/>
</a>
</g>
</g>
<!-- Node3&#45;&gt;Node1 -->
<g id="edge2_Node000001_Node000003" class="edge">
<title>Node3&#45;&gt;Node1</title>
<g id="a_edge2_Node000001_Node000003"><a xlink:title=" ">
<path fill="none" stroke="#63b8ff" d="M155.81,-573.36C154.48,-565.72 152.98,-557.09 151.35,-547.69"/>
<polygon fill="none" stroke="#63b8ff" points="152.53,-573.91 157.69,-583.17 159.43,-572.72 152.53,-573.91"/>
</a>
</g>
</g>
</g>
</svg>
