<?xml version="1.0" encoding="UTF-8" standalone="no"?>
<!DOCTYPE svg PUBLIC "-//W3C//DTD SVG 1.1//EN"
 "http://www.w3.org/Graphics/SVG/1.1/DTD/svg11.dtd">
<!-- Generated by graphviz version 8.0.5 (20230430.1635)
 -->
<!-- Title: Asset.Path Pages: 1 -->
<!--zoomable 660 -->

<svg id="main" version="1.1" xmlns="http://www.w3.org/2000/svg" xmlns:xlink="http://www.w3.org/1999/xlink" xml:space="preserve" onload="init(evt)">
<style type="text/css"><![CDATA[
.node, .edge {opacity: 0.7;}
.node.selected, .edge.selected {opacity: 1;}
.edge:hover path { stroke: red; }
.edge:hover polygon { stroke: red; fill: red; }
]]></style>

<defs>
  <circle id="rim" cx="0" cy="0" r="7"/>
  <circle id="rim2" cx="0" cy="0" r="3.5"/>
  <g id="zoomPlus">
    <use xlink:href="#rim" fill="#404040"><set attributeName="fill" to="#808080" begin="zoomplus.mouseover" end="zoomplus.mouseout"/></use>
    <path d="M-4,0h8M0,-4v8" fill="none" stroke="white" stroke-width="1.5" pointer-events="none"/>
  </g>
  <g id="zoomMin">
    <use xlink:href="#rim" fill="#404040"><set attributeName="fill" to="#808080" begin="zoomminus.mouseover" end="zoomminus.mouseout"/></use>
    <path d="M-4,0h8" fill="none" stroke="white" stroke-width="1.5" pointer-events="none"/>
  </g>
  <g id="arrowUp" transform="translate(30 24)">
    <use xlink:href="#rim"/>
    <path pointer-events="none" fill="none" stroke="white" stroke-width="1.5" d="M0,-3.0v7 M-2.5,-0.5L0,-3.0L2.5,-0.5"/>
  </g>
  <g id="arrowRight" transform="rotate(90) translate(36 -43)">
    <use xlink:href="#rim"/>
    <path pointer-events="none" fill="none" stroke="white" stroke-width="1.5" d="M0,-3.0v7 M-2.5,-0.5L0,-3.0L2.5,-0.5"/>
  </g>
  <g id="arrowDown" transform="rotate(180) translate(-30 -48)">
    <use xlink:href="#rim"/>
    <path pointer-events="none" fill="none" stroke="white" stroke-width="1.5" d="M0,-3.0v7 M-2.5,-0.5L0,-3.0L2.5,-0.5"/>
  </g>
  <g id="arrowLeft" transform="rotate(270) translate(-36 17)">
    <use xlink:href="#rim"/>
    <path pointer-events="none" fill="none" stroke="white" stroke-width="1.5" d="M0,-3.0v7 M-2.5,-0.5L0,-3.0L2.5,-0.5"/>
  </g>
  <g id="resetDef">
    <use xlink:href="#rim2" fill="#404040"><set attributeName="fill" to="#808080" begin="reset.mouseover" end="reset.mouseout"/></use>
  </g>
</defs>
<script type="application/ecmascript">
var viewWidth = 220;
var viewHeight = 660;
var sectionId = 'dynsection-0';
</script>
<script type="application/ecmascript" xlink:href="svg.min.js"/>
<svg id="graph" class="graph">
<g id="viewport">
<title>Asset.Path</title>
<!-- Node1 -->
<g id="Node000001" class="node">
<title>Node1</title>
<g id="a_Node000001"><a xlink:title="Represents a relative path to an asset file or folder, typically under &#39;Assets&#39; or &#39;Packages&#39;.">
<polygon fill="#999999" stroke="none" points="172,-564 36,-564 36,0 172,0 172,-564"/>
<text text-anchor="start" x="79.62" y="-550.5" font-family="Helvetica,sans-Serif" font-size="10.00">Asset.Path</text>
<text text-anchor="start" x="40" y="-534.5" font-family="Helvetica,sans-Serif" font-size="10.00">+</text>
<text text-anchor="start" x="50" y="-534.5" font-family="Helvetica,sans-Serif" font-size="10.00">AssetPath</text>
<text text-anchor="start" x="40" y="-518.5" font-family="Helvetica,sans-Serif" font-size="10.00">+</text>
<text text-anchor="start" x="50" y="-518.5" font-family="Helvetica,sans-Serif" font-size="10.00">Exists</text>
<text text-anchor="start" x="40" y="-502.5" font-family="Helvetica,sans-Serif" font-size="10.00">+</text>
<text text-anchor="start" x="50" y="-502.5" font-family="Helvetica,sans-Serif" font-size="10.00">ExistsInFileSystem</text>
<text text-anchor="start" x="40" y="-486.5" font-family="Helvetica,sans-Serif" font-size="10.00">+</text>
<text text-anchor="start" x="50" y="-486.5" font-family="Helvetica,sans-Serif" font-size="10.00">Extension</text>
<text text-anchor="start" x="40" y="-470.5" font-family="Helvetica,sans-Serif" font-size="10.00">+</text>
<text text-anchor="start" x="50" y="-470.5" font-family="Helvetica,sans-Serif" font-size="10.00">FileName</text>
<text text-anchor="start" x="40" y="-454.5" font-family="Helvetica,sans-Serif" font-size="10.00">+</text>
<text text-anchor="start" x="50" y="-454.5" font-family="Helvetica,sans-Serif" font-size="10.00">FileNameWithoutExtension</text>
<text text-anchor="start" x="40" y="-438.5" font-family="Helvetica,sans-Serif" font-size="10.00">+</text>
<text text-anchor="start" x="50" y="-438.5" font-family="Helvetica,sans-Serif" font-size="10.00">FolderPath</text>
<text text-anchor="start" x="40" y="-422.5" font-family="Helvetica,sans-Serif" font-size="10.00">+</text>
<text text-anchor="start" x="50" y="-422.5" font-family="Helvetica,sans-Serif" font-size="10.00">FullAssetsPath</text>
<text text-anchor="start" x="40" y="-406.5" font-family="Helvetica,sans-Serif" font-size="10.00">+</text>
<text text-anchor="start" x="50" y="-406.5" font-family="Helvetica,sans-Serif" font-size="10.00">FullLibraryPath</text>
<text text-anchor="start" x="40" y="-390.5" font-family="Helvetica,sans-Serif" font-size="10.00">+</text>
<text text-anchor="start" x="50" y="-390.5" font-family="Helvetica,sans-Serif" font-size="10.00">FullLogsPath</text>
<text text-anchor="start" x="50" y="-374.5" font-family="Helvetica,sans-Serif" font-size="10.00">and 10 more...</text>
<text text-anchor="start" x="40" y="-358.5" font-family="Helvetica,sans-Serif" font-size="10.00">+</text>
<text text-anchor="start" x="50" y="-358.5" font-family="Helvetica,sans-Serif" font-size="10.00">Path()</text>
<text text-anchor="start" x="40" y="-342.5" font-family="Helvetica,sans-Serif" font-size="10.00">+</text>
<text text-anchor="start" x="50" y="-342.5" font-family="Helvetica,sans-Serif" font-size="10.00">Path()</text>
<text text-anchor="start" x="40" y="-326.5" font-family="Helvetica,sans-Serif" font-size="10.00">+</text>
<text text-anchor="start" x="50" y="-326.5" font-family="Helvetica,sans-Serif" font-size="10.00">Path()</text>
<text text-anchor="start" x="40" y="-310.5" font-family="Helvetica,sans-Serif" font-size="10.00">+</text>
<text text-anchor="start" x="50" y="-310.5" font-family="Helvetica,sans-Serif" font-size="10.00">CreateFolders()</text>
<text text-anchor="start" x="40" y="-294.5" font-family="Helvetica,sans-Serif" font-size="10.00">+</text>
<text text-anchor="start" x="50" y="-294.5" font-family="Helvetica,sans-Serif" font-size="10.00">Equals()</text>
<text text-anchor="start" x="40" y="-278.5" font-family="Helvetica,sans-Serif" font-size="10.00">+</text>
<text text-anchor="start" x="50" y="-278.5" font-family="Helvetica,sans-Serif" font-size="10.00">Equals()</text>
<text text-anchor="start" x="40" y="-262.5" font-family="Helvetica,sans-Serif" font-size="10.00">+</text>
<text text-anchor="start" x="50" y="-262.5" font-family="Helvetica,sans-Serif" font-size="10.00">Equals()</text>
<text text-anchor="start" x="40" y="-246.5" font-family="Helvetica,sans-Serif" font-size="10.00">+</text>
<text text-anchor="start" x="50" y="-246.5" font-family="Helvetica,sans-Serif" font-size="10.00">GetHashCode()</text>
<text text-anchor="start" x="40" y="-230.5" font-family="Helvetica,sans-Serif" font-size="10.00">+</text>
<text text-anchor="start" x="50" y="-230.5" font-family="Helvetica,sans-Serif" font-size="10.00">OpenExternal()</text>
<text text-anchor="start" x="40" y="-214.5" font-family="Helvetica,sans-Serif" font-size="10.00">+</text>
<text text-anchor="start" x="50" y="-214.5" font-family="Helvetica,sans-Serif" font-size="10.00">Rename()</text>
<text text-anchor="start" x="40" y="-198.5" font-family="Helvetica,sans-Serif" font-size="10.00">+</text>
<text text-anchor="start" x="50" y="-198.5" font-family="Helvetica,sans-Serif" font-size="10.00">ToString()</text>
<text text-anchor="start" x="40" y="-182.5" font-family="Helvetica,sans-Serif" font-size="10.00">+</text>
<text text-anchor="start" x="50" y="-182.5" font-family="Helvetica,sans-Serif" font-size="10.00">CreateFolders()</text>
<text text-anchor="start" x="40" y="-166.5" font-family="Helvetica,sans-Serif" font-size="10.00">+</text>
<text text-anchor="start" x="50" y="-166.5" font-family="Helvetica,sans-Serif" font-size="10.00">FileExists()</text>
<text text-anchor="start" x="40" y="-150.5" font-family="Helvetica,sans-Serif" font-size="10.00">+</text>
<text text-anchor="start" x="50" y="-150.5" font-family="Helvetica,sans-Serif" font-size="10.00">FolderExists()</text>
<text text-anchor="start" x="40" y="-134.5" font-family="Helvetica,sans-Serif" font-size="10.00">+</text>
<text text-anchor="start" x="50" y="-134.5" font-family="Helvetica,sans-Serif" font-size="10.00">FromMeta()</text>
<text text-anchor="start" x="40" y="-118.5" font-family="Helvetica,sans-Serif" font-size="10.00">+</text>
<text text-anchor="start" x="50" y="-118.5" font-family="Helvetica,sans-Serif" font-size="10.00">Get()</text>
<text text-anchor="start" x="40" y="-102.5" font-family="Helvetica,sans-Serif" font-size="10.00">+</text>
<text text-anchor="start" x="50" y="-102.5" font-family="Helvetica,sans-Serif" font-size="10.00">Get()</text>
<text text-anchor="start" x="40" y="-86.5" font-family="Helvetica,sans-Serif" font-size="10.00">+</text>
<text text-anchor="start" x="50" y="-86.5" font-family="Helvetica,sans-Serif" font-size="10.00">Get()</text>
<text text-anchor="start" x="40" y="-70.5" font-family="Helvetica,sans-Serif" font-size="10.00">+</text>
<text text-anchor="start" x="50" y="-70.5" font-family="Helvetica,sans-Serif" font-size="10.00">GetGuid()</text>
<text text-anchor="start" x="40" y="-54.5" font-family="Helvetica,sans-Serif" font-size="10.00">+</text>
<text text-anchor="start" x="50" y="-54.5" font-family="Helvetica,sans-Serif" font-size="10.00">GetScene()</text>
<text text-anchor="start" x="40" y="-38.5" font-family="Helvetica,sans-Serif" font-size="10.00">+</text>
<text text-anchor="start" x="50" y="-38.5" font-family="Helvetica,sans-Serif" font-size="10.00">GetSubFolders()</text>
<text text-anchor="start" x="50" y="-22.5" font-family="Helvetica,sans-Serif" font-size="10.00">and 12 more...</text>
<text text-anchor="start" x="40" y="-6.5" font-family="Helvetica,sans-Serif" font-size="10.00">~</text>
<text text-anchor="start" x="50" y="-6.5" font-family="Helvetica,sans-Serif" font-size="10.00">UniquifyAsNeeded()</text>
<polygon fill="#666666" stroke="#666666" points="36,-546 36,-546 172,-546 172,-546 36,-546"/>
<polygon fill="#666666" stroke="#666666" points="36,-370 36,-370 48,-370 48,-370 36,-370"/>
<polygon fill="#666666" stroke="#666666" points="48,-370 48,-370 172,-370 172,-370 48,-370"/>
<polygon fill="none" stroke="#666666" points="36,0 36,-564 172,-564 172,0 36,0"/>
</a>
</g>
</g>
<!-- Node2 -->
<g id="Node000002" class="node">
<title>Node2</title>
<g id="a_Node000002"><a xlink:title=" ">
<polygon fill="white" stroke="none" points="94,-652 0,-652 0,-600 94,-600 94,-652"/>
<text text-anchor="start" x="5" y="-638.5" font-family="Helvetica,sans-Serif" font-size="10.00">IEquatable&lt; Path &gt;</text>
<text text-anchor="start" x="45.5" y="-622.5" font-family="Helvetica,sans-Serif" font-size="10.00"> </text>
<text text-anchor="start" x="45.5" y="-606.5" font-family="Helvetica,sans-Serif" font-size="10.00"> </text>
<polygon fill="#bfbfbf" stroke="#bfbfbf" points="0,-634 0,-634 94,-634 94,-634 0,-634"/>
<polygon fill="#bfbfbf" stroke="#bfbfbf" points="0,-618 0,-618 94,-618 94,-618 0,-618"/>
<polygon fill="none" stroke="#bfbfbf" points="0,-600 0,-652 94,-652 94,-600 0,-600"/>
</a>
</g>
</g>
<!-- Node2&#45;&gt;Node1 -->
<g id="edge1_Node000001_Node000002" class="edge">
<title>Node2&#45;&gt;Node1</title>
<g id="a_edge1_Node000001_Node000002"><a xlink:title=" ">
<path fill="none" stroke="#63b8ff" d="M52.93,-589.4C54.2,-581.81 55.63,-573.24 57.18,-563.91"/>
<polygon fill="none" stroke="#63b8ff" points="49.34,-588.69 51.15,-599.13 56.24,-589.84 49.34,-588.69"/>
</a>
</g>
</g>
<!-- Node3 -->
<g id="Node000003" class="node">
<title>Node3</title>
<g id="a_Node000003"><a xlink:title=" ">
<polygon fill="white" stroke="none" points="211.5,-652 112.5,-652 112.5,-600 211.5,-600 211.5,-652"/>
<text text-anchor="start" x="117.38" y="-638.5" font-family="Helvetica,sans-Serif" font-size="10.00">IEquatable&lt; String &gt;</text>
<text text-anchor="start" x="160.5" y="-622.5" font-family="Helvetica,sans-Serif" font-size="10.00"> </text>
<text text-anchor="start" x="160.5" y="-606.5" font-family="Helvetica,sans-Serif" font-size="10.00"> </text>
<polygon fill="#bfbfbf" stroke="#bfbfbf" points="112.5,-634 112.5,-634 211.5,-634 211.5,-634 112.5,-634"/>
<polygon fill="#bfbfbf" stroke="#bfbfbf" points="112.5,-618 112.5,-618 211.5,-618 211.5,-618 112.5,-618"/>
<polygon fill="none" stroke="#bfbfbf" points="112.5,-600 112.5,-652 211.5,-652 211.5,-600 112.5,-600"/>
</a>
</g>
</g>
<!-- Node3&#45;&gt;Node1 -->
<g id="edge2_Node000001_Node000003" class="edge">
<title>Node3&#45;&gt;Node1</title>
<g id="a_edge2_Node000001_Node000003"><a xlink:title=" ">
<path fill="none" stroke="#63b8ff" d="M155.96,-589.4C154.68,-581.81 153.22,-573.24 151.64,-563.91"/>
<polygon fill="none" stroke="#63b8ff" points="152.66,-589.85 157.78,-599.13 159.56,-588.68 152.66,-589.85"/>
</a>
</g>
</g>
</g>
</svg>

<g id="navigator" transform="translate(0 0)" fill="#404254">
  <rect fill="#f2f5e9" fill-opacity="0.5" stroke="#606060" stroke-width=".5" x="0" y="0" width="60" height="60"/>
  <use id="zoomplus" xlink:href="#zoomPlus" x="17" y="9" onmousedown="handleZoom(evt,'in')"/>
  <use id="zoomminus" xlink:href="#zoomMin" x="42" y="9" onmousedown="handleZoom(evt,'out')"/>
  <use id="reset" xlink:href="#resetDef" x="30" y="36" onmousedown="handleReset()"/>
   <use id="arrowup" xlink:href="#arrowUp" x="0" y="0" onmousedown="handlePan(0,-1)"/>
  <use id="arrowright" xlink:href="#arrowRight" x="0" y="0" onmousedown="handlePan(1,0)"/>
  <use id="arrowdown" xlink:href="#arrowDown" x="0" y="0" onmousedown="handlePan(0,1)"/>
  <use id="arrowleft" xlink:href="#arrowLeft" x="0" y="0" onmousedown="handlePan(-1,0)"/>
</g>
<svg viewBox="0 0 15 15" width="100%" height="30px" preserveAspectRatio="xMaxYMin meet">
 <g id="arrow_out" transform="scale(0.3 0.3)">
  <a xlink:href="class_code_smile_editor_1_1_asset_1_1_path__inherit__graph_org.svg" target="_base">
   <rect id="button" ry="5" rx="5" y="6" x="6" height="38" width="38"
        fill="#f2f5e9" fill-opacity="0.5" stroke="#606060" stroke-width="1.0"/>
   <path id="arrow"
     d="M 11.500037,31.436501 C 11.940474,20.09759 22.043105,11.32322 32.158766,21.979434 L 37.068811,17.246167 C 37.068811,17.246167 37.088388,32 37.088388,32 L 22.160133,31.978069 C 22.160133,31.978069 26.997745,27.140456 26.997745,27.140456 C 18.528582,18.264221 13.291696,25.230495 11.500037,31.436501 z"
     style="fill:#404040;"/>
  </a>
 </g>
</svg>

<style type='text/css'>
<![CDATA[
[data-mouse-over-selected='false'] { opacity: 0.7; }
[data-mouse-over-selected='true']  { opacity: 1.0; }
]]>
</style>
<script type="application/ecmascript"><![CDATA[
document.addEventListener('DOMContentLoaded', (event) => {
  highlightEdges();
  highlightAdjacentNodes();
});
]]></script>
</svg>
