<?xml version="1.0" encoding="UTF-8" standalone="no"?>
<!DOCTYPE svg PUBLIC "-//W3C//DTD SVG 1.1//EN"
 "http://www.w3.org/Graphics/SVG/1.1/DTD/svg11.dtd">
<!-- Generated by graphviz version 8.0.5 (20230430.1635)
 -->
<!-- Title: GetMainType Pages: 1 -->
<svg width="277pt" height="66pt"
 viewBox="0.00 0.00 277.00 66.00" xmlns="http://www.w3.org/2000/svg" xmlns:xlink="http://www.w3.org/1999/xlink">
<g id="graph0" class="graph" transform="scale(1 1) rotate(0) translate(4 62)">
<title>GetMainType</title>
<!-- Node1 -->
<g id="Node000001" class="node">
<title>Node1</title>
<g id="a_Node000001"><a xlink:title="Returns the type of the main asset for the GUID.">
<polygon fill="#999999" stroke="#666666" points="73.75,-39 0,-39 0,-19 73.75,-19 73.75,-39"/>
<text text-anchor="middle" x="36.88" y="-25.5" font-family="Helvetica,sans-Serif" font-size="10.00">GetMainType</text>
</a>
</g>
</g>
<!-- Node2 -->
<g id="Node000002" class="node">
<title>Node2</title>
<g id="a_Node000002"><a xlink:href="class_code_smile_editor_1_1_asset_1_1_path_aa3620ff1f8b2c02fc1282284cd7c1df8.html#aa3620ff1f8b2c02fc1282284cd7c1df8" target="_top" xlink:title="Gets the relative path of an asset.">
<polygon fill="white" stroke="#666666" points="269,-58 109.75,-58 109.75,-38 269,-38 269,-58"/>
<text text-anchor="middle" x="189.38" y="-44.5" font-family="Helvetica,sans-Serif" font-size="10.00">CodeSmileEditor.Asset.Path.Get</text>
</a>
</g>
</g>
<!-- Node1&#45;&gt;Node2 -->
<g id="edge1_Node000001_Node000002" class="edge">
<title>Node1&#45;&gt;Node2</title>
<g id="a_edge1_Node000001_Node000002"><a xlink:title=" ">
<path fill="none" stroke="#63b8ff" d="M73.92,-33.55C81.59,-34.52 90.01,-35.58 98.69,-36.68"/>
<polygon fill="#63b8ff" stroke="#63b8ff" points="98.03,-40.25 108.39,-38.03 98.91,-33.3 98.03,-40.25"/>
</a>
</g>
</g>
<!-- Node3 -->
<g id="Node000003" class="node">
<title>Node3</title>
<g id="a_Node000003"><a xlink:href="class_code_smile_editor_1_1_asset_a3192f3d24b4397b10f50ef366ee3feba.html#a3192f3d24b4397b10f50ef366ee3feba" target="_top" xlink:title="Returns the type of the main asset at the path.">
<polygon fill="white" stroke="#666666" points="226.25,-20 152.5,-20 152.5,0 226.25,0 226.25,-20"/>
<text text-anchor="middle" x="189.38" y="-6.5" font-family="Helvetica,sans-Serif" font-size="10.00">GetMainType</text>
</a>
</g>
</g>
<!-- Node1&#45;&gt;Node3 -->
<g id="edge2_Node000001_Node000003" class="edge">
<title>Node1&#45;&gt;Node3</title>
<g id="a_edge2_Node000001_Node000003"><a xlink:title=" ">
<path fill="none" stroke="#63b8ff" d="M73.92,-24.45C94.16,-21.89 119.64,-18.68 141.42,-15.93"/>
<polygon fill="#63b8ff" stroke="#63b8ff" points="141.62,-19.3 151.1,-14.58 140.74,-12.36 141.62,-19.3"/>
</a>
</g>
</g>
</g>
</svg>
