<?xml version="1.0" encoding="UTF-8" standalone="no"?>
<!DOCTYPE svg PUBLIC "-//W3C//DTD SVG 1.1//EN"
 "http://www.w3.org/Graphics/SVG/1.1/DTD/svg11.dtd">
<!-- Generated by graphviz version 8.0.5 (20230430.1635)
 -->
<!-- Title: Asset Pages: 1 -->
<svg width="608pt" height="128pt"
 viewBox="0.00 0.00 608.25 128.00" xmlns="http://www.w3.org/2000/svg" xmlns:xlink="http://www.w3.org/1999/xlink">
<g id="graph0" class="graph" transform="scale(1 1) rotate(0) translate(4 124)">
<title>Asset</title>
<!-- Node1 -->
<g id="Node000001" class="node">
<title>Node1</title>
<g id="a_Node000001"><a xlink:title="Returns an instance by creating (saving) the object as an asset file at the given path....">
<polygon fill="#999999" stroke="#666666" points="41.5,-64 0,-64 0,-44 41.5,-44 41.5,-64"/>
<text text-anchor="middle" x="20.75" y="-50.5" font-family="Helvetica,sans-Serif" font-size="10.00">Asset</text>
</a>
</g>
</g>
<!-- Node2 -->
<g id="Node000002" class="node">
<title>Node2</title>
<g id="a_Node000002"><a xlink:href="class_code_smile_1_1_editor_1_1_asset_1_1_file_aad585cc499d994cd55b2a123674a8a46.html#aad585cc499d994cd55b2a123674a8a46" target="_top" xlink:title="Creates (saves) a new asset file at the target path. Also creates all non&#45;existing folders in the pat...">
<polygon fill="white" stroke="#666666" points="219.5,-70 77.5,-70 77.5,-38 219.5,-38 219.5,-70"/>
<text text-anchor="start" x="85.5" y="-56.5" font-family="Helvetica,sans-Serif" font-size="10.00">CodeSmile.Editor.Asset.File.</text>
<text text-anchor="middle" x="148.5" y="-44.5" font-family="Helvetica,sans-Serif" font-size="10.00">Create</text>
</a>
</g>
</g>
<!-- Node1&#45;&gt;Node2 -->
<g id="edge1_Node000001_Node000002" class="edge">
<title>Node1&#45;&gt;Node2</title>
<g id="a_edge1_Node000001_Node000002"><a xlink:title=" ">
<path fill="none" stroke="#63b8ff" d="M41.95,-54C49.04,-54 57.49,-54 66.49,-54"/>
<polygon fill="#63b8ff" stroke="#63b8ff" points="66.25,-57.5 76.25,-54 66.25,-50.5 66.25,-57.5"/>
</a>
</g>
</g>
<!-- Node3 -->
<g id="Node000003" class="node">
<title>Node3</title>
<g id="a_Node000003"><a xlink:href="class_code_smile_1_1_editor_1_1_asset_1_1_path_aa5b7d522e7180d8e9943ca3a7f636b72.html#aa5b7d522e7180d8e9943ca3a7f636b72" target="_top" xlink:title="Creates the folders in the path recursively. Path may point to a file, but only folders will be creat...">
<polygon fill="white" stroke="#666666" points="402,-70 255.5,-70 255.5,-38 402,-38 402,-70"/>
<text text-anchor="start" x="263.5" y="-56.5" font-family="Helvetica,sans-Serif" font-size="10.00">CodeSmile.Editor.Asset.Path.</text>
<text text-anchor="middle" x="328.75" y="-44.5" font-family="Helvetica,sans-Serif" font-size="10.00">CreateFolders</text>
</a>
</g>
</g>
<!-- Node2&#45;&gt;Node3 -->
<g id="edge2_Node000002_Node000003" class="edge">
<title>Node2&#45;&gt;Node3</title>
<g id="a_edge2_Node000002_Node000003"><a xlink:title=" ">
<path fill="none" stroke="#63b8ff" d="M219.95,-54C227.91,-54 236.08,-54 244.19,-54"/>
<polygon fill="#63b8ff" stroke="#63b8ff" points="244.18,-57.5 254.18,-54 244.18,-50.5 244.18,-57.5"/>
</a>
</g>
</g>
<!-- Node4 -->
<g id="Node000004" class="node">
<title>Node4</title>
<g id="a_Node000004"><a xlink:href="class_code_smile_1_1_editor_1_1_asset_1_1_path_ad6edf57483f25f25967aaf3b5c237cf9.html#ad6edf57483f25f25967aaf3b5c237cf9" target="_top" xlink:title="Tests if the given file exists.">
<polygon fill="white" stroke="#666666" points="592.38,-120 445.88,-120 445.88,-88 592.38,-88 592.38,-120"/>
<text text-anchor="start" x="453.88" y="-106.5" font-family="Helvetica,sans-Serif" font-size="10.00">CodeSmile.Editor.Asset.Path.</text>
<text text-anchor="middle" x="519.12" y="-94.5" font-family="Helvetica,sans-Serif" font-size="10.00">FileExists</text>
</a>
</g>
</g>
<!-- Node3&#45;&gt;Node4 -->
<g id="edge3_Node000003_Node000004" class="edge">
<title>Node3&#45;&gt;Node4</title>
<g id="a_edge3_Node000003_Node000004"><a xlink:title=" ">
<path fill="none" stroke="#63b8ff" d="M391.69,-70.44C408.91,-75.01 427.77,-80.02 445.54,-84.73"/>
<polygon fill="#63b8ff" stroke="#63b8ff" points="444.58,-88.37 455.15,-87.55 446.38,-81.6 444.58,-88.37"/>
</a>
</g>
</g>
<!-- Node5 -->
<g id="Node000005" class="node">
<title>Node5</title>
<g id="a_Node000005"><a xlink:href="class_code_smile_1_1_editor_1_1_asset_1_1_path_a1702f388229f26cb1f4431a1ee8d4a63.html#a1702f388229f26cb1f4431a1ee8d4a63" target="_top" xlink:title="Returns true if the folder exists. False otherwise, or if the path is to a file.">
<polygon fill="white" stroke="#666666" points="592.38,-70 445.88,-70 445.88,-38 592.38,-38 592.38,-70"/>
<text text-anchor="start" x="453.88" y="-56.5" font-family="Helvetica,sans-Serif" font-size="10.00">CodeSmile.Editor.Asset.Path.</text>
<text text-anchor="middle" x="519.12" y="-44.5" font-family="Helvetica,sans-Serif" font-size="10.00">FolderExists</text>
</a>
</g>
</g>
<!-- Node3&#45;&gt;Node5 -->
<g id="edge4_Node000003_Node000005" class="edge">
<title>Node3&#45;&gt;Node5</title>
<g id="a_edge4_Node000003_Node000005"><a xlink:title=" ">
<path fill="none" stroke="#63b8ff" d="M402.31,-54C412.96,-54 424,-54 434.84,-54"/>
<polygon fill="#63b8ff" stroke="#63b8ff" points="434.6,-57.5 444.6,-54 434.6,-50.5 434.6,-57.5"/>
</a>
</g>
</g>
<!-- Node6 -->
<g id="Node000006" class="node">
<title>Node6</title>
<g id="a_Node000006"><a xlink:href="class_code_smile_1_1_editor_1_1_asset_1_1_path_a6bd701a7c06a58ac8ebd39c190df3e61.html#a6bd701a7c06a58ac8ebd39c190df3e61" target="_top" xlink:title="Gets the path of an asset file.">
<polygon fill="white" stroke="#666666" points="600.25,-20 438,-20 438,0 600.25,0 600.25,-20"/>
<text text-anchor="middle" x="519.12" y="-6.5" font-family="Helvetica,sans-Serif" font-size="10.00">CodeSmile.Editor.Asset.Path.Get</text>
</a>
</g>
</g>
<!-- Node3&#45;&gt;Node6 -->
<g id="edge5_Node000003_Node000006" class="edge">
<title>Node3&#45;&gt;Node6</title>
<g id="a_edge5_Node000003_Node000006"><a xlink:title=" ">
<path fill="none" stroke="#63b8ff" d="M400.16,-37.55C420.79,-32.73 443.06,-27.53 462.62,-22.96"/>
<polygon fill="#63b8ff" stroke="#63b8ff" points="463.25,-26.18 472.19,-20.5 461.65,-19.36 463.25,-26.18"/>
</a>
</g>
</g>
</g>
</svg>
