<?xml version="1.0" encoding="UTF-8" standalone="no"?>
<!DOCTYPE svg PUBLIC "-//W3C//DTD SVG 1.1//EN"
 "http://www.w3.org/Graphics/SVG/1.1/DTD/svg11.dtd">
<!-- Generated by graphviz version 8.0.5 (20230430.1635)
 -->
<!-- Title: Get Pages: 1 -->
<svg width="229pt" height="254pt"
 viewBox="0.00 0.00 229.00 254.00" xmlns="http://www.w3.org/2000/svg" xmlns:xlink="http://www.w3.org/1999/xlink">
<g id="graph0" class="graph" transform="scale(1 1) rotate(0) translate(4 250)">
<title>Get</title>
<!-- Node1 -->
<g id="Node000001" class="node">
<title>Node1</title>
<g id="a_Node000001"><a xlink:title="Gets the relative path of an asset.">
<polygon fill="#999999" stroke="#666666" points="221,-139 189.25,-139 189.25,-119 221,-119 221,-139"/>
<text text-anchor="middle" x="205.12" y="-125.5" font-family="Helvetica,sans-Serif" font-size="10.00">Get</text>
</a>
</g>
</g>
<!-- Node2 -->
<g id="Node000002" class="node">
<title>Node2</title>
<g id="a_Node000002"><a xlink:href="class_code_smile_editor_1_1_asset_1_1_path_a3d0d7574b95b19be03fdfd90e6c628e2.html#a3d0d7574b95b19be03fdfd90e6c628e2" target="_top" xlink:title="Creates an asset path from an asset instance.">
<polygon fill="white" stroke="#666666" points="94.75,-246 58.5,-246 58.5,-226 94.75,-226 94.75,-246"/>
<text text-anchor="middle" x="76.62" y="-232.5" font-family="Helvetica,sans-Serif" font-size="10.00">Path</text>
</a>
</g>
</g>
<!-- Node1&#45;&gt;Node2 -->
<g id="edge1_Node000001_Node000002" class="edge">
<title>Node1&#45;&gt;Node2</title>
<g id="a_edge1_Node000001_Node000002"><a xlink:title=" ">
<path fill="none" stroke="#63b8ff" d="M197.59,-149.51C190.1,-169.72 175.85,-199.95 153.25,-217 136.28,-229.8 111.68,-234.05 95.2,-235.42"/>
<polygon fill="#63b8ff" stroke="#63b8ff" points="201.2,-150.81 201.15,-140.21 194.58,-148.52 201.2,-150.81"/>
</a>
</g>
</g>
<!-- Node3 -->
<g id="Node000003" class="node">
<title>Node3</title>
<g id="a_Node000003"><a xlink:href="class_code_smile_editor_1_1_asset_1_1_version_control_a7f6bbb0782e7f7635706b0e0bc921341.html#a7f6bbb0782e7f7635706b0e0bc921341" target="_top" xlink:title="Returns true if the asset can be opened for editing in the version control system.">
<polygon fill="white" stroke="#666666" points="153.25,-208 0,-208 0,-176 153.25,-176 153.25,-208"/>
<text text-anchor="start" x="8" y="-194.5" font-family="Helvetica,sans-Serif" font-size="10.00">CodeSmileEditor.Asset.Version</text>
<text text-anchor="middle" x="76.62" y="-182.5" font-family="Helvetica,sans-Serif" font-size="10.00">Control.CanMakeEditable</text>
</a>
</g>
</g>
<!-- Node1&#45;&gt;Node3 -->
<g id="edge2_Node000001_Node000003" class="edge">
<title>Node1&#45;&gt;Node3</title>
<g id="a_edge2_Node000001_Node000003"><a xlink:title=" ">
<path fill="none" stroke="#63b8ff" d="M184.46,-146.03C175.41,-153.24 164.25,-161.27 153.25,-167 147.24,-170.13 140.76,-172.98 134.21,-175.54"/>
<polygon fill="#63b8ff" stroke="#63b8ff" points="186.23,-148.28 191.72,-139.22 181.78,-142.88 186.23,-148.28"/>
</a>
</g>
</g>
<!-- Node4 -->
<g id="Node000004" class="node">
<title>Node4</title>
<g id="a_Node000004"><a xlink:href="class_code_smile_editor_1_1_asset_1_1_path_aa30592adbaf54202ead85cd483107e55.html#aa30592adbaf54202ead85cd483107e55" target="_top" xlink:title="Creates any missing folders in the path.">
<polygon fill="white" stroke="#666666" points="115,-158 38.25,-158 38.25,-138 115,-138 115,-158"/>
<text text-anchor="middle" x="76.62" y="-144.5" font-family="Helvetica,sans-Serif" font-size="10.00">CreateFolders</text>
</a>
</g>
</g>
<!-- Node1&#45;&gt;Node4 -->
<g id="edge3_Node000001_Node000004" class="edge">
<title>Node1&#45;&gt;Node4</title>
<g id="a_edge3_Node000001_Node000004"><a xlink:title=" ">
<path fill="none" stroke="#63b8ff" d="M178.24,-132.89C160.12,-135.61 135.62,-139.29 115.34,-142.34"/>
<polygon fill="#63b8ff" stroke="#63b8ff" points="178.75,-136.2 188.12,-131.25 177.71,-129.28 178.75,-136.2"/>
</a>
</g>
</g>
<!-- Node5 -->
<g id="Node000005" class="node">
<title>Node5</title>
<g id="a_Node000005"><a xlink:href="class_code_smile_editor_1_1_asset_1_1_path_a7b337848207b6bc5aebde6ae18e18d54.html#a7b337848207b6bc5aebde6ae18e18d54" target="_top" xlink:title="Converts an array of asset instances to their asset paths.">
<polygon fill="white" stroke="#666666" points="92.5,-120 60.75,-120 60.75,-100 92.5,-100 92.5,-120"/>
<text text-anchor="middle" x="76.62" y="-106.5" font-family="Helvetica,sans-Serif" font-size="10.00">Get</text>
</a>
</g>
</g>
<!-- Node1&#45;&gt;Node5 -->
<g id="edge4_Node000001_Node000005" class="edge">
<title>Node1&#45;&gt;Node5</title>
<g id="a_edge4_Node000001_Node000005"><a xlink:title=" ">
<path fill="none" stroke="#63b8ff" d="M178.28,-125.12C152.48,-121.24 113.72,-115.42 92.61,-112.25"/>
<polygon fill="#63b8ff" stroke="#63b8ff" points="177.71,-128.72 188.12,-126.75 178.75,-121.8 177.71,-128.72"/>
</a>
</g>
</g>
<!-- Node6 -->
<g id="Node000006" class="node">
<title>Node6</title>
<g id="a_Node000006"><a xlink:href="class_code_smile_editor_1_1_asset_a82b0bb0beb5f5422951631789bca4256.html#a82b0bb0beb5f5422951631789bca4256" target="_top" xlink:title="Returns the type of the main asset for the GUID.">
<polygon fill="white" stroke="#666666" points="144.62,-82 8.62,-82 8.62,-50 144.62,-50 144.62,-82"/>
<text text-anchor="start" x="16.62" y="-68.5" font-family="Helvetica,sans-Serif" font-size="10.00">CodeSmileEditor.Asset.Get</text>
<text text-anchor="middle" x="76.62" y="-56.5" font-family="Helvetica,sans-Serif" font-size="10.00">MainType</text>
</a>
</g>
</g>
<!-- Node1&#45;&gt;Node6 -->
<g id="edge5_Node000001_Node000006" class="edge">
<title>Node1&#45;&gt;Node6</title>
<g id="a_edge5_Node000001_Node000006"><a xlink:title=" ">
<path fill="none" stroke="#63b8ff" d="M184.46,-111.97C175.41,-104.76 164.25,-96.73 153.25,-91 147.24,-87.87 140.76,-85.02 134.21,-82.46"/>
<polygon fill="#63b8ff" stroke="#63b8ff" points="181.78,-115.12 191.72,-118.78 186.23,-109.72 181.78,-115.12"/>
</a>
</g>
</g>
<!-- Node7 -->
<g id="Node000007" class="node">
<title>Node7</title>
<g id="a_Node000007"><a xlink:href="class_code_smile_editor_1_1_asset_1_1_file_a9702d12ef27f2d0dfd1f8201fbb37088.html#a9702d12ef27f2d0dfd1f8201fbb37088" target="_top" xlink:title="Loads the main (root) asset object for the GUID.">
<polygon fill="white" stroke="#666666" points="146.12,-32 7.12,-32 7.12,0 146.12,0 146.12,-32"/>
<text text-anchor="start" x="15.12" y="-18.5" font-family="Helvetica,sans-Serif" font-size="10.00">CodeSmileEditor.Asset.File.</text>
<text text-anchor="middle" x="76.62" y="-6.5" font-family="Helvetica,sans-Serif" font-size="10.00">LoadMain&lt; T &gt;</text>
</a>
</g>
</g>
<!-- Node1&#45;&gt;Node7 -->
<g id="edge6_Node000001_Node000007" class="edge">
<title>Node1&#45;&gt;Node7</title>
<g id="a_edge6_Node000001_Node000007"><a xlink:title=" ">
<path fill="none" stroke="#63b8ff" d="M197.21,-108.51C189.47,-88.58 175.09,-58.77 153.25,-41 149.28,-37.77 144.88,-34.95 140.25,-32.5"/>
<polygon fill="#63b8ff" stroke="#63b8ff" points="194.2,-109.49 200.91,-117.69 200.78,-107.09 194.2,-109.49"/>
</a>
</g>
</g>
</g>
</svg>
