<?xml version="1.0" encoding="UTF-8" standalone="no"?>
<!DOCTYPE svg PUBLIC "-//W3C//DTD SVG 1.1//EN"
 "http://www.w3.org/Graphics/SVG/1.1/DTD/svg11.dtd">
<!-- Generated by graphviz version 8.0.5 (20230430.1635)
 -->
<!-- Title: Get Pages: 1 -->
<!--zoomable 170 -->

<svg id="main" version="1.1" xmlns="http://www.w3.org/2000/svg" xmlns:xlink="http://www.w3.org/1999/xlink" xml:space="preserve" onload="init(evt)">
<style type="text/css"><![CDATA[
.node, .edge {opacity: 0.7;}
.node.selected, .edge.selected {opacity: 1;}
.edge:hover path { stroke: red; }
.edge:hover polygon { stroke: red; fill: red; }
]]></style>

<defs>
  <circle id="rim" cx="0" cy="0" r="7"/>
  <circle id="rim2" cx="0" cy="0" r="3.5"/>
  <g id="zoomPlus">
    <use xlink:href="#rim" fill="#404040"><set attributeName="fill" to="#808080" begin="zoomplus.mouseover" end="zoomplus.mouseout"/></use>
    <path d="M-4,0h8M0,-4v8" fill="none" stroke="white" stroke-width="1.5" pointer-events="none"/>
  </g>
  <g id="zoomMin">
    <use xlink:href="#rim" fill="#404040"><set attributeName="fill" to="#808080" begin="zoomminus.mouseover" end="zoomminus.mouseout"/></use>
    <path d="M-4,0h8" fill="none" stroke="white" stroke-width="1.5" pointer-events="none"/>
  </g>
  <g id="arrowUp" transform="translate(30 24)">
    <use xlink:href="#rim"/>
    <path pointer-events="none" fill="none" stroke="white" stroke-width="1.5" d="M0,-3.0v7 M-2.5,-0.5L0,-3.0L2.5,-0.5"/>
  </g>
  <g id="arrowRight" transform="rotate(90) translate(36 -43)">
    <use xlink:href="#rim"/>
    <path pointer-events="none" fill="none" stroke="white" stroke-width="1.5" d="M0,-3.0v7 M-2.5,-0.5L0,-3.0L2.5,-0.5"/>
  </g>
  <g id="arrowDown" transform="rotate(180) translate(-30 -48)">
    <use xlink:href="#rim"/>
    <path pointer-events="none" fill="none" stroke="white" stroke-width="1.5" d="M0,-3.0v7 M-2.5,-0.5L0,-3.0L2.5,-0.5"/>
  </g>
  <g id="arrowLeft" transform="rotate(270) translate(-36 17)">
    <use xlink:href="#rim"/>
    <path pointer-events="none" fill="none" stroke="white" stroke-width="1.5" d="M0,-3.0v7 M-2.5,-0.5L0,-3.0L2.5,-0.5"/>
  </g>
  <g id="resetDef">
    <use xlink:href="#rim2" fill="#404040"><set attributeName="fill" to="#808080" begin="reset.mouseover" end="reset.mouseout"/></use>
  </g>
</defs>
<script type="application/ecmascript">
var viewWidth = 617;
var viewHeight = 170;
var sectionId = 'dynsection-8';
</script>
<script type="application/ecmascript" xlink:href="svg.min.js"/>
<svg id="graph" class="graph">
<g id="viewport">
<title>Get</title>
<!-- Node1 -->
<g id="Node000001" class="node">
<title>Node1</title>
<g id="a_Node000001"><a xlink:title="Gets the path of an asset file.">
<polygon fill="#999999" stroke="#666666" points="609.25,-86 577.5,-86 577.5,-66 609.25,-66 609.25,-86"/>
<text text-anchor="middle" x="593.38" y="-72.5" font-family="Helvetica,sans-Serif" font-size="10.00">Get</text>
</a>
</g>
</g>
<!-- Node2 -->
<g id="Node000002" class="node">
<title>Node2</title>
<g id="a_Node000002"><a xlink:href="class_code_smile_1_1_editor_1_1_asset_1_1_version_control.html#a7bccb4c64f3460ad63559dd8b6474c98" target="_top" xlink:title="Returns true if the asset can be opened for editing in the version control system....">
<polygon fill="white" stroke="#666666" points="541.5,-158 385.25,-158 385.25,-126 541.5,-126 541.5,-158"/>
<text text-anchor="start" x="393.25" y="-144.5" font-family="Helvetica,sans-Serif" font-size="10.00">CodeSmile.Editor.Asset.Version</text>
<text text-anchor="middle" x="463.38" y="-132.5" font-family="Helvetica,sans-Serif" font-size="10.00">Control.CanMakeEditable</text>
</a>
</g>
</g>
<!-- Node1&#45;&gt;Node2 -->
<g id="edge1_Node000001_Node000002" class="edge">
<title>Node1&#45;&gt;Node2</title>
<g id="a_edge1_Node000001_Node000002"><a xlink:title=" ">
<path fill="none" stroke="#63b8ff" d="M573.92,-93.61C564.74,-101.62 553.14,-110.7 541.5,-117 535.68,-120.15 529.4,-122.98 523.02,-125.51"/>
<polygon fill="#63b8ff" stroke="#63b8ff" points="575.84,-96.69 580.9,-87.38 571.14,-91.5 575.84,-96.69"/>
</a>
</g>
</g>
<!-- Node3 -->
<g id="Node000003" class="node">
<title>Node3</title>
<g id="a_Node000003"><a xlink:href="class_code_smile_1_1_editor_1_1_asset_1_1_path.html#aa5b7d522e7180d8e9943ca3a7f636b72" target="_top" xlink:title="Creates the folders in the path recursively. Path may point to a file, but only folders will be creat...">
<polygon fill="white" stroke="#666666" points="501.75,-108 425,-108 425,-88 501.75,-88 501.75,-108"/>
<text text-anchor="middle" x="463.38" y="-94.5" font-family="Helvetica,sans-Serif" font-size="10.00">CreateFolders</text>
</a>
</g>
</g>
<!-- Node1&#45;&gt;Node3 -->
<g id="edge2_Node000001_Node000003" class="edge">
<title>Node1&#45;&gt;Node3</title>
<g id="a_edge2_Node000001_Node000003"><a xlink:title=" ">
<path fill="none" stroke="#63b8ff" d="M566.36,-80.47C547.85,-83.65 522.69,-87.98 501.99,-91.53"/>
<polygon fill="#63b8ff" stroke="#63b8ff" points="566.93,-83.75 576.19,-78.61 565.74,-76.85 566.93,-83.75"/>
</a>
</g>
</g>
<!-- Node11 -->
<g id="Node000011" class="node">
<title>Node11</title>
<g id="a_Node000011"><a xlink:href="class_code_smile_1_1_editor_1_1_asset_1_1_file.html#a9702d12ef27f2d0dfd1f8201fbb37088" target="_top" xlink:title="Loads the main asset object for the guid. Commonly this is the only object of the asset,...">
<polygon fill="white" stroke="#666666" points="534.38,-70 392.38,-70 392.38,-38 534.38,-38 534.38,-70"/>
<text text-anchor="start" x="400.38" y="-56.5" font-family="Helvetica,sans-Serif" font-size="10.00">CodeSmile.Editor.Asset.File.</text>
<text text-anchor="middle" x="463.38" y="-44.5" font-family="Helvetica,sans-Serif" font-size="10.00">LoadMain&lt; T &gt;</text>
</a>
</g>
</g>
<!-- Node1&#45;&gt;Node11 -->
<g id="edge10_Node000001_Node000011" class="edge">
<title>Node1&#45;&gt;Node11</title>
<g id="a_edge10_Node000001_Node000011"><a xlink:title=" ">
<path fill="none" stroke="#63b8ff" d="M566.4,-71.54C557.09,-69.94 546.09,-68.05 534.83,-66.11"/>
<polygon fill="#63b8ff" stroke="#63b8ff" points="565.74,-75.15 576.19,-73.39 566.93,-68.25 565.74,-75.15"/>
</a>
</g>
</g>
<!-- Node12 -->
<g id="Node000012" class="node">
<title>Node12</title>
<g id="a_Node000012"><a xlink:href="class_code_smile_1_1_editor_1_1_asset_1_1_path.html#a7ae63d2fe5a863de1b43c6a4895f32e6" target="_top" xlink:title="Converts an array of objects to their asset paths. The returned array has the same size....">
<polygon fill="white" stroke="#666666" points="502.12,-20 424.62,-20 424.62,0 502.12,0 502.12,-20"/>
<text text-anchor="middle" x="463.38" y="-6.5" font-family="Helvetica,sans-Serif" font-size="10.00">ToAssetPaths</text>
</a>
</g>
</g>
<!-- Node1&#45;&gt;Node12 -->
<g id="edge11_Node000001_Node000012" class="edge">
<title>Node1&#45;&gt;Node12</title>
<g id="a_edge11_Node000001_Node000012"><a xlink:title=" ">
<path fill="none" stroke="#63b8ff" d="M576.85,-57.7C567.54,-47.83 554.93,-36.23 541.5,-29 529.48,-22.53 515.22,-18.22 502.25,-15.37"/>
<polygon fill="#63b8ff" stroke="#63b8ff" points="573.82,-59.68 583.11,-64.77 579.03,-55 573.82,-59.68"/>
</a>
</g>
</g>
<!-- Node4 -->
<g id="Node000004" class="node">
<title>Node4</title>
<g id="a_Node000004"><a xlink:href="class_code_smile_1_1_editor_1_1_asset_1_1_file.html#a613ec8386d2e3f381b8d875cda4f8c33" target="_top" xlink:title="Makes a copy of the source asset and saves it in the destination. Will create destination path folder...">
<polygon fill="white" stroke="#666666" points="349.25,-157 184.75,-157 184.75,-137 349.25,-137 349.25,-157"/>
<text text-anchor="middle" x="267" y="-143.5" font-family="Helvetica,sans-Serif" font-size="10.00">CodeSmile.Editor.Asset.File.Copy</text>
</a>
</g>
</g>
<!-- Node3&#45;&gt;Node4 -->
<g id="edge3_Node000003_Node000004" class="edge">
<title>Node3&#45;&gt;Node4</title>
<g id="a_edge3_Node000003_Node000004"><a xlink:title=" ">
<path fill="none" stroke="#63b8ff" d="M414.12,-109.82C404.55,-112.18 394.58,-114.66 385.25,-117 359.67,-123.42 331,-130.76 308.4,-136.57"/>
<polygon fill="#63b8ff" stroke="#63b8ff" points="414.83,-113 423.7,-107.21 413.15,-106.2 414.83,-113"/>
</a>
</g>
</g>
<!-- Node6 -->
<g id="Node000006" class="node">
<title>Node6</title>
<g id="a_Node000006"><a xlink:href="class_code_smile_1_1_editor_1_1_asset_1_1_file.html#aad585cc499d994cd55b2a123674a8a46" target="_top" xlink:title="Creates (saves) a new asset file at the target path. Also creates all non&#45;existing folders in the pat...">
<polygon fill="white" stroke="#666666" points="338,-114 196,-114 196,-82 338,-82 338,-114"/>
<text text-anchor="start" x="204" y="-100.5" font-family="Helvetica,sans-Serif" font-size="10.00">CodeSmile.Editor.Asset.File.</text>
<text text-anchor="middle" x="267" y="-88.5" font-family="Helvetica,sans-Serif" font-size="10.00">Create</text>
</a>
</g>
</g>
<!-- Node3&#45;&gt;Node6 -->
<g id="edge5_Node000003_Node000006" class="edge">
<title>Node3&#45;&gt;Node6</title>
<g id="a_edge5_Node000003_Node000006"><a xlink:title=" ">
<path fill="none" stroke="#63b8ff" d="M414.11,-98C391.27,-98 363.54,-98 338.41,-98"/>
<polygon fill="#63b8ff" stroke="#63b8ff" points="413.9,-101.5 423.9,-98 413.9,-94.5 413.9,-101.5"/>
</a>
</g>
</g>
<!-- Node9 -->
<g id="Node000009" class="node">
<title>Node9</title>
<g id="a_Node000009"><a xlink:href="class_code_smile_1_1_editor_1_1_asset_1_1_file.html#ab7eadabd235d60aafe18c2f4fea44d9e" target="_top" xlink:title="Moves an asset from source to destination path. Any non&#45;existing folders in destination path will be ...">
<polygon fill="white" stroke="#666666" points="349.25,-55 184.75,-55 184.75,-35 349.25,-35 349.25,-55"/>
<text text-anchor="middle" x="267" y="-41.5" font-family="Helvetica,sans-Serif" font-size="10.00">CodeSmile.Editor.Asset.File.Move</text>
</a>
</g>
</g>
<!-- Node3&#45;&gt;Node9 -->
<g id="edge8_Node000003_Node000009" class="edge">
<title>Node3&#45;&gt;Node9</title>
<g id="a_edge8_Node000003_Node000009"><a xlink:title=" ">
<path fill="none" stroke="#63b8ff" d="M414.06,-86.42C404.49,-84.03 394.54,-81.49 385.25,-79 357.41,-71.54 326.06,-62.41 302.78,-55.49"/>
<polygon fill="#63b8ff" stroke="#63b8ff" points="413.09,-90.03 423.64,-89.03 414.77,-83.23 413.09,-90.03"/>
</a>
</g>
</g>
<!-- Node5 -->
<g id="Node000005" class="node">
<title>Node5</title>
<g id="a_Node000005"><a xlink:href="class_code_smile_1_1_editor_1_1_asset.html#a0e4eef3b828c3805de8639ae1068d55c" target="_top" xlink:title="Makes a copy of the asset. Will create destination path folders if necessary.">
<polygon fill="white" stroke="#666666" points="147.25,-162 1.5,-162 1.5,-142 147.25,-142 147.25,-162"/>
<text text-anchor="middle" x="74.38" y="-148.5" font-family="Helvetica,sans-Serif" font-size="10.00">CodeSmile.Editor.Asset.Copy</text>
</a>
</g>
</g>
<!-- Node4&#45;&gt;Node5 -->
<g id="edge4_Node000004_Node000005" class="edge">
<title>Node4&#45;&gt;Node5</title>
<g id="a_edge4_Node000004_Node000005"><a xlink:title=" ">
<path fill="none" stroke="#63b8ff" d="M173.38,-149.43C164.71,-149.66 156,-149.89 147.56,-150.11"/>
<polygon fill="#63b8ff" stroke="#63b8ff" points="173.42,-152.9 183.33,-149.14 173.24,-145.91 173.42,-152.9"/>
</a>
</g>
</g>
<!-- Node7 -->
<g id="Node000007" class="node">
<title>Node7</title>
<g id="a_Node000007"><a xlink:href="class_code_smile_1_1_editor_1_1_asset.html#a4eb9736b74290d8c324d9d1a3fb0796a" target="_top" xlink:title="Returns an instance by creating (saving) the object as an asset file at the given path....">
<polygon fill="white" stroke="#666666" points="148.75,-124 0,-124 0,-104 148.75,-104 148.75,-124"/>
<text text-anchor="middle" x="74.38" y="-110.5" font-family="Helvetica,sans-Serif" font-size="10.00">CodeSmile.Editor.Asset.Asset</text>
</a>
</g>
</g>
<!-- Node6&#45;&gt;Node7 -->
<g id="edge6_Node000006_Node000007" class="edge">
<title>Node6&#45;&gt;Node7</title>
<g id="a_edge6_Node000006_Node000007"><a xlink:title=" ">
<path fill="none" stroke="#63b8ff" d="M184.77,-104.82C172.9,-105.81 160.74,-106.83 149.04,-107.82"/>
<polygon fill="#63b8ff" stroke="#63b8ff" points="184.89,-108.24 194.56,-103.91 184.3,-101.26 184.89,-108.24"/>
</a>
</g>
</g>
<!-- Node8 -->
<g id="Node000008" class="node">
<title>Node8</title>
<g id="a_Node000008"><a xlink:href="class_code_smile_1_1_editor_1_1_asset_1_1_file.html#aafa3d6fab63beb8b4ea1166456e994b9" target="_top" xlink:title="Tries to load the object at path. If it cannot be loaded, it will be created using the Object instanc...">
<polygon fill="white" stroke="#666666" points="145.38,-86 3.38,-86 3.38,-54 145.38,-54 145.38,-86"/>
<text text-anchor="start" x="11.38" y="-72.5" font-family="Helvetica,sans-Serif" font-size="10.00">CodeSmile.Editor.Asset.File.</text>
<text text-anchor="middle" x="74.38" y="-60.5" font-family="Helvetica,sans-Serif" font-size="10.00">LoadOrCreate&lt; T &gt;</text>
</a>
</g>
</g>
<!-- Node6&#45;&gt;Node8 -->
<g id="edge7_Node000006_Node000008" class="edge">
<title>Node6&#45;&gt;Node8</title>
<g id="a_edge7_Node000006_Node000008"><a xlink:title=" ">
<path fill="none" stroke="#63b8ff" d="M184.78,-86.07C171.83,-84.17 158.52,-82.21 145.84,-80.35"/>
<polygon fill="#63b8ff" stroke="#63b8ff" points="184.16,-89.66 194.56,-87.65 185.17,-82.74 184.16,-89.66"/>
</a>
</g>
</g>
<!-- Node10 -->
<g id="Node000010" class="node">
<title>Node10</title>
<g id="a_Node000010"><a xlink:href="class_code_smile_1_1_editor_1_1_asset.html#a45faf9fc17e3cb57b87d2ae09e4dd7f8" target="_top" xlink:title="Moves asset to destination path. Any non&#45;existing folders in destination path will be created....">
<polygon fill="white" stroke="#666666" points="147.25,-36 1.5,-36 1.5,-16 147.25,-16 147.25,-36"/>
<text text-anchor="middle" x="74.38" y="-22.5" font-family="Helvetica,sans-Serif" font-size="10.00">CodeSmile.Editor.Asset.Move</text>
</a>
</g>
</g>
<!-- Node9&#45;&gt;Node10 -->
<g id="edge9_Node000009_Node000010" class="edge">
<title>Node9&#45;&gt;Node10</title>
<g id="a_edge9_Node000009_Node000010"><a xlink:title=" ">
<path fill="none" stroke="#63b8ff" d="M173.67,-35.8C164.9,-34.92 156.1,-34.05 147.56,-33.19"/>
<polygon fill="#63b8ff" stroke="#63b8ff" points="173.03,-39.35 183.33,-36.86 173.72,-32.38 173.03,-39.35"/>
</a>
</g>
</g>
</g>
</svg>

<g id="navigator" transform="translate(0 0)" fill="#404254">
  <rect fill="#f2f5e9" fill-opacity="0.5" stroke="#606060" stroke-width=".5" x="0" y="0" width="60" height="60"/>
  <use id="zoomplus" xlink:href="#zoomPlus" x="17" y="9" onmousedown="handleZoom(evt,'in')"/>
  <use id="zoomminus" xlink:href="#zoomMin" x="42" y="9" onmousedown="handleZoom(evt,'out')"/>
  <use id="reset" xlink:href="#resetDef" x="30" y="36" onmousedown="handleReset()"/>
   <use id="arrowup" xlink:href="#arrowUp" x="0" y="0" onmousedown="handlePan(0,-1)"/>
  <use id="arrowright" xlink:href="#arrowRight" x="0" y="0" onmousedown="handlePan(1,0)"/>
  <use id="arrowdown" xlink:href="#arrowDown" x="0" y="0" onmousedown="handlePan(0,1)"/>
  <use id="arrowleft" xlink:href="#arrowLeft" x="0" y="0" onmousedown="handlePan(-1,0)"/>
</g>
<svg viewBox="0 0 15 15" width="100%" height="30px" preserveAspectRatio="xMaxYMin meet">
 <g id="arrow_out" transform="scale(0.3 0.3)">
  <a xlink:href="class_code_smile_1_1_editor_1_1_asset_1_1_path_a6bd701a7c06a58ac8ebd39c190df3e61_icgraph_org.svg" target="_base">
   <rect id="button" ry="5" rx="5" y="6" x="6" height="38" width="38"
        fill="#f2f5e9" fill-opacity="0.5" stroke="#606060" stroke-width="1.0"/>
   <path id="arrow"
     d="M 11.500037,31.436501 C 11.940474,20.09759 22.043105,11.32322 32.158766,21.979434 L 37.068811,17.246167 C 37.068811,17.246167 37.088388,32 37.088388,32 L 22.160133,31.978069 C 22.160133,31.978069 26.997745,27.140456 26.997745,27.140456 C 18.528582,18.264221 13.291696,25.230495 11.500037,31.436501 z"
     style="fill:#404040;"/>
  </a>
 </g>
</svg>

<style type='text/css'>
<![CDATA[
[data-mouse-over-selected='false'] { opacity: 0.7; }
[data-mouse-over-selected='true']  { opacity: 1.0; }
]]>
</style>
<script type="application/ecmascript"><![CDATA[
document.addEventListener('DOMContentLoaded', (event) => {
  highlightEdges();
  highlightAdjacentNodes();
});
]]></script>
</svg>
