<?xml version="1.0" encoding="UTF-8" standalone="no"?>
<!DOCTYPE svg PUBLIC "-//W3C//DTD SVG 1.1//EN"
 "http://www.w3.org/Graphics/SVG/1.1/DTD/svg11.dtd">
<!-- Generated by graphviz version 8.0.5 (20230430.1635)
 -->
<!-- Title: Load&lt; T &gt; Pages: 1 -->
<svg width="418pt" height="40pt"
 viewBox="0.00 0.00 418.25 40.00" xmlns="http://www.w3.org/2000/svg" xmlns:xlink="http://www.w3.org/1999/xlink">
<g id="graph0" class="graph" transform="scale(1 1) rotate(0) translate(4 36)">
<title>Load&lt; T &gt;</title>
<!-- Node1 -->
<g id="Node000001" class="node">
<title>Node1</title>
<g id="a_Node000001"><a xlink:title="Loads a (sub) object from the asset identified by type.">
<polygon fill="#999999" stroke="#666666" points="410.25,-26 350,-26 350,-6 410.25,-6 410.25,-26"/>
<text text-anchor="middle" x="380.12" y="-12.5" font-family="Helvetica,sans-Serif" font-size="10.00">Load&lt; T &gt;</text>
</a>
</g>
</g>
<!-- Node2 -->
<g id="Node000002" class="node">
<title>Node2</title>
<g id="a_Node000002"><a xlink:href="class_code_smile_editor_1_1_asset_1_1_file_ae7494b282eac62a955cb4f867d72f0ef.html#ae7494b282eac62a955cb4f867d72f0ef" target="_top" xlink:title="Imports a file at a given path that was created or modified &#39;externally&#39;, then loads and returns the ...">
<polygon fill="white" stroke="#666666" points="314,-32 175,-32 175,0 314,0 314,-32"/>
<text text-anchor="start" x="183" y="-18.5" font-family="Helvetica,sans-Serif" font-size="10.00">CodeSmileEditor.Asset.File.</text>
<text text-anchor="middle" x="244.5" y="-6.5" font-family="Helvetica,sans-Serif" font-size="10.00">ImportAndLoad&lt; T &gt;</text>
</a>
</g>
</g>
<!-- Node1&#45;&gt;Node2 -->
<g id="edge1_Node000001_Node000002" class="edge">
<title>Node1&#45;&gt;Node2</title>
<g id="a_edge1_Node000001_Node000002"><a xlink:title=" ">
<path fill="none" stroke="#63b8ff" d="M338.91,-16C331.15,-16 322.83,-16 314.46,-16"/>
<polygon fill="#63b8ff" stroke="#63b8ff" points="338.8,-19.5 348.8,-16 338.8,-12.5 338.8,-19.5"/>
</a>
</g>
</g>
<!-- Node3 -->
<g id="Node000003" class="node">
<title>Node3</title>
<g id="a_Node000003"><a xlink:href="class_code_smile_editor_1_1_asset_1_1_file_a0e98fcbe9c4b970e5cafd9e459b29534.html#a0e98fcbe9c4b970e5cafd9e459b29534" target="_top" xlink:title="Loads an asset at path or creates the asset if needed.">
<polygon fill="white" stroke="#666666" points="139,-32 0,-32 0,0 139,0 139,-32"/>
<text text-anchor="start" x="8" y="-18.5" font-family="Helvetica,sans-Serif" font-size="10.00">CodeSmileEditor.Asset.File.</text>
<text text-anchor="middle" x="69.5" y="-6.5" font-family="Helvetica,sans-Serif" font-size="10.00">LoadOrCreate&lt; T &gt;</text>
</a>
</g>
</g>
<!-- Node2&#45;&gt;Node3 -->
<g id="edge2_Node000002_Node000003" class="edge">
<title>Node2&#45;&gt;Node3</title>
<g id="a_edge2_Node000002_Node000003"><a xlink:title=" ">
<path fill="none" stroke="#63b8ff" d="M163.66,-16C155.56,-16 147.39,-16 139.42,-16"/>
<polygon fill="#63b8ff" stroke="#63b8ff" points="163.63,-19.5 173.63,-16 163.63,-12.5 163.63,-19.5"/>
</a>
</g>
</g>
</g>
</svg>
