<?xml version="1.0" encoding="UTF-8" standalone="no"?>
<!DOCTYPE svg PUBLIC "-//W3C//DTD SVG 1.1//EN"
 "http://www.w3.org/Graphics/SVG/1.1/DTD/svg11.dtd">
<!-- Generated by graphviz version 8.0.5 (20230430.1635)
 -->
<!-- Title: Get Pages: 1 -->
<svg width="232pt" height="216pt"
 viewBox="0.00 0.00 232.00 216.00" xmlns="http://www.w3.org/2000/svg" xmlns:xlink="http://www.w3.org/1999/xlink">

<svg id="main" version="1.1" xmlns="http://www.w3.org/2000/svg" xmlns:xlink="http://www.w3.org/1999/xlink" xml:space="preserve" onload="init(evt)">
<style type="text/css"><![CDATA[
.node, .edge {opacity: 0.7;}
.node.selected, .edge.selected {opacity: 1;}
.edge:hover path { stroke: red; }
.edge:hover polygon { stroke: red; fill: red; }
]]></style>
<script type="application/ecmascript" xlink:href="svg.min.js"/>
<svg id="graph" class="graph">
<g id="graph0" class="graph" transform="scale(1 1) rotate(0) translate(4 212)">
<title>Get</title>
<!-- Node1 -->
<g id="Node000001" class="node">
<title>Node1</title>
<g id="a_Node000001"><a xlink:title="Gets the path of an asset file.">
<polygon fill="#999999" stroke="#666666" points="224,-114 192.25,-114 192.25,-94 224,-94 224,-114"/>
<text text-anchor="middle" x="208.12" y="-100.5" font-family="Helvetica,sans-Serif" font-size="10.00">Get</text>
</a>
</g>
</g>
<!-- Node2 -->
<g id="Node000002" class="node">
<title>Node2</title>
<g id="a_Node000002"><a xlink:href="class_code_smile_1_1_editor_1_1_asset_1_1_version_control_a7bccb4c64f3460ad63559dd8b6474c98.html#a7bccb4c64f3460ad63559dd8b6474c98" target="_top" xlink:title="Returns true if the asset can be opened for editing in the version control system....">
<polygon fill="white" stroke="#666666" points="156.25,-208 0,-208 0,-176 156.25,-176 156.25,-208"/>
<text text-anchor="start" x="8" y="-194.5" font-family="Helvetica,sans-Serif" font-size="10.00">CodeSmile.Editor.Asset.Version</text>
<text text-anchor="middle" x="78.12" y="-182.5" font-family="Helvetica,sans-Serif" font-size="10.00">Control.CanMakeEditable</text>
</a>
</g>
</g>
<!-- Node1&#45;&gt;Node2 -->
<g id="edge1_Node000001_Node000002" class="edge">
<title>Node1&#45;&gt;Node2</title>
<g id="a_edge1_Node000001_Node000002"><a xlink:title=" ">
<path fill="none" stroke="#63b8ff" d="M195.87,-123.26C186.79,-137.22 172.84,-155.59 156.25,-167 151.5,-170.27 146.28,-173.13 140.89,-175.64"/>
<polygon fill="#63b8ff" stroke="#63b8ff" points="199.29,-125.38 201.58,-115.03 193.34,-121.69 199.29,-125.38"/>
</a>
</g>
</g>
<!-- Node3 -->
<g id="Node000003" class="node">
<title>Node3</title>
<g id="a_Node000003"><a xlink:href="class_code_smile_1_1_editor_1_1_asset_1_1_path_aa5b7d522e7180d8e9943ca3a7f636b72.html#aa5b7d522e7180d8e9943ca3a7f636b72" target="_top" xlink:title="Creates the folders in the path recursively. Path may point to a file, but only folders will be creat...">
<polygon fill="white" stroke="#666666" points="116.5,-158 39.75,-158 39.75,-138 116.5,-138 116.5,-158"/>
<text text-anchor="middle" x="78.12" y="-144.5" font-family="Helvetica,sans-Serif" font-size="10.00">CreateFolders</text>
</a>
</g>
</g>
<!-- Node1&#45;&gt;Node3 -->
<g id="edge2_Node000001_Node000003" class="edge">
<title>Node1&#45;&gt;Node3</title>
<g id="a_edge2_Node000001_Node000003"><a xlink:title=" ">
<path fill="none" stroke="#63b8ff" d="M182.29,-117.53C174.15,-121.6 164.96,-125.83 156.25,-129 143.68,-133.58 129.56,-137.41 116.88,-140.41"/>
<polygon fill="#63b8ff" stroke="#63b8ff" points="183.65,-120.25 190.92,-112.55 180.43,-114.04 183.65,-120.25"/>
</a>
</g>
</g>
<!-- Node4 -->
<g id="Node000004" class="node">
<title>Node4</title>
<g id="a_Node000004"><a xlink:href="class_code_smile_1_1_editor_1_1_asset_a82b0bb0beb5f5422951631789bca4256.html#a82b0bb0beb5f5422951631789bca4256" target="_top" xlink:title="Returns the type of the main asset for the GUID.">
<polygon fill="white" stroke="#666666" points="147.62,-120 8.62,-120 8.62,-88 147.62,-88 147.62,-120"/>
<text text-anchor="start" x="16.62" y="-106.5" font-family="Helvetica,sans-Serif" font-size="10.00">CodeSmile.Editor.Asset.Get</text>
<text text-anchor="middle" x="78.12" y="-94.5" font-family="Helvetica,sans-Serif" font-size="10.00">MainType</text>
</a>
</g>
</g>
<!-- Node1&#45;&gt;Node4 -->
<g id="edge3_Node000001_Node000004" class="edge">
<title>Node1&#45;&gt;Node4</title>
<g id="a_edge3_Node000001_Node000004"><a xlink:title=" ">
<path fill="none" stroke="#63b8ff" d="M181.11,-104C171.41,-104 159.87,-104 148.11,-104"/>
<polygon fill="#63b8ff" stroke="#63b8ff" points="180.94,-107.5 190.94,-104 180.94,-100.5 180.94,-107.5"/>
</a>
</g>
</g>
<!-- Node5 -->
<g id="Node000005" class="node">
<title>Node5</title>
<g id="a_Node000005"><a xlink:href="class_code_smile_1_1_editor_1_1_asset_1_1_file_a9702d12ef27f2d0dfd1f8201fbb37088.html#a9702d12ef27f2d0dfd1f8201fbb37088" target="_top" xlink:title="Loads the main asset object for the GUID.">
<polygon fill="white" stroke="#666666" points="149.12,-70 7.12,-70 7.12,-38 149.12,-38 149.12,-70"/>
<text text-anchor="start" x="15.12" y="-56.5" font-family="Helvetica,sans-Serif" font-size="10.00">CodeSmile.Editor.Asset.File.</text>
<text text-anchor="middle" x="78.12" y="-44.5" font-family="Helvetica,sans-Serif" font-size="10.00">LoadMain&lt; T &gt;</text>
</a>
</g>
</g>
<!-- Node1&#45;&gt;Node5 -->
<g id="edge4_Node000001_Node000005" class="edge">
<title>Node1&#45;&gt;Node5</title>
<g id="a_edge4_Node000001_Node000005"><a xlink:title=" ">
<path fill="none" stroke="#63b8ff" d="M182.15,-90.84C174,-86.79 164.84,-82.48 156.25,-79 148.81,-75.99 140.87,-73.07 133,-70.37"/>
<polygon fill="#63b8ff" stroke="#63b8ff" points="180.3,-94.34 190.8,-95.75 183.48,-88.1 180.3,-94.34"/>
</a>
</g>
</g>
<!-- Node6 -->
<g id="Node000006" class="node">
<title>Node6</title>
<g id="a_Node000006"><a xlink:href="class_code_smile_1_1_editor_1_1_asset_1_1_path_a7ae63d2fe5a863de1b43c6a4895f32e6.html#a7ae63d2fe5a863de1b43c6a4895f32e6" target="_top" xlink:title="Converts an array of objects to their asset paths. The returned array has the same size....">
<polygon fill="white" stroke="#666666" points="116.88,-20 39.38,-20 39.38,0 116.88,0 116.88,-20"/>
<text text-anchor="middle" x="78.12" y="-6.5" font-family="Helvetica,sans-Serif" font-size="10.00">ToAssetPaths</text>
</a>
</g>
</g>
<!-- Node1&#45;&gt;Node6 -->
<g id="edge5_Node000001_Node000006" class="edge">
<title>Node1&#45;&gt;Node6</title>
<g id="a_edge5_Node000001_Node000006"><a xlink:title=" ">
<path fill="none" stroke="#63b8ff" d="M198.67,-84.09C190.36,-66.92 176.03,-42.77 156.25,-29 144.82,-21.04 130.4,-16.41 117.14,-13.71"/>
<polygon fill="#63b8ff" stroke="#63b8ff" points="195.73,-85.09 203.07,-92.73 202.1,-82.18 195.73,-85.09"/>
</a>
</g>
</g>
</g>
</svg>
</svg>

<style type='text/css'>
<![CDATA[
[data-mouse-over-selected='false'] { opacity: 0.7; }
[data-mouse-over-selected='true']  { opacity: 1.0; }
]]>
</style>
<script type="application/ecmascript"><![CDATA[
document.addEventListener('DOMContentLoaded', (event) => {
  highlightEdges();
  highlightAdjacentNodes();
});
]]></script>
</svg>
